<?xml version="1.0" encoding="utf-8"?>
<!-- Generator: Adobe Illustrator 22.1.0, SVG Export Plug-In . SVG Version: 6.00 Build 0)  -->
<svg version="1.1" id="Layer_1" xmlns="http://www.w3.org/2000/svg" xmlns:xlink="http://www.w3.org/1999/xlink" x="0px" y="0px"
	 viewBox="0 0 45 32" style="enable-background:new 0 0 45 32;" xml:space="preserve">
<style type="text/css">
	.st0{fill:none;}
	.st1{fill:#FFFFFF;}
	.st2{fill:#2F742E;}
	.st3{fill:#C0003B;}
</style>
<g>
	<path class="st0" d="M0,0h45v32H0V0z"/>
	<path class="st1" d="M0,0h45v32H0V0z"/>
	<path d="M45,32H0V0h45V32L45,32z M0.1,31.8h44.7V0.2H0.1V31.8L0.1,31.8z"/>
	<path class="st2" d="M0,0h22.5v32H0V0z"/>
	<path class="st3" d="M27.7,20.1c0.3-0.2,0.6-0.5,0.8-0.8c-1.8,3.1-5.8,4.2-9,2.4c-3.1-1.8-4.2-5.8-2.4-9c1.8-3.1,5.8-4.2,9-2.4
		c1,0.6,1.8,1.4,2.4,2.4c-1.8-2.3-5.1-2.6-7.4-0.8c-2.3,1.8-2.6,5.1-0.8,7.4C22.1,21.5,25.4,21.9,27.7,20.1L27.7,20.1z M25.1,17.2
		l1.4,1.9v-2.4l2.3-0.7l-2.3-0.7v-2.4l-1.4,1.9l-2.3-0.7l1.4,1.9l-1.4,1.9L25.1,17.2z"/>
</g>
</svg>
