<svg xmlns="http://www.w3.org/2000/svg" viewBox="0 0 720 720"><defs><style>.cls-1{fill:#00141e;}.cls-2{fill:none;}</style></defs><title>alpha-sign</title><g id="Layer_2" data-name="Layer 2"><g id="_1" data-name="1"><path class="cls-1" d="M648.86,392.64l65.6,64.7A18.62,18.62,0,0,1,720,470.59V623c0,16.51-19.92,24.85-31.68,13.25L545.44,495.36a18.6,18.6,0,0,1,0-26.49l77.28-76.23a18.62,18.62,0,0,1,26.14,0Zm-118.62-153-18.28,18L408.18,360,303.94,462.81h0l-90.82-89.56a18.63,18.63,0,0,1,0-26.5l77.75-76.68a18.61,18.61,0,0,1,26.14,0l54.06,53.32a18.63,18.63,0,0,0,26.14,0l77.28-76.23a18.61,18.61,0,0,0,0-26.49L317,65.36a18.61,18.61,0,0,0-26.14,0L5.54,346.75a18.61,18.61,0,0,0,0,26.5L290.86,654.64a18.61,18.61,0,0,0,26.14,0L483.7,490.23,512,462.35h0L615.75,360l24.6-24.27,74.11-73.08A18.64,18.64,0,0,0,720,249.4V97c0-16.51-19.92-24.84-31.68-13.25Z"/><rect class="cls-2" width="720" height="720"/></g></g></svg>