<?xml version="1.0" encoding="utf-8"?>
<!-- Generator: Adobe Illustrator 22.1.0, SVG Export Plug-In . SVG Version: 6.00 Build 0)  -->
<svg version="1.1" id="Layer_1" xmlns="http://www.w3.org/2000/svg" xmlns:xlink="http://www.w3.org/1999/xlink" x="0px" y="0px"
	 viewBox="0 0 45 32" style="enable-background:new 0 0 45 32;" xml:space="preserve">
<style type="text/css">
	.st0{fill:none;}
	.st1{fill:#D90037;}
	.st2{fill:#EEE528;}
	.st3{fill:#221E88;}
	.st4{fill:#272425;}
	.st5{fill:#DBC190;}
	.st6{fill:#4B2508;}
	.st7{fill:#FFFFFF;}
	.st8{fill:#F9EB2E;}
	.st9{fill:#3227FC;}
</style>
<g>
	<path class="st0" d="M0,0h45v32H0V0z"/>
	<path class="st1" d="M30.9,0H45v32H30.9V0z"/>
	<path class="st2" d="M14.1,0h16.9v32H14.1V0z"/>
	<path class="st3" d="M0,0h14.1v32H0V0z"/>
	<g>
		<g>
			<path class="st4" d="M23,10.6c-0.1,0-0.1-0.1,0-0.2c0-0.1,0.1-0.1,0.2,0l0.1,0c0,0,0,0,0,0c0,0,0,0,0,0l-0.1-0.1
				c-0.1,0-0.1,0-0.2,0C23,10.5,23,10.6,23,10.6L23,10.6z"/>
		</g>
		<g>
			<path class="st5" d="M17.6,17.8l0.1-0.1c0,0,0-0.1,0.1-0.1l0.1-0.1c0,0,0,0,0-0.1c0,0,0,0,0,0c0,0,0,0,0,0c0,0,0,0,0,0.1l0,0l0,0
				l0,0.1c0,0,0,0.1-0.1,0.1L17.6,17.8L17.6,17.8z"/>
		</g>
		<path class="st5" d="M21.1,8.6c0.6,0,0.8,0.5,1.3,0.5c0.3,0,0.5-0.1,0.8-0.3c0.2-0.1,0.3-0.2,0.6-0.2c0.2,0,0.4,0.1,0.5,0.3
			c0.1,0.1,0.1,0.4,0.1,0.5c-0.1,0.3-0.1,0.4-0.2,0.6c0,0.1-0.1,0.2-0.1,0.3c0,0.3,0.4,0.4,0.7,0.4c0.1,0,0.6,0,0.9-0.3
			c-0.2,0-0.4-0.1-0.4-0.3c0-0.2,0.1-0.3,0.3-0.4c0,0,0.1,0,0.1,0c0,0,0-0.1,0.1-0.1c0.1-0.1,0.1-0.1,0.3-0.1c0.1,0,0.1,0,0.2,0.1
			c0,0,0,0.1,0.1,0.1c0.1,0,0.1-0.1,0.2-0.1c0.1,0,0.1,0,0.2,0c0,0,0,0.1,0.1,0.1c0,0,0.2-0.1,0.2-0.1c0.2,0,0.2,0.1,0.3,0.2
			c0,0,0,0.1,0.1,0.1c0.1,0,0.2,0,0.3,0.1c0,0,0.1,0.1,0.1,0.1c0,0,0,0.1,0.1,0.1c0,0,0.1,0,0.1,0c0.1,0.1,0.2,0.2,0.2,0.4
			c0,0,0,0.1,0,0.2c-0.1,0.5-0.5,0.6-0.8,1c-0.1,0.2-0.2,0.3-0.2,0.5c0,0.1,0.1,0.2,0.1,0.2c0-0.1,0-0.2,0.1-0.2
			c0.1,0,0.3,0.1,0.3,0.3c0,0,0,0.1,0,0.1c0.1-0.1,0.2-0.1,0.3-0.1c0,0,0.1,0,0.1,0c0.2,0,0.5,0.1,0.7,0.3c0.5,0.4,0.6,1,0.5,1.2
			c-0.1,0.4,0,1.1-1,1.3c0.2,0.1,0.3,0.2,0.3,0.4c0,0.2-0.1,0.3-0.3,0.3c-0.1,0-0.2,0-0.3-0.1c-0.2,0.2-0.2,0.4-0.2,0.7
			c0,0.2,0,0.3,0.1,0.4c0.1,0.2,0.1,0.3,0.3,0.4c0.1-0.1,0.1-0.2,0.3-0.2c0.1,0,0.2,0,0.3,0.2c0,0,0,0.1,0,0.1c0,0,0.1,0.1,0.1,0.1
			c0,0.1,0,0.1,0,0.2c0,0,0.1,0.1,0.1,0.1c0,0.1,0,0.1,0,0.2c0,0.2-0.2,0.4-0.4,0.4c-0.1,0-0.1,0-0.2,0c0.1,0.1,0.2,0.2,0.3,0.3
			c0.1,0.2,0.2,0.4,0.2,0.6c0,0,0,0.1,0,0.1c0,0.3-0.1,0.5-0.2,0.8c-0.1,0.3-0.3,0.4-0.5,0.6c-0.4,0.3-0.7,0.4-1.1,0.5
			c-0.3,0.1-0.5,0.1-0.8,0.1c-0.4,0-0.6,0-1,0.1c-0.5,0-0.9,0.1-1.2,0.5c0.2,0.1,0.3,0.3,0.3,0.5c0,0.2-0.1,0.4-0.3,0.4
			c0,0-0.1,0-0.1,0c-0.1,0-0.1,0.1-0.1,0.1c-0.1,0.1-0.2,0.1-0.3,0.1c-0.2,0-0.3,0-0.5-0.2c-0.2,0.1-0.2,0.3-0.4,0.4
			c-0.1,0-0.1,0.1-0.2,0.1c-0.1,0-0.2-0.1-0.2-0.1c-0.1-0.1-0.2-0.2-0.3-0.3c-0.2,0.1-0.3,0.2-0.5,0.2c-0.1,0-0.2,0-0.3-0.1
			c0,0-0.1-0.1-0.1-0.1c-0.1,0-0.1,0-0.2,0c-0.2-0.1-0.4-0.3-0.4-0.5c0-0.2,0.1-0.3,0.3-0.4c-0.4-0.4-0.7-0.4-1.2-0.5
			c-0.4,0-0.6,0-1-0.1c-0.3,0-0.5,0-0.8-0.1c-0.2,0-0.4-0.1-0.6-0.2c-0.7-0.3-1.2-0.8-1.3-1.6c0-0.1,0-0.1,0-0.2
			c0-0.4,0.2-0.7,0.5-1c-0.1,0-0.1,0-0.2,0c-0.2-0.1-0.3-0.2-0.3-0.4c0-0.1,0-0.1,0-0.2c0,0,0.1-0.1,0.1-0.1c0-0.1,0-0.1,0-0.2
			c0,0,0.1-0.1,0.1-0.1c0.1-0.1,0.1-0.2,0.3-0.2c0.1,0,0.2,0.1,0.3,0.2c0.1-0.1,0.2-0.2,0.2-0.3c0.1-0.2,0.2-0.3,0.2-0.6
			c0-0.2,0-0.2-0.1-0.4c0-0.1,0-0.2-0.1-0.3c-0.1,0.1-0.1,0.1-0.2,0.1c-0.2,0-0.4-0.2-0.4-0.4c0-0.1,0.1-0.3,0.2-0.3
			c-0.1-0.1-0.2-0.1-0.3-0.2C16,15.1,16,15,15.8,14.8c-0.1-0.1-0.1-0.2-0.1-0.3c0-0.2-0.1-0.3-0.1-0.4c0,0,0-0.1,0-0.1
			c0-0.4,0.1-0.6,0.3-0.9c0.1-0.2,0.2-0.3,0.4-0.4c0.2-0.1,0.3-0.1,0.4-0.1c0.1,0,0.1,0,0.1,0c0.1,0,0.1,0,0.2,0.1
			c0,0,0.1,0.1,0.1,0c0,0,0-0.1,0-0.1c0-0.1,0.1-0.3,0.3-0.3c0.1,0,0.2,0.1,0.2,0.2c0-0.1,0.1-0.1,0.1-0.2c0-0.2-0.1-0.4-0.3-0.6
			c-0.3-0.4-0.8-0.6-0.8-1.1c0-0.2,0.1-0.3,0.2-0.3c0,0,0.1,0,0.1,0c0,0,0-0.1,0-0.1c0-0.1,0.1-0.1,0.1-0.1c0.1-0.1,0.1,0,0.2-0.1
			c0,0,0.1-0.1,0.1-0.1c0.1-0.1,0.2-0.2,0.3-0.2c0.1,0,0.1,0,0.2,0c0,0,0.1,0,0.1,0c0,0,0.1-0.1,0.1-0.1c0.1,0,0.1,0,0.2,0
			c0.1,0,0.1,0,0.2,0c0,0,0,0,0.1,0c0.1,0,0.1-0.1,0.2-0.1c0.1,0,0.1,0,0.2,0.1c0.1,0,0.1,0.1,0.1,0.1c0,0,0.1,0,0.1,0
			c0.2,0.1,0.3,0.2,0.3,0.4c0,0.1,0,0.2-0.1,0.3c-0.1,0.1-0.1,0-0.2,0.1c0.3,0.2,0.5,0.3,0.8,0.3c0.3,0,0.7-0.1,0.7-0.4
			c0-0.1-0.1-0.2-0.1-0.3c-0.1-0.2-0.2-0.4-0.2-0.6c0-0.2,0-0.3,0.1-0.5C20.7,8.6,20.9,8.6,21.1,8.6L21.1,8.6z"/>
		<g>
			<path class="st4" d="M17.1,13.3C17.1,13.3,17,13.3,17.1,13.3C17,13.3,17,13.3,17.1,13.3C17,13.3,17,13.3,17.1,13.3
				C17.1,13.3,17.1,13.3,17.1,13.3c0.1-0.1,0.1-0.1,0.1-0.2c0-0.1-0.1-0.1-0.2-0.1c0.1,0,0.2,0.1,0.2,0.1
				C17.3,13.2,17.2,13.3,17.1,13.3C17.2,13.3,17.1,13.3,17.1,13.3L17.1,13.3z"/>
		</g>
		<g>
			<path class="st5" d="M22.9,22.7c-0.3,0-0.4-0.2-0.4-0.4c0,0,0-0.1,0-0.1c0-0.2,0.2-0.3,0.3-0.5l0.1-0.1c0.1-0.1,0.1-0.1,0.2-0.1
				c0.2-0.1,0.4-0.2,0.7-0.3l0.2,0c0.1,0,0.2,0,0.3-0.1l0.1,0c0.1,0,0.3,0,0.4,0l0.1,0c0.2,0,0.4,0,0.5,0h0.3c0.1,0,0.3,0,0.4,0
				l0.1,0c0.1,0,0.2,0,0.4,0c0.4,0,0.7-0.1,1-0.3c0.4-0.2,0.6-0.8,0.5-1.3c0,0,0-0.1-0.1-0.2c0,0-0.1-0.1-0.1-0.1
				c-0.1-0.1-0.1-0.1-0.2-0.1c-0.2-0.1-0.4,0-0.4,0.1c-0.1,0.1-0.1,0.2-0.1,0.2c0,0,0,0.1,0,0.1c0,0,0,0,0,0c0,0,0,0,0,0
				c0,0,0,0,0-0.1c0-0.1,0-0.2,0.1-0.2c0.1-0.1,0.3-0.2,0.4-0.1c0.1,0,0.1,0.1,0.2,0.2c0,0,0.1,0.1,0.1,0.1c0,0.1,0.1,0.1,0.1,0.2
				c0.2,0.5-0.1,1-0.5,1.3c-0.3,0.2-0.6,0.3-1,0.3c-0.2,0-0.3,0-0.4,0h-0.1c-0.1,0-0.3,0-0.4,0l-0.3,0c-0.2,0-0.3,0-0.5,0l-0.1,0
				c-0.1,0-0.3,0-0.4,0l-0.1,0c-0.1,0-0.2,0-0.3,0l-0.2,0.1c-0.3,0.1-0.5,0.2-0.7,0.3c-0.1,0.1-0.1,0.1-0.2,0.1l-0.1,0.1
				c-0.1,0.1-0.3,0.3-0.3,0.5c0,0,0,0.1,0,0.1C22.5,22.4,22.6,22.6,22.9,22.7L22.9,22.7z"/>
		</g>
		<g>
			<path class="st6" d="M23.9,22.7c-0.1,0-0.2-0.1-0.2-0.2C23.7,22.6,23.8,22.6,23.9,22.7c0.1-0.1,0.1-0.1,0.1-0.1c0,0,0-0.1,0-0.1
				l0-0.1l0,0c0,0,0,0,0-0.1l0,0c0,0,0.1,0.1,0.1,0.1l0,0.1c0,0.1,0,0.1,0,0.1C24,22.6,24,22.6,23.9,22.7
				C23.9,22.7,23.9,22.7,23.9,22.7L23.9,22.7z"/>
		</g>
		<g>
			<path class="st6" d="M17.2,20.6c-0.3-0.2-0.5-0.6-0.3-1.1c0,0,0-0.1,0.1-0.2c0,0,0.1-0.1,0.1-0.1c0.1-0.1,0.1-0.1,0.2-0.2
				c0.2-0.1,0.4,0,0.5,0.1c0.1,0.1,0.1,0.2,0,0.3c-0.1,0.1-0.1,0.1-0.1,0c0,0-0.1,0-0.1,0l0-0.1l0,0c0.1,0,0.1,0,0.1,0
				c0.1-0.1,0-0.2,0-0.3C17.6,19,17.4,19,17.2,19c-0.1,0-0.1,0.1-0.2,0.1c0,0-0.1,0.1-0.1,0.1c0,0.1-0.1,0.1-0.1,0.2
				C16.7,19.9,17,20.3,17.2,20.6L17.2,20.6z"/>
		</g>
		<g>
			<path class="st6" d="M23.8,22.6c-0.1,0-0.2-0.1-0.2-0.2C23.7,22.5,23.7,22.6,23.8,22.6c0.1-0.1,0.1-0.1,0.1-0.1c0,0,0-0.1,0-0.1
				c0,0,0,0,0-0.1l0,0c0,0,0,0,0-0.1c0,0,0,0,0,0c0,0,0,0,0,0c0,0,0.1,0.1,0.1,0.1c0,0,0,0,0,0.1c0,0.1,0,0.1,0,0.1
				C24,22.6,23.9,22.6,23.8,22.6C23.9,22.6,23.9,22.6,23.8,22.6L23.8,22.6z"/>
		</g>
		<g>
			<path class="st6" d="M21.9,10.7c0-0.1,0-0.2,0-0.2c0,0-0.1,0-0.2,0l-0.2,0.1c0,0,0,0,0,0c0,0,0,0,0,0l0.2-0.1c0.1,0,0.2,0,0.2,0
				C22,10.5,22,10.6,21.9,10.7L21.9,10.7z"/>
		</g>
		<path class="st4" d="M19.1,10.2c0,0.1,0.1,0.1,0.2,0.2c0.1,0,0.2,0,0.3-0.1c0.1-0.1,0.1-0.2,0-0.3c0-0.1-0.1-0.1-0.1-0.2
			L19.1,10.2L19.1,10.2z"/>
		<g>
			<path class="st6" d="M19.3,10.4C19.3,10.4,19.3,10.4,19.3,10.4c-0.2,0-0.2-0.1-0.3-0.2l0.4-0.4c0.1,0.1,0.1,0.1,0.2,0.2
				c0,0.1,0,0.2,0,0.3C19.5,10.4,19.4,10.4,19.3,10.4L19.3,10.4z M19.4,9.8l-0.3,0.4c0,0.1,0.1,0.1,0.2,0.1l0,0c0,0,0.1,0,0.2-0.1
				c0.1-0.1,0.1-0.2,0-0.3C19.5,9.9,19.5,9.9,19.4,9.8L19.4,9.8z"/>
		</g>
		<polygon class="st5" points="19.4,9.8 19.4,9.8 19.5,9.9 19.5,9.9 19.6,10 19.6,10.1 19.6,10.1 19.5,10.2 19.5,10.2 19.5,10.3 
			19.4,10.3 19.3,10.3 19.2,10.3 19.2,10.3 19.1,10.3 19.1,10.2 19,10.1 19,10.1 		"/>
		<g>
			<path class="st6" d="M20.7,10.9L20.7,10.9c0.4-0.1,0.7-0.3,0.9-0.4C21.4,10.7,21.1,10.9,20.7,10.9L20.7,10.9z"/>
		</g>
		<g>
			<path class="st6" d="M20.7,10.9L20.7,10.9c0.4-0.1,0.7-0.3,0.9-0.4C21.4,10.7,21.1,10.8,20.7,10.9L20.7,10.9z"/>
		</g>
		<g>
			<path class="st6" d="M22.5,23.4c-0.2-0.1-0.5-0.3-0.6-0.5C22,23.1,22.3,23.3,22.5,23.4c0.2-0.1,0.4-0.3,0.5-0.5l0,0
				C22.9,23.1,22.7,23.3,22.5,23.4L22.5,23.4z"/>
		</g>
		<g>
			<path class="st6" d="M26.7,10.6c0.1-0.2,0.2-0.2,0.2-0.4c0-0.1,0-0.3-0.1-0.5c-0.1-0.1-0.2-0.2-0.4-0.1c0,0,0,0,0,0c0,0,0,0,0,0
				c0.2-0.1,0.4-0.1,0.5,0.1C27,9.8,27,10,27,10.2C26.9,10.4,26.9,10.5,26.7,10.6L26.7,10.6z"/>
		</g>
		<g>
			<path class="st6" d="M27.1,10.9c0.2-0.1,0.4-0.4,0.4-0.7c0-0.2,0-0.3-0.1-0.4c-0.1-0.2-0.4-0.2-0.6-0.1c0,0,0,0,0,0c0,0,0,0,0,0
				c0.2-0.2,0.5-0.1,0.6,0.1c0.1,0.1,0.1,0.3,0.1,0.5C27.6,10.6,27.3,10.8,27.1,10.9L27.1,10.9z"/>
		</g>
		<g>
			<path class="st6" d="M27.3,12.9c0,0-0.1,0-0.1,0c-0.2-0.1-0.3-0.3-0.3-0.6c0-0.4,0.3-0.7,0.6-1c0.1-0.1,0.1-0.2,0.2-0.2l0,0
				c0.1-0.2,0.2-0.3,0.2-0.6c0-0.2-0.2-0.5-0.4-0.5l0,0c0.3,0,0.5,0.3,0.5,0.5c0,0.3-0.1,0.4-0.2,0.6l0,0.1c0,0.1-0.1,0.1-0.2,0.2
				c-0.2,0.3-0.6,0.6-0.6,1c0,0.3,0.1,0.5,0.3,0.6c0.1,0.1,0.3,0,0.4-0.1c0.1-0.1,0.1-0.2,0.1-0.3c0-0.1-0.1-0.1-0.2-0.2
				c-0.1,0-0.1,0-0.1,0.1c0,0.1,0,0.1,0,0.2c0,0,0.1,0.1,0.1,0c-0.1,0.1-0.1,0-0.1,0c0-0.1,0-0.1,0-0.2c0-0.1,0.1-0.1,0.2-0.1
				c0.1,0,0.2,0.1,0.2,0.2c0,0.1,0,0.3-0.1,0.3C27.5,12.8,27.4,12.9,27.3,12.9L27.3,12.9z"/>
		</g>
		<g>
			<path class="st6" d="M27.4,12.6c-0.1,0-0.2-0.1-0.2-0.3c0-0.3,0.3-0.6,0.5-0.8c0.1-0.1,0.2-0.2,0.2-0.2c0.2-0.3,0.3-0.4,0.3-0.7
				c0-0.2-0.1-0.3-0.3-0.3l0,0c0.2,0,0.4,0.2,0.4,0.4c0,0.3-0.1,0.4-0.3,0.7c-0.1,0.1-0.1,0.1-0.2,0.2c-0.2,0.2-0.5,0.5-0.5,0.8
				C27.2,12.4,27.3,12.6,27.4,12.6C27.4,12.6,27.4,12.6,27.4,12.6L27.4,12.6z"/>
		</g>
		<g>
			<path class="st6" d="M28.1,15.4C28.1,15.4,28.1,15.4,28.1,15.4c-0.2,0-0.4-0.1-0.5-0.2c-0.1-0.1-0.1-0.2-0.1-0.4
				c0-0.1,0.1-0.2,0.2-0.3c0.1-0.1,0.2-0.1,0.3,0c0.1,0.1,0.2,0.2,0.1,0.3c0,0.1-0.1,0.2-0.2,0.2c-0.1,0-0.2,0-0.2-0.1
				c0-0.1,0-0.1,0-0.2c0,0.1,0,0.1,0,0.1c0,0,0.1,0.1,0.1,0.1c0.1,0,0.1-0.1,0.2-0.1c0-0.1,0-0.2-0.1-0.2c-0.1,0-0.2-0.1-0.3,0
				c-0.1,0-0.2,0.1-0.2,0.3c0,0.1,0,0.2,0.1,0.3C27.8,15.3,27.9,15.3,28.1,15.4c0.2,0,0.5-0.1,0.7-0.3c0.4-0.3,0.6-0.8,0.4-1.5
				c-0.1-0.4-0.3-0.7-0.5-0.8c-0.3-0.3-0.9-0.3-1.2,0c-0.2,0.2-0.2,0.4-0.1,0.6c0.1,0.1,0.2,0.2,0.3,0.2c0.2,0,0.3-0.1,0.3-0.2
				c0-0.1,0-0.2-0.1-0.3c-0.1,0-0.1-0.1-0.2,0c-0.1,0-0.1,0.1-0.1,0.1c0,0.1,0,0.1,0,0.1c0,0,0.1,0,0.1,0c0,0,0,0,0,0c0,0,0,0,0,0
				c-0.1,0-0.1,0-0.2,0c0,0-0.1-0.1,0-0.2c0,0,0.1-0.1,0.1-0.1c0.1,0,0.1,0,0.2,0c0.1,0.1,0.1,0.2,0.1,0.4c0,0.2-0.2,0.2-0.4,0.3
				c-0.2,0-0.3-0.1-0.4-0.3c-0.1-0.2-0.1-0.4,0.1-0.6c0.3-0.3,0.9-0.3,1.2,0c0.2,0.1,0.4,0.5,0.5,0.9c0.1,0.7,0,1.2-0.5,1.5
				C28.6,15.3,28.4,15.4,28.1,15.4L28.1,15.4z"/>
		</g>
		<g>
			<path class="st6" d="M28.2,15.1c-0.1,0-0.2,0-0.3-0.1c0,0-0.1-0.1-0.1-0.1c0,0,0.1,0.1,0.1,0.1C28,15,28.1,15.1,28.2,15.1
				C28.7,15,29,14.6,29,14c0-0.5-0.3-1.1-0.8-1.1c-0.2,0-0.4,0-0.4,0.3l0,0c0.1-0.3,0.3-0.3,0.5-0.3c0.5,0,0.8,0.6,0.8,1.1
				C29,14.6,28.7,15.1,28.2,15.1C28.2,15.1,28.2,15.1,28.2,15.1L28.2,15.1z"/>
		</g>
		<g>
			<path class="st6" d="M28,15c0.6-0.2,0.7-0.6,0.7-1c0-0.2-0.1-0.8-0.7-1l0,0l0,0l0,0c0.4,0.1,0.7,0.5,0.7,1
				C28.7,14.3,28.7,14.8,28,15L28,15z"/>
		</g>
		<g>
			<path class="st6" d="M28.6,18.5c-0.1,0-0.1,0-0.2,0c-0.1,0-0.2-0.1-0.3-0.1c-0.2-0.1-0.3-0.2-0.4-0.3c-0.2-0.2-0.4-0.5-0.4-0.8
				c-0.1-0.4,0-0.8,0-0.9c0.1-0.5,0.5-1,0.9-1c0.1,0,0.2,0,0.2,0c0,0,0.1,0,0.1,0.1c0,0,0.1,0.1,0.1,0.1c0,0.1,0,0.2,0,0.3
				c0,0.1-0.1,0.1-0.2,0.1c-0.1,0-0.2,0-0.3-0.1c0,0-0.1-0.1-0.1-0.3c0-0.1,0.1-0.1,0.2-0.1c0.1,0,0.2,0,0.2,0.1c0,0,0,0,0,0
				c0,0,0,0,0,0c0-0.1-0.1-0.1-0.2-0.1c-0.1,0-0.1,0.1-0.1,0.1c0,0.1,0,0.2,0.1,0.2c0.1,0.1,0.2,0.1,0.3,0c0.1,0,0.1-0.1,0.2-0.1
				c0-0.1,0.1-0.2,0-0.3c0,0,0-0.1-0.1-0.1c0,0-0.1-0.1-0.1-0.1c-0.1,0-0.1,0-0.2,0c-0.4,0-0.7,0.5-0.9,0.9c0,0.1-0.1,0.5,0,0.9
				c0.1,0.3,0.2,0.6,0.4,0.8c0.1,0.1,0.2,0.2,0.4,0.3c0.1,0,0.2,0.1,0.3,0.1c0.1,0,0.2,0,0.3,0c0.1,0,0.2-0.1,0.2-0.2
				c0-0.1,0-0.2,0-0.3c-0.1-0.1-0.2-0.2-0.3-0.2c-0.1,0-0.1,0-0.2,0.1c0,0,0,0.1,0,0.1c0,0.1,0,0.1,0.1,0.2c0.1,0,0.1,0,0.2,0
				c0,0,0.1-0.1,0.1-0.1c0,0.1,0,0.1,0,0.2c-0.1,0-0.1,0-0.2,0c-0.1,0-0.1-0.1-0.1-0.2c0-0.1,0-0.1,0-0.1c0.1-0.1,0.1-0.1,0.2-0.1
				c0.1,0,0.3,0.1,0.3,0.2c0.1,0.1,0.1,0.2,0,0.3c0,0.1-0.1,0.2-0.3,0.2C28.7,18.5,28.6,18.5,28.6,18.5L28.6,18.5z"/>
		</g>
		<g>
			<path class="st6" d="M28.5,18.2c0,0-0.1,0-0.1,0c0,0-0.1,0-0.1-0.1c-0.2-0.1-0.4-0.3-0.6-0.7c-0.1-0.1-0.1-0.2-0.1-0.3
				c0-0.1,0-0.2,0-0.2c0-0.1,0-0.3,0-0.5c0.1-0.3,0.1-0.4,0.3-0.7c0.1-0.1,0.2-0.2,0.3-0.2c-0.1,0-0.2,0.1-0.3,0.2
				c-0.2,0.2-0.2,0.4-0.3,0.6c0,0.2,0,0.3,0,0.4c0,0.1,0,0.2,0,0.2c0,0.1,0.1,0.2,0.1,0.3c0.2,0.4,0.4,0.5,0.6,0.6
				c0.1,0,0.1,0.1,0.1,0.1C28.5,18.2,28.6,18.2,28.5,18.2L28.5,18.2C28.6,18.2,28.6,18.2,28.5,18.2L28.5,18.2z"/>
		</g>
		<g>
			<path class="st6" d="M28.4,18c-0.1,0-0.1-0.1-0.1-0.2c0-0.2,0.1-0.3,0.3-0.3c0.2,0,0.3,0.1,0.3,0.3l0,0l0,0
				c0-0.1-0.1-0.3-0.3-0.3c-0.1,0-0.3,0.1-0.3,0.3C28.3,17.8,28.3,17.9,28.4,18L28.4,18z"/>
		</g>
		<g>
			<path class="st6" d="M28.3,17.8c-0.1,0-0.1-0.1-0.1-0.2c0-0.2,0.1-0.3,0.3-0.3c0.1,0,0.3,0.1,0.3,0.2l0,0c0-0.1-0.1-0.2-0.2-0.2
				c-0.1,0-0.2,0.1-0.2,0.3C28.2,17.7,28.3,17.7,28.3,17.8L28.3,17.8z"/>
		</g>
		<g>
			<path class="st6" d="M28.2,17.5c-0.2-0.2-0.5-0.5-0.5-0.9c0-0.3,0.1-0.6,0.3-0.7c-0.1,0.2-0.2,0.5-0.2,0.7
				C27.8,17.1,28,17.4,28.2,17.5L28.2,17.5L28.2,17.5z"/>
		</g>
		<g>
			<path class="st6" d="M28.3,17.8c-0.3-0.1-0.4-0.2-0.5-0.4c0,0,0,0,0,0c0,0,0,0,0,0C28,17.5,28.1,17.7,28.3,17.8L28.3,17.8z"/>
		</g>
		<g>
			<path class="st6" d="M24,22.1c0.4-0.5,1.1-0.6,1.8-0.6c0.6,0,1.3-0.1,1.8-0.3c0.8-0.3,1-0.8,1.1-0.9c0.1-0.2,0.2-0.5,0.2-0.7
				c0-0.1,0-0.3-0.1-0.4c-0.1-0.4-0.3-0.6-0.7-0.8c-0.2-0.1-0.4-0.2-0.6-0.1c-0.2,0-0.4,0.2-0.5,0.3l0,0c0.1-0.1,0.3-0.2,0.5-0.3
				c0.2,0,0.4,0,0.6,0.1c0.4,0.2,0.6,0.4,0.7,0.8c0,0.1,0.1,0.3,0.1,0.4c0,0.2-0.1,0.5-0.1,0.7c-0.1,0.2-0.3,0.7-1.1,1
				c-0.5,0.2-1.3,0.3-1.9,0.3C25.1,21.6,24.4,21.6,24,22.1L24,22.1z"/>
		</g>
		<g>
			<path class="st6" d="M27.3,19.6C27.3,19.6,27.3,19.6,27.3,19.6c-0.1,0-0.3-0.1-0.4-0.2c-0.1-0.1-0.2-0.4-0.1-0.7
				c0.1-0.1,0.2-0.3,0.3-0.3c0.4-0.2,0.9,0,1.1,0.2c0,0,0,0,0,0c0,0,0,0,0,0c-0.2-0.1-0.6-0.4-1.1-0.2c-0.2,0.1-0.2,0.2-0.3,0.3
				c-0.1,0.3,0,0.5,0.1,0.7C27.1,19.5,27.2,19.6,27.3,19.6C27.3,19.6,27.3,19.6,27.3,19.6c0.3,0,0.3-0.3,0.3-0.3
				c0-0.2-0.1-0.3-0.1-0.3c0,0-0.1,0-0.1,0c0,0,0,0-0.1,0.1c0,0,0,0.1,0,0.1c-0.1,0-0.1-0.1-0.1-0.1c0,0,0-0.1,0.1-0.1
				c0.1,0,0.1,0,0.2,0c0,0,0.2,0.1,0.2,0.3C27.6,19.5,27.6,19.6,27.3,19.6L27.3,19.6z"/>
		</g>
		<g>
			<path class="st6" d="M22.9,22.6c-0.3,0-0.4-0.2-0.4-0.3c0,0,0-0.1,0-0.1c0-0.2,0.2-0.3,0.3-0.5l0.1-0.1c0.1-0.1,0.1-0.1,0.2-0.1
				c0.2-0.1,0.4-0.2,0.7-0.3l0.2,0c0.1,0,0.2,0,0.3-0.1l0.1,0c0.1,0,0.3,0,0.4,0l0.1,0c0.2,0,0.4,0,0.5,0l0.3,0c0.1,0,0.3,0,0.4,0
				l0.1,0c0.1,0,0.2,0,0.3,0c0.5-0.1,0.8-0.1,1-0.3c0.4-0.2,0.6-0.7,0.5-1.2c0,0,0-0.1-0.1-0.2c0,0-0.1-0.1-0.1-0.1
				c-0.1-0.1-0.1-0.1-0.2-0.1c-0.1-0.1-0.3-0.1-0.4,0.1c-0.1,0.1-0.1,0.1-0.1,0.2l0,0c0-0.1,0-0.2,0.1-0.3c0.1-0.1,0.3-0.2,0.4-0.1
				c0.1,0,0.1,0.1,0.2,0.2c0,0,0.1,0.1,0.1,0.1c0,0.1,0.1,0.1,0.1,0.2c0.2,0.5-0.1,1.1-0.5,1.3c-0.3,0.2-0.6,0.2-1,0.3
				c-0.1,0-0.2,0-0.3,0l-0.1,0c-0.1,0-0.3,0-0.4,0h-0.3c-0.2,0-0.3,0-0.5,0l-0.1,0c-0.1,0-0.3,0-0.4,0l-0.1,0c-0.1,0-0.2,0-0.3,0.1
				l-0.2,0.1c-0.3,0.1-0.5,0.2-0.7,0.3c-0.1,0.1-0.1,0.1-0.2,0.1l-0.1,0.1c-0.1,0.1-0.3,0.3-0.3,0.5c0,0,0,0.1,0,0.1
				C22.5,22.4,22.6,22.6,22.9,22.6L22.9,22.6z"/>
		</g>
		<g>
			<path class="st6" d="M23.8,23c-0.1,0-0.3,0-0.4-0.1c-0.1-0.1-0.2-0.3-0.2-0.4c0-0.7,1.1-0.9,1.2-1c0.4-0.1,0.6-0.1,1.3-0.2
				c0.1,0,0.2,0,0.3,0c0.1,0,0.3,0,0.5,0c0.3,0,0.4,0,0.6-0.1c0.4-0.1,0.6-0.2,0.9-0.5c0.2-0.2,0.3-0.3,0.4-0.6
				c0.1-0.2,0.1-0.6-0.1-1c-0.2-0.3-0.4-0.4-0.7-0.5c-0.3,0-0.5,0.1-0.6,0.3c-0.1,0.1,0,0.3,0,0.4c0,0.1,0.2,0.2,0.3,0.2
				c0,0,0,0,0,0c0.3,0,0.3-0.2,0.3-0.2c0-0.2-0.1-0.3-0.1-0.3c0,0-0.1,0-0.1,0c0,0,0,0-0.1,0.1c0,0,0,0.1,0,0.1
				c-0.1,0-0.1-0.1-0.1-0.1c0,0,0-0.1,0.1-0.1c0.1,0,0.1,0,0.2,0c0,0,0.2,0.1,0.2,0.3c0,0.1-0.1,0.2-0.4,0.2c0,0,0,0,0,0
				c-0.2,0-0.3-0.1-0.4-0.2c-0.1-0.1-0.1-0.3,0-0.5c0.1-0.3,0.4-0.4,0.7-0.3c0.3,0,0.6,0.2,0.8,0.5c0.2,0.3,0.2,0.8,0.1,1
				c-0.1,0.3-0.2,0.4-0.4,0.6c-0.3,0.2-0.6,0.4-0.9,0.5c-0.3,0.1-0.4,0.1-0.6,0.1c-0.2,0-0.3,0-0.5,0c-0.1,0-0.2,0-0.3,0
				c-0.7,0-0.9,0.1-1.3,0.2c-0.4,0.1-1.1,0.4-1.1,0.9c0,0.1,0.1,0.3,0.2,0.4C23.6,22.9,23.7,22.9,23.8,23c0.2,0,0.3-0.1,0.4-0.2
				c0.1-0.1,0.1-0.2,0.1-0.3c0-0.1,0-0.1,0-0.2c-0.1-0.1-0.2-0.2-0.3-0.2c-0.1,0-0.2,0-0.2,0.1c-0.1,0.1-0.1,0.1-0.1,0.2
				c0,0.1,0,0.1,0.1,0.2c0,0,0.1,0,0.1,0c0.1,0,0.1,0,0.1-0.1c0,0,0-0.1,0-0.2c0,0,0,0,0,0c0,0,0,0,0,0c0,0.1,0,0.2,0,0.2
				c0,0.1-0.1,0.1-0.1,0.1c-0.1,0-0.1,0-0.2,0c-0.1,0-0.1-0.1-0.1-0.2c0-0.1,0-0.2,0.1-0.3c0.1-0.1,0.2-0.1,0.2-0.1
				c0.2,0,0.3,0.1,0.4,0.3c0,0.1,0,0.1,0,0.2c0,0.1,0,0.2-0.1,0.3C24.1,22.9,24,22.9,23.8,23C23.8,23,23.8,23,23.8,23L23.8,23z"/>
		</g>
		<g>
			<path class="st6" d="M23.5,23.1c-0.2,0-0.3,0-0.4-0.2c-0.2-0.1-0.2-0.3-0.2-0.6c0-0.1,0-0.3,0.1-0.4c0.2-0.4,0.5-0.5,0.8-0.6
				c0,0,0,0,0,0c0,0,0,0,0,0c-0.3,0.2-0.6,0.3-0.8,0.6c-0.1,0.1-0.1,0.2-0.1,0.3c0,0.2,0.1,0.4,0.2,0.5
				C23.2,23.1,23.4,23.1,23.5,23.1c0.2-0.1,0.3-0.2,0.3-0.2C23.8,23,23.7,23.1,23.5,23.1C23.5,23.1,23.5,23.1,23.5,23.1L23.5,23.1z"
				/>
		</g>
		<g>
			<path class="st6" d="M27.7,14c-0.1,0-0.1,0-0.2,0c-0.5-0.1-0.7-0.5-0.7-0.7c0-0.2,0.1-0.3,0.2-0.4l0,0c-0.1,0.1-0.2,0.2-0.2,0.4
				c0,0.2,0.2,0.6,0.6,0.7c0.2,0.1,0.3,0,0.4,0C27.9,13.9,27.8,14,27.7,14L27.7,14z"/>
		</g>
		<g>
			<path class="st6" d="M27.2,15.9c-0.2,0-0.3-0.2-0.3-0.5c0-0.3,0.1-0.5,0.3-0.6l0,0c-0.1,0-0.3,0.3-0.3,0.5
				C26.9,15.7,27.1,15.8,27.2,15.9L27.2,15.9z"/>
		</g>
		<g>
			<path class="st6" d="M27.3,17.7c-0.3-0.3-0.4-0.6-0.4-1c0-0.5,0.2-0.7,0.5-1c0,0,0,0,0,0c0,0,0,0,0,0c-0.3,0.4-0.4,0.6-0.5,1
				C26.9,17.1,27,17.4,27.3,17.7L27.3,17.7z"/>
		</g>
		<g>
			<path class="st6" d="M26.2,10.6c0.1-0.1,0.2-0.3,0.3-0.4c0.1-0.3,0-0.5-0.2-0.6c-0.1,0-0.1-0.1-0.2-0.1c-0.1,0-0.2,0.1-0.2,0.2
				l-0.1,0l0,0c0.1-0.1,0.2-0.2,0.3-0.2c0.1,0,0.2,0,0.3,0.1c0.2,0.1,0.3,0.4,0.2,0.7C26.5,10.3,26.4,10.5,26.2,10.6L26.2,10.6z"/>
		</g>
		<g>
			<path class="st6" d="M20.2,11c-0.4,0-0.7-0.1-1-0.3c-0.3-0.2-0.6-0.4-0.4-0.8c0-0.1,0.1-0.2,0.3-0.2c0.1,0,0.3,0,0.4,0.1
				c0.1,0.1,0.1,0.1,0.1,0.2c0,0.1,0,0.2,0,0.3c-0.1,0.1-0.2,0.1-0.3,0.1c-0.1,0-0.2-0.1-0.2-0.2c0-0.1,0-0.1,0-0.2
				c0,0,0.1-0.1,0.1,0c0.1,0,0.1,0.1,0.1,0.1c0,0,0,0,0,0c0,0,0,0,0,0c0,0,0-0.1-0.1-0.1c0,0-0.1,0-0.1,0c0,0,0,0.1,0,0.2
				c0,0.1,0.1,0.1,0.2,0.2c0,0,0.2,0,0.3-0.1c0.1-0.1,0.1-0.2,0-0.3c0,0,0-0.1-0.1-0.1c-0.1-0.1-0.2-0.1-0.4-0.1
				c-0.1,0-0.2,0.1-0.2,0.2c-0.1,0.3,0.1,0.5,0.4,0.7C19.5,10.8,19.8,10.9,20.2,11c0.6-0.1,1.1-0.3,1.4-0.5l0.1,0c0.1,0,0.2,0,0.2,0
				c0.1,0.1,0,0.2,0,0.2c0-0.1,0-0.2,0-0.2c0,0-0.1,0-0.2,0l-0.1,0C21.3,10.7,20.8,10.9,20.2,11C20.2,11,20.2,11,20.2,11L20.2,11z"
				/>
		</g>
		<g>
			<path class="st6" d="M18.3,10.6c-0.2-0.1-0.2-0.2-0.3-0.4c0-0.2,0-0.4,0.1-0.5c0.1-0.1,0.3-0.2,0.5-0.1c0,0,0,0,0,0c0,0,0,0,0,0
				c-0.2-0.1-0.3-0.1-0.4,0.1C18,9.8,18,10,18,10.2C18.1,10.4,18.1,10.4,18.3,10.6L18.3,10.6z"/>
		</g>
		<g>
			<path class="st6" d="M17.8,10.9c-0.2-0.1-0.4-0.3-0.4-0.6c0-0.2,0-0.3,0.1-0.5c0.1-0.2,0.4-0.3,0.6-0.1l0,0
				c-0.2-0.1-0.4-0.1-0.6,0.1c-0.1,0.1-0.1,0.2-0.1,0.4C17.4,10.6,17.6,10.8,17.8,10.9L17.8,10.9z"/>
		</g>
		<g>
			<path class="st6" d="M17.6,12.9c-0.1,0-0.2-0.1-0.3-0.1c-0.1-0.1-0.1-0.2-0.1-0.3c0-0.1,0.1-0.2,0.2-0.2c0.1,0,0.1,0,0.2,0.1
				c0,0.1,0,0.1,0,0.2c0,0-0.1,0.1-0.2,0.1c0.1,0,0.1-0.1,0.1-0.1c0,0,0-0.1,0-0.2c0,0-0.1-0.1-0.1-0.1c-0.1,0-0.1,0.1-0.2,0.2
				c0,0.1,0,0.2,0.1,0.3c0.1,0.1,0.2,0.1,0.4,0.1c0.2-0.1,0.3-0.3,0.3-0.6c0-0.4-0.3-0.7-0.6-1c-0.1-0.1-0.1-0.2-0.2-0.2
				c-0.2-0.2-0.3-0.4-0.3-0.7c0-0.3,0.2-0.5,0.4-0.5l0,0c-0.2,0-0.4,0.2-0.4,0.5c0,0.3,0.1,0.4,0.3,0.7c0,0.1,0.1,0.1,0.2,0.2
				c0.2,0.3,0.6,0.6,0.6,1c0,0.3-0.1,0.5-0.3,0.6C17.7,12.9,17.7,12.9,17.6,12.9L17.6,12.9z"/>
		</g>
		<g>
			<path class="st6" d="M17.5,12.6C17.5,12.6,17.5,12.6,17.5,12.6C17.5,12.6,17.6,12.6,17.5,12.6c0.1-0.1,0.2-0.2,0.2-0.3
				c0-0.3-0.3-0.6-0.5-0.8c-0.1-0.1-0.1-0.1-0.2-0.2c-0.2-0.3-0.3-0.4-0.3-0.7c0-0.2,0.2-0.4,0.4-0.4l0,0c-0.2,0-0.3,0.1-0.3,0.3
				c0,0.3,0.1,0.4,0.3,0.6c0.1,0.1,0.1,0.2,0.2,0.2c0.2,0.2,0.5,0.5,0.5,0.9C17.7,12.4,17.7,12.5,17.5,12.6
				C17.6,12.6,17.6,12.6,17.5,12.6L17.5,12.6z"/>
		</g>
		<g>
			<path class="st6" d="M16.8,15.4c-0.3,0-0.5-0.1-0.7-0.3c0,0-0.1-0.1-0.1-0.1L16,15c0,0-0.1-0.1-0.1-0.1c-0.1-0.1-0.2-0.3-0.2-0.5
				c0-0.1,0-0.2,0-0.3c0-0.1,0-0.2,0-0.4c0.1-0.5,0.5-0.8,0.5-0.8c0.4-0.3,0.9-0.4,1.2,0c0.2,0.2,0.2,0.4,0.1,0.6
				c-0.1,0.2-0.2,0.3-0.4,0.2c-0.2,0-0.3-0.1-0.4-0.3c0-0.1,0-0.3,0.1-0.4C17,13,17,13,17.1,13c0.1,0,0.1,0.1,0.1,0.1
				c0,0.1,0,0.2-0.1,0.2c0,0-0.1,0-0.2,0c0,0,0,0,0,0c0,0,0,0,0,0c0,0,0.1,0,0.1,0c0,0,0.1-0.1,0-0.2c0,0,0-0.1-0.1-0.1
				c-0.1,0-0.1,0-0.2,0c-0.1,0.1-0.1,0.2-0.1,0.3c0,0.1,0.2,0.2,0.3,0.2c0.1,0,0.3-0.1,0.3-0.2c0.1-0.2,0-0.4-0.1-0.6
				c-0.3-0.3-0.8-0.2-1.1,0c-0.1,0.1-0.4,0.4-0.5,0.8c0,0.1,0,0.2,0,0.4c0,0.1,0,0.2,0,0.3c0,0.2,0.1,0.4,0.2,0.5
				c0,0,0.1,0.1,0.1,0.1l0.1,0.1c0,0,0,0,0.1,0.1C16.4,15.3,16.6,15.4,16.8,15.4c0.2-0.1,0.3-0.1,0.4-0.2c0.1-0.1,0.1-0.2,0.1-0.3
				c0-0.1-0.1-0.2-0.2-0.3c-0.1,0-0.2,0-0.3,0c-0.1,0-0.1,0.1-0.1,0.2c0,0,0,0.1,0.1,0.1c0.1,0,0.1,0,0.1-0.1c0,0,0-0.1,0-0.1
				c0.1,0,0.1,0.1,0,0.1c0,0.1-0.1,0.1-0.2,0.1c-0.1,0-0.2-0.1-0.2-0.2c0-0.1,0-0.2,0.1-0.3c0.1-0.1,0.2-0.1,0.3,0
				c0.1,0.1,0.2,0.2,0.2,0.3c0,0.1,0,0.3-0.1,0.4C17.2,15.3,17,15.4,16.8,15.4C16.9,15.4,16.8,15.4,16.8,15.4L16.8,15.4z"/>
		</g>
		<g>
			<path class="st6" d="M16.4,18.5c0,0-0.1,0-0.1,0c-0.1,0-0.2-0.1-0.2-0.2c0-0.1,0-0.2,0-0.3c0-0.1,0.2-0.2,0.3-0.2
				c0.1,0,0.2,0,0.3,0.1c0,0,0,0.1,0,0.1c0,0.1,0,0.2-0.1,0.2c-0.1,0-0.2,0-0.2,0c-0.1,0-0.1-0.1-0.1-0.2c0,0.1,0.1,0.1,0.1,0.1
				c0,0,0.1,0,0.2,0c0,0,0.1-0.1,0.1-0.2c0,0,0-0.1,0-0.1c0-0.1-0.1-0.1-0.2-0.1c-0.1,0-0.2,0.1-0.3,0.2c0,0.1,0,0.2,0,0.3
				c0,0.1,0.1,0.2,0.2,0.2c0.1,0,0.2,0,0.3,0c0.1,0,0.2-0.1,0.3-0.1c0.2-0.1,0.3-0.2,0.4-0.3c0.2-0.2,0.3-0.5,0.4-0.8
				c0.1-0.4,0-0.8,0-0.9c-0.1-0.5-0.4-0.9-0.8-0.9c-0.1,0-0.2,0-0.2,0c0,0-0.1,0-0.1,0.1c0,0,0,0.1-0.1,0.1c0,0.1,0,0.2,0,0.3
				c0,0.1,0.1,0.1,0.2,0.1c0.1,0,0.2,0,0.3-0.1c0.1-0.1,0.1-0.1,0.1-0.2c0,0-0.1-0.1-0.1-0.1c-0.1,0-0.1,0-0.2,0.1c0,0,0,0,0,0
				c0,0,0,0,0,0c0-0.1,0.1-0.2,0.2-0.1c0.1,0,0.2,0.1,0.2,0.1c0,0.1,0,0.2-0.1,0.3c-0.1,0.1-0.2,0.1-0.3,0.1c-0.1,0-0.1-0.1-0.2-0.1
				c0-0.1-0.1-0.2,0-0.3c0,0,0-0.1,0.1-0.1c0,0,0.1-0.1,0.1-0.1c0.1,0,0.1,0,0.3,0c0.4,0,0.8,0.5,0.9,1c0,0.1,0.1,0.5,0,0.9
				c-0.1,0.3-0.2,0.6-0.4,0.8c-0.1,0.1-0.2,0.2-0.4,0.3c-0.1,0-0.2,0.1-0.3,0.1C16.5,18.5,16.4,18.5,16.4,18.5L16.4,18.5z"/>
		</g>
		<g>
			<path class="st6" d="M16.4,18.2C16.4,18.2,16.3,18.2,16.4,18.2L16.4,18.2c0,0,0,0,0.1-0.1c0,0,0.1,0,0.1,0l0,0
				c0.2-0.1,0.4-0.3,0.6-0.6c0.1-0.1,0.1-0.2,0.1-0.3c0-0.1,0-0.2,0-0.2c0-0.1,0-0.3,0-0.4c-0.1-0.3-0.1-0.4-0.3-0.6
				c-0.1-0.1-0.2-0.2-0.3-0.2c0.2,0,0.3,0,0.3,0.1c0.2,0.2,0.2,0.4,0.3,0.7c0,0.2,0,0.3,0,0.5c0,0.1,0,0.2,0,0.2
				c0,0.1-0.1,0.2-0.1,0.3c-0.2,0.4-0.4,0.6-0.6,0.7c-0.1,0-0.1,0.1-0.1,0.1C16.5,18.2,16.4,18.2,16.4,18.2L16.4,18.2z"/>
		</g>
		<g>
			<path class="st6" d="M16.6,18c0-0.1,0.1-0.2,0.1-0.2c0-0.1-0.1-0.3-0.3-0.3c-0.1,0-0.3,0.1-0.3,0.3l0,0.1l0-0.1
				c0-0.2,0.1-0.3,0.3-0.3c0.2,0,0.3,0.1,0.3,0.3C16.7,17.9,16.6,17.9,16.6,18L16.6,18z"/>
		</g>
		<g>
			<path class="st6" d="M16.7,17.8c0-0.1,0-0.1,0-0.2c0-0.1-0.1-0.3-0.2-0.3c-0.1,0-0.2,0.1-0.2,0.2l0,0c0-0.1,0.1-0.2,0.3-0.2
				c0.2,0,0.3,0.1,0.3,0.3C16.7,17.7,16.7,17.7,16.7,17.8L16.7,17.8z"/>
		</g>
		<g>
			<path class="st6" d="M16.7,17.5L16.7,17.5c0.2-0.2,0.4-0.5,0.4-0.9c0-0.3-0.1-0.6-0.3-0.7c0.2,0.1,0.3,0.4,0.3,0.7
				C17.2,17.1,16.9,17.4,16.7,17.5L16.7,17.5z"/>
		</g>
		<g>
			<path class="st6" d="M16.7,17.8c0.2-0.2,0.3-0.3,0.4-0.5c0,0,0,0,0,0c0,0,0,0,0,0C17,17.6,16.9,17.7,16.7,17.8L16.7,17.8z"/>
		</g>
		<g>
			<path class="st6" d="M21,22c-0.4-0.5-1.1-0.5-1.9-0.5c-0.6,0-1.4-0.1-1.8-0.3c-0.8-0.3-1-0.8-1.1-1c-0.1-0.2-0.2-0.5-0.2-0.7
				c0-0.1,0-0.3,0.1-0.4c0.1-0.4,0.3-0.6,0.7-0.8c0.2-0.1,0.4-0.2,0.6-0.1c0.2,0,0.4,0.1,0.4,0.3l0,0c-0.1-0.1-0.2-0.2-0.4-0.2
				c-0.2,0-0.4,0-0.6,0.1c-0.4,0.2-0.6,0.4-0.7,0.8c0,0.1-0.1,0.3-0.1,0.4c0,0.3,0.1,0.5,0.1,0.7c0.1,0.2,0.3,0.7,1.1,1
				c0.5,0.2,1.2,0.3,1.8,0.3C19.9,21.5,20.6,21.5,21,22L21,22z"/>
		</g>
		<g>
			<path class="st6" d="M17.6,19.6c-0.3,0-0.3-0.2-0.4-0.2c0-0.2,0.1-0.3,0.2-0.3c0,0,0.1,0,0.2,0c0,0,0.1,0.1,0.1,0.1
				c0,0,0,0.1,0,0.2c0-0.1,0-0.1,0-0.2c0,0,0,0-0.1-0.1c-0.1,0-0.1,0-0.1,0c0,0-0.2,0.1-0.1,0.3C17.3,19.4,17.3,19.6,17.6,19.6
				c0.2,0,0.3-0.2,0.3-0.2c0.1-0.1,0.2-0.4,0.1-0.7c0-0.1-0.1-0.2-0.3-0.3c-0.4-0.2-0.9,0-1.1,0.2c0,0,0,0,0,0c0,0,0,0,0,0
				c0.2-0.1,0.7-0.4,1.1-0.2c0.2,0.1,0.3,0.2,0.3,0.3c0.1,0.3,0,0.6-0.1,0.7C17.9,19.5,17.8,19.6,17.6,19.6
				C17.6,19.6,17.6,19.6,17.6,19.6L17.6,19.6z"/>
		</g>
		<g>
			<path class="st6" d="M22.1,22.7c0.2-0.1,0.4-0.3,0.4-0.4c0,0,0-0.1,0-0.1c0-0.2-0.2-0.3-0.3-0.5c0,0,0,0-0.1,0l0,0
				c0,0-0.1-0.1-0.1-0.1l0,0c-0.2-0.1-0.4-0.2-0.7-0.3l-0.1-0.1l0,0c0,0-0.1,0-0.1,0c-0.1,0-0.2,0-0.3-0.1l-0.1,0
				c-0.1,0-0.3,0-0.4,0L20,21c-0.2,0-0.4,0-0.5,0h-0.3c-0.1,0-0.3,0-0.4,0h-0.1c-0.1,0-0.2,0-0.4,0c-0.4,0-0.7-0.1-1-0.3
				c-0.4-0.2-0.7-0.8-0.5-1.3c0,0,0-0.1,0.1-0.2c0,0,0.1-0.1,0.1-0.1C17,19,17.1,19,17.2,19c0.2-0.1,0.4,0,0.4,0.1
				c0.1,0.1,0.1,0.2,0.1,0.3l0,0c0-0.1,0-0.2-0.1-0.2c-0.1-0.1-0.2-0.1-0.4-0.1c0,0-0.1,0.1-0.2,0.1c0,0-0.1,0.1-0.1,0.1
				c0,0.1-0.1,0.1-0.1,0.2c-0.2,0.5,0.1,1,0.5,1.2c0.3,0.2,0.6,0.3,1,0.3c0.2,0,0.3,0,0.4,0h0.1c0.1,0,0.2,0,0.4,0l0.3,0
				c0.2,0,0.3,0,0.5,0l0.1,0c0.1,0,0.3,0,0.4,0l0.1,0c0.1,0,0.2,0,0.3,0.1c0.1,0,0.1,0,0.1,0l0.1,0c0.3,0.1,0.5,0.2,0.7,0.3l0,0
				c0,0,0.1,0.1,0.1,0.1l0,0c0,0,0,0,0.1,0.1c0.1,0.1,0.3,0.3,0.3,0.5c0,0,0,0.1,0,0.1C22.5,22.5,22.4,22.6,22.1,22.7L22.1,22.7z"/>
		</g>
		<g>
			<path class="st6" d="M21.1,23C21.1,23,21.1,23,21.1,23c-0.2,0-0.3-0.1-0.4-0.2c-0.1-0.1-0.1-0.2-0.1-0.3c0-0.1,0-0.1,0-0.2
				c0.1-0.2,0.2-0.3,0.4-0.3c0.1,0,0.2,0,0.3,0.1c0.1,0.1,0.1,0.2,0.1,0.3c0,0.1,0,0.1-0.1,0.2c0,0-0.1,0.1-0.2,0
				c-0.1,0-0.1,0-0.1-0.1c0,0,0-0.1,0-0.2l0,0c0,0.1,0,0.1,0,0.2c0,0,0.1,0.1,0.1,0.1c0.1,0,0.1,0,0.1,0c0,0,0.1-0.1,0.1-0.2
				c0-0.1,0-0.2-0.1-0.2c-0.1-0.1-0.1-0.1-0.2-0.1c-0.1,0-0.3,0.1-0.3,0.2c0,0,0,0.1,0,0.2c0,0.1,0,0.2,0.1,0.3
				C20.8,22.8,21,22.9,21.1,23c0.1,0,0.2-0.1,0.3-0.2c0.1-0.1,0.2-0.3,0.2-0.4c0-0.5-0.7-0.8-1.1-0.9c-0.4-0.1-0.6-0.1-1.3-0.2
				c-0.1,0-0.2,0-0.3,0c-0.1,0-0.3,0-0.5,0c-0.3,0-0.4,0-0.6-0.1c-0.4-0.1-0.7-0.2-0.9-0.5c-0.2-0.2-0.3-0.3-0.4-0.6
				c-0.1-0.2-0.1-0.7,0.1-1c0.2-0.3,0.4-0.4,0.8-0.5c0.3,0,0.5,0.1,0.7,0.3c0.1,0.1,0,0.4,0,0.5c0,0.1-0.2,0.2-0.4,0.2
				c-0.3,0-0.4-0.2-0.4-0.2c0-0.2,0.1-0.3,0.2-0.3c0,0,0.1,0,0.2,0c0,0,0.1,0.1,0.1,0.1c0,0,0,0.1,0,0.2c0-0.1,0-0.1,0-0.2
				c0,0,0,0-0.1-0.1c-0.1,0-0.1,0-0.1,0c0,0-0.2,0.1-0.1,0.3c0,0,0,0.2,0.3,0.2c0.2,0,0.3-0.1,0.3-0.2c0-0.1,0.1-0.3,0-0.4
				c-0.1-0.3-0.4-0.4-0.6-0.3c-0.3,0-0.6,0.2-0.7,0.5c-0.2,0.3-0.2,0.8-0.1,1c0.1,0.3,0.2,0.4,0.4,0.6c0.2,0.2,0.5,0.4,0.9,0.5
				c0.3,0.1,0.4,0.1,0.6,0.1c0.2,0,0.3,0,0.5,0c0.1,0,0.2,0,0.3,0c0.7,0,0.9,0.1,1.3,0.2c0,0,1.2,0.3,1.2,1c0,0.2-0.1,0.3-0.2,0.4
				C21.4,22.9,21.3,23,21.1,23L21.1,23z"/>
		</g>
		<g>
			<path class="st6" d="M21.5,23.1C21.4,23.1,21.4,23.1,21.5,23.1c-0.2,0-0.4-0.1-0.4-0.2C21.1,23,21.3,23.1,21.5,23.1
				c0.1,0,0.2-0.1,0.4-0.2c0.1-0.1,0.2-0.3,0.2-0.5c0-0.1,0-0.2-0.1-0.3c-0.2-0.3-0.5-0.5-0.8-0.6l0,0c0.4,0.2,0.6,0.3,0.8,0.6
				c0.1,0.1,0.1,0.3,0.1,0.4c0,0.2-0.1,0.4-0.3,0.6C21.8,23.1,21.6,23.1,21.5,23.1L21.5,23.1z"/>
		</g>
		<g>
			<path class="st6" d="M17.2,13.9c-0.1,0-0.2,0-0.3-0.1c0.1,0,0.3,0.1,0.5,0c0.5-0.1,0.6-0.5,0.6-0.7c0-0.2-0.1-0.3-0.2-0.4l0,0
				c0.1,0.1,0.2,0.3,0.2,0.4c0,0.2-0.2,0.6-0.7,0.7C17.3,13.9,17.3,13.9,17.2,13.9L17.2,13.9z"/>
		</g>
		<g>
			<path class="st6" d="M17.3,14.3c-0.2,0-0.3,0-0.4-0.1c-0.2-0.1-0.3-0.3-0.3-0.4c0.1,0.1,0.1,0.3,0.3,0.4
				C17,14.3,17.1,14.3,17.3,14.3c0.3,0,0.5-0.2,0.6-0.3c0.1-0.1,0.1-0.2,0.1-0.3c0-0.1,0-0.2-0.1-0.2l0,0c0.1,0.1,0.1,0.1,0.1,0.2
				c0,0.1,0,0.2-0.1,0.3C17.8,14.2,17.6,14.3,17.3,14.3L17.3,14.3L17.3,14.3z"/>
		</g>
		<g>
			<path class="st6" d="M17.6,15c0-0.1,0.1-0.1,0.1-0.1c0.2-0.2,0.3-0.3,0.3-0.5c0-0.1,0-0.2-0.1-0.3l0,0c0.1,0.1,0.1,0.2,0.1,0.3
				c0,0.2-0.1,0.4-0.3,0.5C17.7,14.9,17.7,14.9,17.6,15L17.6,15z"/>
		</g>
		<g>
			<path class="st6" d="M17.8,16c0.1-0.1,0.3-0.3,0.3-0.5c0-0.2-0.1-0.4-0.3-0.5l0,0c0.2,0.2,0.3,0.3,0.3,0.6
				C18.1,15.7,17.9,15.9,17.8,16L17.8,16z"/>
		</g>
		<g>
			<path class="st6" d="M17.7,17.8c0.2-0.4,0.3-0.6,0.3-1c0-0.4-0.2-0.6-0.5-1c0,0,0,0,0,0c0,0,0,0,0,0c0.3,0.4,0.5,0.6,0.5,1
				C18.1,17.1,18,17.4,17.7,17.8L17.7,17.8z"/>
		</g>
		<g>
			<path class="st6" d="M18.7,10.6c-0.2-0.1-0.3-0.2-0.3-0.4c-0.1-0.3,0-0.5,0.2-0.7c0.1-0.1,0.2-0.1,0.3-0.1c0.1,0,0.2,0.1,0.3,0.2
				l0,0.1l0,0l0,0C19,9.6,19,9.5,18.9,9.5c-0.1,0-0.2,0-0.2,0.1c-0.2,0.1-0.2,0.4-0.2,0.6C18.5,10.3,18.6,10.5,18.7,10.6L18.7,10.6z
				"/>
		</g>
		<g>
			<path class="st6" d="M20.1,10.7C20.1,10.7,20.1,10.7,20.1,10.7c-0.5,0-0.8-0.1-1-0.4C19.4,10.5,19.6,10.6,20.1,10.7
				c0.1,0,0.4-0.1,0.5-0.2c0.1-0.1,0.2-0.2,0.1-0.4c0,0,0-0.1-0.1-0.2c-0.1-0.2-0.2-0.4-0.2-0.6c0-0.5,0.2-0.7,0.4-0.7
				c0.3-0.1,0.7,0.1,0.9,0.2C21.9,8.9,22,9,22.1,9C22.3,9,22.3,9,22.5,9c0.1,0,0.2,0,0.4-0.1c0.1,0,0.2-0.1,0.3-0.1
				c0.3-0.2,0.6-0.4,0.9-0.2c0.2,0.1,0.4,0.3,0.4,0.7c0,0.2-0.1,0.4-0.2,0.6c0,0.1-0.1,0.1-0.1,0.2c-0.1,0.2,0,0.3,0.1,0.4
				c0.1,0.1,0.4,0.1,0.5,0.1c0.5,0,0.7-0.1,1-0.4l0,0c-0.3,0.3-0.6,0.4-1,0.4c-0.1,0-0.4,0-0.6-0.2c-0.2-0.1-0.2-0.2-0.1-0.4
				c0,0,0-0.1,0.1-0.2c0.1-0.2,0.2-0.4,0.2-0.6c0-0.4-0.1-0.6-0.4-0.7c-0.3-0.1-0.6,0.1-0.9,0.2C23,8.9,22.9,9,22.8,9
				c-0.2,0-0.2,0.1-0.4,0.1c-0.1,0-0.2,0-0.4-0.1c-0.1,0-0.2-0.1-0.3-0.2c-0.3-0.1-0.6-0.3-0.9-0.2c-0.3,0.1-0.4,0.3-0.4,0.7
				c0,0.2,0.1,0.4,0.2,0.6c0,0.1,0.1,0.1,0.1,0.2c0.1,0.2,0,0.3-0.1,0.4C20.5,10.6,20.2,10.7,20.1,10.7L20.1,10.7z"/>
		</g>
		<g>
			<path class="st6" d="M23.1,11c-0.1,0-0.3-0.1-0.3-0.2c-0.1-0.1-0.1-0.3,0-0.4c0.2-0.4,0.7-0.2,1.1,0c0,0,0,0,0,0c0,0,0-0.1,0-0.2
				c0-0.2,0.1-0.3,0.2-0.4C24,9.6,24,9.5,24.1,9.4c0.1-0.2,0.1-0.3,0-0.4c-0.1-0.1-0.2-0.1-0.3,0c-0.1,0-0.2,0.1-0.2,0.1
				c-0.2,0.1-0.5,0.3-1,0.3c-0.4,0-0.7-0.2-1-0.3C21.4,9,21.3,9,21.3,9c-0.1-0.1-0.3,0-0.3,0c-0.1,0.1-0.1,0.2,0,0.4
				c0,0.1,0.1,0.2,0.2,0.3c0.1,0.1,0.2,0.3,0.2,0.4c0,0.1,0,0.1,0,0.2c0,0,0,0.1,0,0.1c0.4-0.2,0.9-0.4,1.1,0c0.1,0.1,0.1,0.3,0,0.4
				c-0.1,0.2-0.5,0.3-0.6,0c0-0.1,0-0.2,0.1-0.3c0,0.1,0,0.2,0,0.3c0.1,0.2,0.4,0.2,0.5,0c0.1-0.1,0.1-0.3,0-0.4
				c-0.2-0.4-0.6-0.2-1,0l0,0l0,0c0,0,0-0.1,0-0.1c0,0,0-0.1,0-0.2c0-0.2-0.1-0.3-0.2-0.4c-0.1-0.1-0.1-0.2-0.2-0.3
				c0-0.2-0.1-0.3,0.1-0.5c0.1-0.1,0.2-0.1,0.4-0.1c0.1,0,0.2,0.1,0.2,0.1c0.2,0.1,0.5,0.3,0.9,0.3c0.4,0,0.7-0.2,0.9-0.3
				C23.5,9,23.6,9,23.7,8.9c0.2-0.1,0.3,0,0.4,0.1c0.1,0.1,0.1,0.3,0.1,0.5c0,0.1-0.1,0.2-0.2,0.3c-0.1,0.1-0.2,0.2-0.2,0.4
				c0,0.1,0,0.1,0,0.2c0,0,0,0.1,0,0.1l0,0l-0.1,0c-0.4-0.2-0.8-0.4-1,0c-0.1,0.1-0.1,0.2,0,0.3c0.1,0.2,0.5,0.2,0.5,0
				c0-0.1,0-0.2-0.1-0.3l0,0c0.1,0.1,0.1,0.2,0.1,0.3C23.3,10.9,23.2,11,23.1,11L23.1,11z"/>
		</g>
		<g>
			<path class="st5" d="M22.5,9.9c-0.2,0-0.3,0-0.6-0.2c-0.1,0-0.1-0.1-0.2-0.1c-0.1-0.1-0.1-0.1-0.2-0.1c0,0-0.1,0-0.1,0
				c0,0-0.1,0.1-0.1,0.1c0-0.1,0-0.1,0-0.2c0,0,0.1-0.1,0.1-0.1c0.1,0,0.2,0,0.2,0.1c0,0,0.1,0.1,0.2,0.1
				C22.1,9.8,22.3,9.9,22.5,9.9c0.2,0,0.3-0.1,0.6-0.2c0.1,0,0.1-0.1,0.2-0.1c0.1-0.1,0.1-0.1,0.2-0.1c0,0,0.1,0,0.1,0
				c0,0,0.1,0.1,0.1,0.2h0c0-0.1,0-0.1,0-0.1c0,0-0.1,0-0.1,0c-0.1,0-0.1,0-0.2,0.1c0,0-0.1,0.1-0.2,0.1C22.8,9.9,22.7,9.9,22.5,9.9
				L22.5,9.9z"/>
		</g>
		<g>
			<path class="st6" d="M21.2,10.4L21.2,10.4L21.2,10.4c0-0.1,0-0.1,0-0.2c0-0.2-0.1-0.3-0.2-0.4c-0.1-0.1-0.1-0.2-0.1-0.3
				c-0.1-0.2-0.1-0.3,0-0.5c0.1-0.1,0.3-0.1,0.4,0c0.1,0,0.2,0.1,0.3,0.1c0.2,0.1,0.5,0.3,0.9,0.3c-0.4,0-0.7-0.1-1-0.3
				c-0.1,0-0.2-0.1-0.2-0.1c-0.1-0.1-0.3,0-0.3,0c-0.1,0.1-0.1,0.2,0,0.4c0,0.1,0.1,0.2,0.2,0.3c0.1,0.1,0.2,0.3,0.2,0.4
				C21.2,10.3,21.2,10.3,21.2,10.4L21.2,10.4L21.2,10.4z"/>
		</g>
		<g>
			<path class="st6" d="M22.5,9.4c0.2,0,0.4-0.1,0.5-0.1C22.9,9.4,22.7,9.4,22.5,9.4L22.5,9.4c0.4-0.1,0.7-0.3,1-0.4
				c0.1-0.1,0.2-0.1,0.2-0.1c0.2,0,0.2,0,0.3,0.1C24,9,23.9,9,23.7,9c-0.1,0-0.2,0.1-0.2,0.1C23.2,9.3,22.9,9.4,22.5,9.4L22.5,9.4z"
				/>
		</g>
		<g>
			<path class="st6" d="M23.2,10.9L23.2,10.9c0-0.1,0.1-0.1,0.1-0.2c0-0.1,0-0.2,0-0.3c0.1,0.1,0.1,0.2,0.1,0.3
				C23.4,10.9,23.3,10.9,23.2,10.9C23.3,10.9,23.3,10.9,23.2,10.9C23.3,10.9,23.2,10.9,23.2,10.9L23.2,10.9z"/>
		</g>
		<path class="st5" d="M21.7,10.6c0-0.1,0.1-0.1,0.1-0.1c0.1,0,0.1,0.1,0.1,0.1c0,0.1-0.1,0.1-0.1,0.1
			C21.7,10.7,21.7,10.6,21.7,10.6L21.7,10.6z"/>
		<g>
			<path class="st6" d="M26.9,18.6c0,0,0-0.1,0-0.1c0-0.1,0-0.2,0-0.2l0-1.2h0v1.2c0,0,0,0.1,0,0.2C26.9,18.5,26.9,18.5,26.9,18.6
				L26.9,18.6z"/>
		</g>
		<g>
			<path class="st6" d="M26.9,18.6c0-0.1,0-0.1,0-0.2c0-0.1,0-0.2,0-0.2l0-1.3h0v1.3c0,0,0,0.1,0,0.2C26.9,18.5,26.9,18.6,26.9,18.6
				L26.9,18.6z"/>
		</g>
		<g>
			<polygon class="st6" points="26.9,16.6 26.9,15.5 26.9,15.5 26.9,16.6 			"/>
		</g>
		<g>
			<polygon class="st6" points="27,16.5 26.9,15.6 27,15.6 27,16.5 			"/>
		</g>
		<g>
			<polygon class="st6" points="27,15.2 26.9,14.5 27,14.5 27,15.2 			"/>
		</g>
		<g>
			<polygon class="st6" points="26.9,15.3 26.9,14.5 26.9,14.5 26.9,15.3 			"/>
		</g>
		<g>
			<path class="st0" d="M26.9,13.9v0.3V13.9z"/>
		</g>
		<g>
			<path class="st0" d="M26.9,13.8v0.4V13.8z"/>
		</g>
		<g>
			<path class="st0" d="M26.9,13.4v0.3V13.4z"/>
		</g>
		<g>
			<path class="st0" d="M26.9,13.3v0.4V13.3z"/>
		</g>
		<g>
			<path class="st0" d="M26.9,12.5V13V12.5z"/>
		</g>
		<g>
			<polygon class="st6" points="26.9,13.1 26.9,12.4 26.9,12.4 26.9,13.1 			"/>
		</g>
		<g>
			<path class="st6" d="M22.5,20.2c-0.1-0.1-0.3-0.2-0.5-0.3c-0.1-0.1-0.2-0.1-0.4-0.1c-0.2,0-0.3,0-0.4,0c-0.1,0-0.2,0-0.3,0
				l-0.1,0c-0.1,0-0.2,0-0.2,0c-0.1,0-0.2,0-0.3,0c-0.2,0-0.3,0-0.5,0c-0.2,0-0.3,0-0.5-0.1c-0.2,0-0.3-0.1-0.5-0.2
				c-0.2-0.1-0.3-0.2-0.4-0.3l0,0l0.1,0c0.1,0.1,0.2,0.2,0.4,0.3c0.2,0.1,0.3,0.1,0.5,0.2c0.2,0,0.3,0,0.5,0.1c0.2,0,0.3,0,0.4,0
				c0.2,0,0.2,0,0.3,0c0.1,0,0.1,0,0.2,0l0.1,0c0.1,0,0.2,0,0.3,0c0.2,0,0.3,0,0.4,0c0.1,0,0.2,0,0.4,0.1
				C22.2,20,22.5,20.1,22.5,20.2c0-0.1,0.2-0.2,0.4-0.3c0.1-0.1,0.2-0.1,0.4-0.1c0.2,0,0.3,0,0.4,0c0.1,0,0.2,0,0.3,0l0.1,0
				c0.1,0,0.2,0,0.2,0c0.1,0,0.2,0,0.3,0c0.2,0,0.3,0,0.5,0c0.2,0,0.3,0,0.5-0.1c0.2,0,0.3-0.1,0.5-0.2c0.2-0.1,0.3-0.1,0.4-0.3
				c0.1-0.1,0.2-0.2,0.3-0.4l0,0c-0.1,0.2-0.2,0.3-0.3,0.4c-0.2,0.1-0.3,0.2-0.4,0.3c-0.2,0.1-0.3,0.1-0.5,0.2
				c-0.2,0-0.3,0.1-0.5,0.1c-0.2,0-0.3,0-0.4,0c-0.2,0-0.2,0-0.3,0c-0.1,0-0.1,0-0.2,0l-0.1,0c-0.1,0-0.2,0-0.3,0
				c-0.2,0-0.3,0-0.4,0c-0.1,0-0.2,0-0.4,0.1C22.8,20,22.6,20.1,22.5,20.2L22.5,20.2z"/>
		</g>
		<g>
			<path class="st6" d="M22.5,20.2c-0.1-0.1-0.3-0.2-0.5-0.3c-0.1-0.1-0.2-0.1-0.4-0.1c-0.2,0-0.2,0-0.4,0c-0.1,0-0.2,0-0.3,0
				l-0.1,0c-0.1,0-0.2,0-0.2,0c-0.1,0-0.2,0-0.3,0c-0.2,0-0.3,0-0.5,0c-0.2,0-0.3,0-0.5-0.1c-0.2,0-0.3-0.1-0.5-0.2
				c-0.2-0.1-0.3-0.2-0.4-0.3c-0.1-0.1-0.1-0.1-0.2-0.2c0.1,0,0.1,0.1,0.2,0.2c0.1,0.1,0.2,0.2,0.4,0.3c0.2,0.1,0.3,0.1,0.5,0.2
				c0.2,0,0.3,0.1,0.5,0.1c0.2,0,0.3,0,0.4,0c0.1,0,0.2,0,0.3,0c0.1,0,0.1,0,0.2,0l0.1,0c0.1,0,0.2,0,0.3,0c0.2,0,0.3,0,0.4,0
				c0.1,0,0.2,0,0.4,0.1C22.2,19.9,22.4,20.1,22.5,20.2c0-0.1,0.2-0.2,0.4-0.3c0.1-0.1,0.2-0.1,0.4-0.1c0.2,0,0.3,0,0.4,0
				c0.1,0,0.2,0,0.3,0l0.1,0c0.1,0,0.2,0,0.2,0c0.1,0,0.2,0,0.3,0c0.2,0,0.3,0,0.5,0c0.2,0,0.3,0,0.5-0.1c0.2,0,0.3-0.1,0.5-0.2
				c0.2-0.1,0.3-0.2,0.4-0.3c0.1-0.1,0.2-0.2,0.3-0.4l0.1,0l0,0c-0.1,0.2-0.2,0.3-0.3,0.4c-0.1,0.1-0.2,0.2-0.4,0.3
				c-0.2,0.1-0.3,0.1-0.5,0.2c-0.2,0-0.3,0.1-0.5,0.1c-0.2,0-0.3,0-0.5,0c-0.1,0-0.2,0-0.3,0c-0.1,0-0.1,0-0.2,0l-0.1,0
				c-0.1,0-0.2,0-0.3,0c-0.2,0-0.3,0-0.4,0c-0.1,0-0.2,0-0.4,0.1C22.8,20,22.5,20.1,22.5,20.2L22.5,20.2z"/>
		</g>
		<path class="st5" d="M17.3,19.3c0-0.1,0.1-0.2,0.2-0.2c0.1,0,0.2,0.1,0.2,0.2s-0.1,0.2-0.2,0.2C17.4,19.5,17.3,19.4,17.3,19.3
			L17.3,19.3z"/>
		<g>
			<path class="st5" d="M17.5,19.5c-0.1,0-0.2-0.1-0.2-0.2s0.1-0.2,0.2-0.2c0.1,0,0.2,0.1,0.2,0.2S17.6,19.5,17.5,19.5L17.5,19.5z
				 M17.5,19.1c-0.1,0-0.2,0.1-0.2,0.2c0,0.1,0.1,0.2,0.2,0.2c0.1,0,0.2-0.1,0.2-0.2C17.7,19.2,17.6,19.1,17.5,19.1L17.5,19.1z"/>
		</g>
		<g>
			<polygon class="st6" points="16.8,19.7 16.8,19.6 16.9,19.4 17,19.1 17.2,19 17.3,18.9 17.3,19 17.2,19 17.1,19.1 16.9,19.4 
				16.8,19.7 			"/>
		</g>
		<g>
			<path class="st6" d="M17.7,19.7c-0.3,0-0.4-0.2-0.4-0.3C17.3,19.5,17.4,19.6,17.7,19.7C17.7,19.6,17.7,19.6,17.7,19.7
				c0.1-0.1,0.2-0.1,0.4-0.2c0.1-0.1,0.2-0.3,0.2-0.5l0,0c0,0.2-0.1,0.5-0.2,0.6C17.9,19.6,17.8,19.7,17.7,19.7
				C17.7,19.7,17.7,19.7,17.7,19.7L17.7,19.7z"/>
		</g>
		<g>
			<polygon class="st6" points="17.7,19.6 18,19.5 18.1,19.3 18.1,19.1 18.2,19 18.2,19 18.2,19.2 18.1,19.4 18,19.5 17.8,19.6 
				17.7,19.6 			"/>
		</g>
		<g>
			<path class="st6" d="M18,19.4L18,19.4c0.1-0.1,0.1-0.3,0-0.5c0-0.1-0.1-0.1-0.1-0.2l0,0c0.1,0.1,0.1,0.1,0.1,0.2
				C18.1,19.1,18.1,19.3,18,19.4L18,19.4L18,19.4z"/>
		</g>
		<g>
			<path class="st6" d="M21,22c-0.4-0.4-1.1-0.4-1.8-0.5c-0.6,0-1.4-0.1-1.8-0.3c-0.3-0.1-0.6-0.3-0.8-0.5l0,0
				c0.2,0.2,0.5,0.4,0.8,0.5c0.5,0.2,1.2,0.3,1.8,0.3C19.9,21.5,20.6,21.6,21,22L21,22z"/>
		</g>
		<g>
			<path class="st6" d="M22.5,22.1c-0.1-0.1-0.2-0.3-0.3-0.4l0,0C22.3,21.8,22.4,22,22.5,22.1L22.5,22.1z"/>
		</g>
		<g>
			<path class="st6" d="M22.1,22.7L22.1,22.7c0.3-0.1,0.3-0.3,0.4-0.3l0,0C22.5,22.5,22.4,22.7,22.1,22.7L22.1,22.7z"/>
		</g>
		<g>
			<path class="st6" d="M22,23c0-0.1,0.1-0.2,0.1-0.3c0,0,0,0,0,0c0,0,0,0,0,0C22.1,22.8,22,22.9,22,23L22,23z"/>
		</g>
		<g>
			<path class="st6" d="M22.1,22.7c0-0.1,0-0.1,0-0.2c0-0.1,0-0.2-0.1-0.3c-0.2-0.3-0.5-0.5-0.8-0.6c-0.3-0.1-0.3-0.1-0.3-0.1
				c0,0,0,0,0,0c0,0,0,0,0,0l0,0l0,0c0,0,0.1,0,0.3,0.1c0.3,0.1,0.6,0.3,0.8,0.6c0.1,0.1,0.1,0.3,0.1,0.4
				C22.2,22.5,22.2,22.6,22.1,22.7L22.1,22.7z"/>
		</g>
		<g>
			<path class="st6" d="M21.5,23.2C21.5,23.2,21.5,23.2,21.5,23.2c-0.2,0-0.4-0.1-0.4-0.2C21.2,23,21.3,23.1,21.5,23.2
				c0.1,0,0.2-0.1,0.4-0.2c0,0,0,0,0,0l0,0c0,0,0,0,0,0C21.8,23.1,21.7,23.2,21.5,23.2L21.5,23.2z"/>
		</g>
		<g>
			<path class="st0" d="M22.1,22.5l0,0.2L22.1,22.5z"/>
		</g>
		<g>
			<polygon class="st6" points="21.6,23.2 21.9,22.9 21.9,23 21.9,23 21.7,23.1 21.6,23.2 			"/>
		</g>
		<g>
			<path class="st6" d="M22.5,23.4c-0.2-0.1-0.5-0.3-0.6-0.5C22.1,23.1,22.3,23.3,22.5,23.4c0.2-0.1,0.4-0.3,0.5-0.5l0,0
				C22.9,23.1,22.7,23.3,22.5,23.4L22.5,23.4z"/>
		</g>
		<g>
			<path class="st4" d="M22.5,23.4c-0.2-0.1-0.5-0.3-0.6-0.4C22.1,23.1,22.3,23.3,22.5,23.4c0.2-0.1,0.5-0.3,0.5-0.5l0,0
				C23,23.1,22.8,23.3,22.5,23.4L22.5,23.4z"/>
		</g>
		<g>
			<path class="st0" d="M21.5,23.1l0.1,0L21.5,23.1z"/>
		</g>
		<g>
			<path class="st6" d="M21,23c-0.1,0-0.2-0.1-0.3-0.1l0,0l0,0C20.9,22.9,21,22.9,21,23C21.1,23,21.1,23,21,23L21,23z"/>
		</g>
		<g>
			<path class="st6" d="M21.1,23C21.1,23,21.1,23,21.1,23c-0.1,0-0.2,0-0.3-0.1l0,0C21,22.9,21.1,22.9,21.1,23
				c0.1-0.1,0.2-0.1,0.3-0.2c0.1-0.1,0.2-0.3,0.2-0.4c0-0.2-0.1-0.3-0.3-0.5c0.2,0.1,0.3,0.3,0.3,0.5c0,0.2-0.1,0.3-0.2,0.4
				C21.4,22.9,21.3,23,21.1,23L21.1,23z"/>
		</g>
		<g>
			<path class="st6" d="M21.1,22.6C21.1,22.6,21.1,22.6,21.1,22.6c-0.1,0-0.2,0-0.2-0.1c0,0,0-0.1,0-0.2c0,0,0,0,0,0c0,0,0,0,0,0
				c0,0.1,0,0.1,0,0.2C21,22.6,21,22.6,21.1,22.6c0,0,0.1-0.1,0.1-0.1c0,0,0.1-0.1,0.1-0.2c0-0.1,0-0.2-0.1-0.3
				c0.1,0,0.2,0.2,0.2,0.3c0,0.1,0,0.1-0.1,0.2C21.2,22.6,21.2,22.6,21.1,22.6L21.1,22.6z"/>
		</g>
		<path class="st5" d="M20.9,22.4c0-0.1,0.1-0.2,0.2-0.2c0.1,0,0.2,0.1,0.2,0.2c0,0.1-0.1,0.2-0.2,0.2C21,22.6,20.9,22.5,20.9,22.4
			L20.9,22.4z"/>
		<g>
			<path class="st6" d="M22.5,23.4c-0.3-0.1-0.5-0.3-0.6-0.5l0,0l0,0C22.1,23.1,22.3,23.3,22.5,23.4c0.2-0.1,0.4-0.3,0.5-0.5l0,0
				C23,23.1,22.8,23.3,22.5,23.4L22.5,23.4z"/>
		</g>
		<g>
			<path class="st5" d="M23.5,21.6L23.5,21.6c0.1-0.1,0.2-0.1,0.2-0.1c0.1,0,0.1,0,0.2,0l0.1,0c0,0,0,0,0,0c0,0,0,0,0,0l-0.1,0
				c0,0-0.1,0-0.2,0C23.7,21.5,23.6,21.5,23.5,21.6L23.5,21.6L23.5,21.6z"/>
		</g>
		<g>
			<path class="st5" d="M23.2,21.9L23.2,21.9C23.2,21.8,23.2,21.8,23.2,21.9c0.1-0.1,0.1-0.2,0.2-0.2c0.1,0,0.1-0.1,0.2-0.1
				c0.1,0,0.1,0,0.1-0.1c0.1,0,0.1,0,0.1-0.1l0.1,0l-0.1,0.1c-0.1,0-0.1,0-0.1,0.1c-0.1,0-0.1,0-0.1,0.1c-0.1,0-0.1,0.1-0.2,0.1
				C23.3,21.7,23.3,21.8,23.2,21.9C23.2,21.8,23.2,21.9,23.2,21.9L23.2,21.9L23.2,21.9z"/>
		</g>
		<g>
			<path class="st5" d="M21.6,21.8L21.6,21.8L21.6,21.8C21.6,21.8,21.6,21.7,21.6,21.8c-0.1-0.1-0.1-0.1-0.1-0.2
				c-0.1-0.1-0.1-0.1-0.2-0.1l-0.1,0c-0.1,0-0.1,0-0.1-0.1l-0.3-0.1l0.2,0c0.1,0,0.1,0,0.1,0.1c0.1,0,0.1,0,0.1,0.1l0.1,0
				c0,0,0.1,0,0.1,0.1c0.1,0,0.1,0.1,0.1,0.1C21.6,21.7,21.6,21.8,21.6,21.8C21.6,21.8,21.6,21.8,21.6,21.8
				C21.6,21.8,21.6,21.8,21.6,21.8L21.6,21.8z"/>
		</g>
		<g>
			<path class="st6" d="M23.5,23.2c-0.2,0-0.3-0.1-0.4-0.2c0,0,0,0,0,0l0,0l0,0c0,0,0,0,0,0C23.3,23.1,23.4,23.2,23.5,23.2
				c0.2-0.1,0.3-0.1,0.4-0.2l0.1,0c0,0,0,0.1,0,0.1C23.9,23.1,23.7,23.2,23.5,23.2C23.6,23.2,23.5,23.2,23.5,23.2L23.5,23.2z"/>
		</g>
		<g>
			<polygon class="st6" points="23.5,23.2 23.7,23.1 23.8,23 23.8,22.9 23.9,22.9 23.8,23 23.7,23.1 23.6,23.2 23.5,23.2 			"/>
		</g>
		<g>
			<path class="st6" d="M23.9,23L23.9,23c0.1,0,0.3-0.1,0.4-0.2c0.1-0.1,0.1-0.2,0.1-0.3c0-0.1,0-0.1,0-0.2c0-0.1-0.1-0.2-0.2-0.2
				l0,0c0.1,0.1,0.1,0.1,0.2,0.2c0,0.1,0,0.1,0,0.2c0,0.1,0,0.2-0.1,0.3C24.2,22.9,24,23,23.9,23L23.9,23z"/>
		</g>
		<g>
			<path class="st6" d="M23.8,23c-0.1,0-0.3-0.1-0.4-0.2C23.6,22.9,23.7,22.9,23.8,23L23.8,23C23.8,23,23.8,23,23.8,23L23.8,23z"/>
		</g>
		<g>
			<polygon class="st6" points="23.8,23 23.8,22.9 24,22.9 24.2,22.8 24.3,22.6 24.3,22.5 24.4,22.5 24.3,22.7 24.2,22.9 24,23 
				23.8,23 			"/>
		</g>
		<path class="st5" d="M23.7,22.4c0-0.1,0.1-0.2,0.2-0.2c0.1,0,0.2,0.1,0.2,0.2s-0.1,0.2-0.2,0.2C23.7,22.6,23.7,22.5,23.7,22.4
			L23.7,22.4z"/>
		<g>
			<path class="st6" d="M24.1,22.1c0.4-0.5,1.1-0.5,1.8-0.6c0.6,0,1.3-0.1,1.8-0.3c0.8-0.3,1-0.8,1.1-0.9c0.1-0.2,0.2-0.4,0.2-0.7
				c0-0.1,0-0.3-0.1-0.4c-0.1-0.2-0.2-0.4-0.3-0.5l0,0c0.2,0.2,0.3,0.3,0.4,0.6c0,0.1,0.1,0.3,0.1,0.4c0,0.2-0.1,0.5-0.1,0.7
				c-0.1,0.2-0.3,0.7-1.1,1c-0.5,0.2-1.3,0.3-1.9,0.3C25.1,21.6,24.5,21.6,24.1,22.1L24.1,22.1z"/>
		</g>
		<g>
			<polygon class="st6" points="24,22.1 24,22 24.2,21.8 24.6,21.7 25.1,21.5 24.4,21.8 24.2,21.9 24,22.1 			"/>
		</g>
		<g>
			<path class="st6" d="M27.9,19.1c-0.1-0.1-0.1-0.1-0.2-0.1c-0.2-0.1-0.3,0-0.4,0.1l0,0c0.1-0.1,0.3-0.2,0.4-0.1
				C27.8,19,27.9,19,27.9,19.1L27.9,19.1z"/>
		</g>
		<path class="st6" d="M18.5,19.9C18.5,19.8,18.6,19.9,18.5,19.9C18.6,19.8,18.6,19.8,18.5,19.9C18.5,19.8,18.5,19.8,18.5,19.9
			c0-0.1,0-0.1-0.1-0.1c0,0,0,0,0,0C18.4,19.8,18.5,19.8,18.5,19.9c-0.1,0-0.1,0-0.1,0.1l-0.2,0.2c0,0,0,0,0,0c0,0,0,0,0,0l0-0.3
			c0-0.1,0-0.1,0-0.1c0,0,0.1,0,0.1,0c0,0,0,0,0,0c0,0,0,0-0.1,0c0,0,0,0-0.1,0c0,0,0,0,0,0c0,0,0,0,0,0c0,0,0,0,0,0.1l0,0.5
			c0,0,0,0,0,0c0,0,0,0,0,0L18.5,19.9z"/>
		<path class="st6" d="M18.7,20C18.8,19.9,18.8,19.9,18.7,20C18.8,19.9,18.8,19.9,18.7,20c0-0.1,0-0.1,0-0.1c0,0-0.1,0-0.1,0
			c0,0,0,0,0,0C18.6,19.9,18.7,19.9,18.7,20l-0.2,0.4c0,0.1-0.1,0-0.1,0.1c0,0,0,0,0,0c0,0,0,0,0.1,0c0.1,0,0.1,0,0.1,0c0,0,0,0,0,0
			c0,0-0.1,0-0.1-0.1L18.7,20z"/>
		<path class="st6" d="M19,20C19,20,19,20,19,20c0.1,0,0.2,0.1,0.1,0.1c0,0,0,0.1-0.1,0.1c0,0,0,0,0,0L19,20z M18.8,20.4
			C18.8,20.5,18.7,20.5,18.8,20.4c-0.1,0.1-0.1,0.1-0.1,0.1c0,0,0.1,0,0.1,0c0,0,0,0,0.1,0c0,0,0,0,0,0
			C18.9,20.5,18.9,20.5,18.8,20.4l0.1-0.1c0,0,0,0,0,0c0,0,0,0,0.1,0.1l0,0.1c0,0.1,0,0.1,0.1,0.1c0,0,0.1,0,0.1,0c0,0,0,0,0,0
			c0,0,0,0,0,0c0,0,0,0,0,0c0-0.1-0.1-0.3-0.1-0.3c0,0,0,0,0.1,0c0,0,0.1,0,0.1-0.1c0,0,0-0.2-0.1-0.2c0,0-0.1,0-0.1,0
			c0,0,0,0-0.1,0c0,0,0,0,0,0c0,0,0.1,0,0.1,0.1L18.8,20.4z"/>
		<path class="st6" d="M19.4,20.6c0,0.1-0.1,0-0.1,0.1C19.3,20.7,19.3,20.7,19.4,20.6c-0.1,0.1,0,0.1,0,0.1c0,0,0.1,0,0.1,0
			c0,0,0,0,0,0C19.6,20.7,19.5,20.7,19.4,20.6l0.2-0.4c0,0,0,0,0,0l0.1,0c0.1,0,0,0.1,0.1,0.1c0,0,0,0,0,0l0-0.1c0,0,0,0,0,0
			c-0.1,0-0.1,0-0.2-0.1c-0.1,0-0.2,0-0.2-0.1c0,0,0,0,0,0l0,0.1c0,0,0,0,0,0c0,0,0-0.1,0.1-0.1l0.1,0c0,0,0,0,0,0.1L19.4,20.6z"/>
		<path class="st6" d="M20.3,20.3C20.3,20.3,20.4,20.3,20.3,20.3C20.4,20.3,20.4,20.3,20.3,20.3C20.3,20.3,20.3,20.3,20.3,20.3
			C20.3,20.3,20.2,20.2,20.3,20.3c-0.1-0.1-0.1-0.1-0.1-0.1C20.2,20.3,20.3,20.3,20.3,20.3c-0.1,0-0.1,0-0.1,0.1l-0.2,0.2
			c0,0,0,0,0,0c0,0,0,0,0,0l0-0.3c0-0.1,0-0.1,0-0.1c0,0,0.1,0,0.1,0c0,0,0,0,0,0c0,0,0,0-0.1,0c0,0,0,0-0.1,0c0,0,0,0,0,0
			c0,0,0,0,0,0c0,0,0,0,0,0.1l0.1,0.5c0,0,0,0,0,0c0,0,0,0,0,0L20.3,20.3z"/>
		<path class="st6" d="M20.4,20.8C20.4,20.8,20.3,20.8,20.4,20.8c0.1,0.1,0.1,0.1,0.1,0.1c0.1,0,0.2,0,0.2-0.2c0-0.1,0-0.2-0.1-0.2
			c-0.1-0.1-0.1-0.1-0.1-0.1c0-0.1,0-0.1,0.1-0.1c0.1,0,0.1,0.2,0.1,0.2c0,0,0,0,0,0l0-0.1c0,0,0,0,0,0c0,0,0,0,0,0c0,0,0,0-0.1-0.1
			c-0.1,0-0.2,0.1-0.2,0.1c0,0.1,0,0.1,0.1,0.2c0.1,0.1,0.2,0.1,0.1,0.2c0,0.1-0.1,0.1-0.1,0.1c-0.1,0-0.1-0.1-0.1-0.2c0,0,0,0,0,0
			c0,0,0,0,0,0L20.4,20.8z"/>
		<path class="st6" d="M21.5,20.5C21.5,20.5,21.5,20.5,21.5,20.5C21.5,20.4,21.5,20.4,21.5,20.5C21.5,20.4,21.5,20.4,21.5,20.5
			C21.4,20.4,21.4,20.4,21.5,20.5c-0.1-0.1-0.1-0.1-0.1-0.1C21.4,20.5,21.4,20.4,21.5,20.5c-0.1,0-0.1,0.1-0.1,0.1l-0.1,0.2
			c0,0,0,0,0,0c0,0,0,0,0,0l-0.1-0.3c0-0.1,0-0.1,0-0.1c0,0,0,0,0,0c0,0,0,0,0,0c0,0,0,0-0.1,0c0,0-0.1,0-0.1,0c0,0,0,0,0,0
			c0,0,0,0,0,0c0,0,0,0,0,0.1l0.2,0.5c0,0,0,0,0,0.1c0,0,0,0,0,0L21.5,20.5z"/>
		<path class="st6" d="M21.6,20.9c0,0.1-0.1,0.1-0.1,0.1c0,0,0,0,0,0c0,0,0,0,0.1,0c0,0,0.1,0,0.1,0c0,0,0,0,0,0
			C21.7,21,21.6,21,21.6,20.9l0-0.3c0,0,0,0,0,0c0,0,0,0,0,0L22,21c0,0,0,0,0,0c0,0,0,0,0,0l0-0.5c0-0.1,0.1-0.1,0.1-0.1
			c0,0,0,0,0,0c0,0,0,0-0.1,0c-0.1,0-0.1,0-0.1,0c0,0,0,0,0,0c0,0,0.1,0,0.1,0.1l0,0.3c0,0,0,0,0,0c0,0,0,0,0,0l-0.3-0.4
			c0,0,0,0,0,0c0,0-0.1,0-0.1,0c0,0,0,0,0,0c0,0,0,0,0,0c0,0.1,0.1,0,0.1,0.2L21.6,20.9z"/>
		<path class="st6" d="M22.4,20.5C22.4,20.5,22.4,20.5,22.4,20.5C22.4,20.4,22.4,20.4,22.4,20.5C22.3,20.4,22.3,20.4,22.4,20.5
			c-0.1-0.1-0.1-0.1-0.2-0.1c0,0,0,0,0,0C22.2,20.5,22.3,20.5,22.4,20.5l-0.1,0.4c0,0.1-0.1,0.1-0.1,0.1c0,0,0,0,0,0
			c0,0,0.1,0,0.1,0c0.1,0,0.1,0,0.1,0c0,0,0,0,0,0c0,0-0.1,0-0.1-0.1L22.4,20.5z"/>
		<path class="st6" d="M22.7,20.9C22.7,21,22.6,21,22.7,20.9C22.6,21,22.6,21,22.6,21c0,0,0.1,0,0.1,0c0,0,0.1,0,0.1,0c0,0,0,0,0,0
			C22.9,21,22.8,21,22.7,20.9l0.1-0.4c0,0,0,0,0,0h0.1c0.1,0,0.1,0.1,0.1,0.1c0,0,0,0,0,0l0-0.1c0,0,0,0,0,0c-0.1,0-0.1,0-0.2,0
			c-0.1,0-0.2,0-0.2,0c0,0,0,0,0,0l0,0.1c0,0,0,0,0,0c0,0,0-0.1,0.1-0.1h0.1c0,0,0,0,0,0L22.7,20.9z"/>
		<path class="st6" d="M23.1,20.8C23.1,20.8,23.1,20.8,23.1,20.8C23.1,20.7,23.1,20.7,23.1,20.8l0-0.2c0,0,0,0,0,0c0,0,0,0,0,0
			l0.1,0.2c0,0,0,0,0,0c0,0,0,0,0,0L23.1,20.8z M23.3,20.8C23.3,20.8,23.3,20.8,23.3,20.8c0.1,0.1,0.1,0.1,0.1,0.1c0,0,0,0,0,0.1
			c0,0,0,0,0,0c0,0,0,0,0.1,0c0.1,0,0.1,0,0.1,0c0,0,0,0,0,0c0,0,0,0-0.1,0l-0.2-0.5c0,0,0,0,0,0c0,0,0,0,0,0L23,21c0,0-0.1,0,0,0.1
			c0,0,0,0,0,0c0,0,0,0,0.1,0c0,0,0,0,0.1,0c0,0,0,0,0,0c0,0-0.1,0-0.1-0.1c0,0,0-0.1,0-0.1c0-0.1,0-0.1,0-0.1L23.3,20.8z"/>
		<path class="st6" d="M23.9,20.4C23.8,20.4,23.9,20.4,23.9,20.4c0.2-0.1,0.2,0,0.2,0c0,0,0,0,0,0l0-0.1c0,0,0,0,0,0
			C24,20.3,23.9,20.3,23.9,20.4c-0.1-0.1-0.1-0.1-0.2-0.1c0,0,0,0,0,0C23.7,20.4,23.8,20.4,23.9,20.4l0,0.4c0,0.1,0,0.1,0,0.1
			c0,0,0,0,0,0c0,0,0.1,0,0.1,0c0,0,0.1,0,0.1,0c0,0,0,0,0,0c0,0-0.1,0-0.1-0.1l0-0.1c0,0,0-0.1,0-0.1l0.1,0c0.1,0,0.1,0.1,0.1,0.1
			c0,0,0,0,0,0l0-0.2c0,0,0,0,0,0c0,0,0,0.1-0.1,0.1l0,0c0,0,0,0,0,0L23.9,20.4z"/>
		<path class="st6" d="M24.1,20.6c0,0.2,0.2,0.3,0.3,0.2c0.2,0,0.2-0.3,0.2-0.4c0-0.2-0.2-0.3-0.3-0.2
			C24.2,20.3,24.1,20.5,24.1,20.6L24.1,20.6z M24.2,20.6c0-0.1,0-0.2,0.1-0.3c0.1,0,0.2,0.1,0.2,0.3c0,0.1,0,0.3-0.1,0.3
			C24.3,20.9,24.2,20.7,24.2,20.6L24.2,20.6z"/>
		<path class="st6" d="M24.8,20.3C24.8,20.2,24.8,20.2,24.8,20.3c0.1-0.1,0.2,0,0.2,0c0,0,0,0.1-0.1,0.1c0,0,0,0-0.1,0L24.8,20.3z
			 M24.8,20.7c0,0.1,0,0.1,0,0.1c0,0,0,0,0,0c0,0,0.1,0,0.1,0c0,0,0,0,0.1,0c0,0,0,0,0,0C25,20.7,24.9,20.8,24.8,20.7l0.1-0.1
			c0,0,0,0,0,0c0,0,0,0,0.1,0l0.1,0.1c0,0,0.1,0.1,0.1,0.1c0,0,0.1,0,0.1-0.1c0,0,0,0,0,0c0,0,0,0,0,0c0,0,0,0,0,0
			c-0.1-0.1-0.2-0.2-0.2-0.2c0,0,0,0,0,0c0,0,0-0.1,0-0.1c0,0-0.1-0.2-0.2-0.1c0,0-0.1,0-0.1,0c0,0-0.1,0-0.1,0c0,0,0,0,0,0
			c0,0,0.1,0,0.1,0.1L24.8,20.7z"/>
		<path class="st6" d="M25.4,20.6c0,0.1-0.1,0.1-0.1,0.1c0,0,0,0,0,0C25.4,20.7,25.5,20.7,25.4,20.6c0.1,0.1,0.1,0.1,0.2,0.1
			c0,0,0,0,0,0C25.6,20.6,25.6,20.6,25.4,20.6l0-0.4c0,0,0,0,0-0.1l0.1,0c0.1,0,0.1,0.1,0.1,0.1c0,0,0,0,0,0l0-0.1c0,0,0,0,0,0
			c-0.1,0-0.1,0-0.2,0.1c-0.1,0-0.2,0-0.2,0.1c0,0,0,0,0,0l0,0.1c0,0,0,0,0,0c0,0,0-0.1,0.1-0.1l0.1,0c0,0,0,0,0.1,0L25.4,20.6z"/>
		<path class="st6" d="M25.8,20C25.8,19.9,25.9,20,25.8,20C25.9,19.9,25.9,19.9,25.8,20C25.8,19.9,25.8,19.9,25.8,20
			c-0.1-0.1-0.1-0.1-0.2,0c0,0,0,0,0,0C25.6,20,25.7,20,25.8,20l0,0.4c0,0.1,0,0.1,0,0.1c0,0,0,0,0,0c0,0,0,0,0.1,0
			c0.1,0,0.1,0,0.1,0c0,0,0,0,0,0c0,0-0.1,0-0.1-0.1L25.8,20z"/>
		<path class="st6" d="M26,20.2c0.1,0.2,0.2,0.2,0.3,0.2c0.2-0.1,0.2-0.3,0.2-0.4c-0.1-0.2-0.2-0.2-0.3-0.2C26,19.9,25.9,20,26,20.2
			L26,20.2z M26.1,20.1c0-0.1,0-0.2,0.1-0.3c0.1,0,0.2,0,0.3,0.2c0,0.1,0,0.3-0.1,0.3C26.2,20.4,26.1,20.3,26.1,20.1L26.1,20.1z"/>
		<path class="st6" d="M26.6,19.7C26.6,19.7,26.6,19.7,26.6,19.7c0.1-0.1,0.2-0.1,0.2,0c0,0,0,0.1-0.1,0.1c0,0,0,0-0.1,0L26.6,19.7z
			 M26.7,20.2c0,0.1,0,0.1,0,0.1c0,0,0,0,0,0c0,0,0.1,0,0.1-0.1c0,0,0,0,0.1,0c0,0,0,0,0,0C26.9,20.2,26.8,20.2,26.7,20.2l0-0.2
			c0,0,0,0,0,0c0,0,0.1,0,0.1,0l0.1,0.1c0,0,0.1,0.1,0.1,0.1c0,0,0.1,0,0.1-0.1c0,0,0,0,0,0c0,0,0,0,0,0c0,0,0,0,0,0
			c-0.1-0.1-0.2-0.2-0.2-0.2c0,0,0,0,0,0c0,0,0-0.1,0-0.1c0,0-0.1-0.1-0.2-0.1c0,0-0.1,0-0.1,0.1c0,0-0.1,0-0.1,0c0,0,0,0,0,0
			c0,0,0.1,0,0.1,0.1L26.7,20.2z"/>
		<g>
			<path class="st6" d="M28,17.9c-0.1-0.1-0.2-0.3-0.3-0.5c-0.1-0.1-0.1-0.2-0.1-0.3c0-0.1,0-0.2,0-0.2c0-0.1,0-0.3,0-0.5
				c0.1-0.3,0.2-0.5,0.3-0.7c0.1-0.1,0.1-0.1,0.2-0.2c0,0.1-0.1,0.1-0.1,0.2c-0.1,0.2-0.2,0.4-0.3,0.6c0,0.2,0,0.3,0,0.4
				c0,0.1,0,0.2,0,0.2c0,0.1,0.1,0.2,0.1,0.3C27.8,17.6,27.9,17.8,28,17.9L28,17.9L28,17.9z"/>
		</g>
		<g>
			<path class="st6" d="M28.2,17.5L28.2,17.5c-0.1,0-0.1,0-0.1-0.1c-0.2-0.2-0.3-0.5-0.3-0.8c0-0.3,0.1-0.6,0.3-0.7
				c-0.1,0.2-0.2,0.5-0.2,0.7C27.8,17,28,17.2,28.2,17.5C28.2,17.4,28.2,17.5,28.2,17.5L28.2,17.5L28.2,17.5z"/>
		</g>
		<g>
			<polygon class="st6" points="27.8,16.6 27.8,16.6 27.8,16.3 27.9,16 28,15.9 27.8,16.5 27.8,16.6 			"/>
		</g>
		<g>
			<path class="st6" d="M28.6,18.5c-0.1,0-0.1,0-0.2,0c0,0-0.1,0-0.1,0l0,0c0,0,0.1,0,0.1,0c0.1,0,0.2,0,0.3,0
				c0.1,0,0.2-0.1,0.2-0.2c0-0.1,0-0.2,0-0.3c0-0.1-0.1-0.1-0.1-0.1c0.1,0,0.1,0.1,0.2,0.1c0,0.1,0.1,0.2,0,0.3
				c0,0.1-0.1,0.2-0.2,0.2C28.7,18.5,28.7,18.5,28.6,18.5L28.6,18.5z"/>
		</g>
		<g>
			<path class="st6" d="M28.9,17.9L28.9,17.9L28.9,17.9L28.9,17.9c0-0.1-0.1-0.2-0.1-0.3l0-0.1c0,0,0,0,0,0
				C28.9,17.6,28.9,17.7,28.9,17.9L28.9,17.9L28.9,17.9z"/>
		</g>
		<g>
			<path class="st6" d="M28.7,17.6c0-0.1-0.1-0.2-0.2-0.2C28.7,17.3,28.8,17.4,28.7,17.6L28.7,17.6L28.7,17.6z"/>
		</g>
		<g>
			<path class="st6" d="M28.3,16.1c-0.1,0-0.2,0-0.2-0.1l0,0C28.2,16.1,28.3,16.1,28.3,16.1c0.1-0.1,0.2-0.1,0.2-0.2
				c0-0.1,0.1-0.2,0-0.3c0,0,0-0.1-0.1-0.1c0-0.1-0.1-0.1-0.1-0.1v-0.1c0.1,0,0.1,0.1,0.1,0.1c0,0,0.1,0.1,0.1,0.1
				c0,0.1,0,0.2,0,0.3C28.6,16,28.5,16.1,28.3,16.1C28.4,16.1,28.3,16.1,28.3,16.1L28.3,16.1z"/>
		</g>
		<g>
			<polygon class="st6" points="28.3,16.1 28.2,16.1 28.5,16 28.6,15.8 28.6,15.7 28.6,15.7 28.6,15.9 28.5,16 28.3,16.1 			"/>
		</g>
		<g>
			<path class="st0" d="M28.3,15.6C28.3,15.6,28.3,15.6,28.3,15.6C28.3,15.7,28.3,15.7,28.3,15.6c0.1,0.1,0.1,0.1,0,0.1c0,0,0,0,0,0
				L28.3,15.6z"/>
		</g>
		<g>
			<path class="st6" d="M28.6,18.2C28.5,18.2,28.5,18.2,28.6,18.2c-0.1,0-0.1-0.1-0.1-0.1l0,0l0,0l0,0c0,0,0,0,0,0
				c0.1,0,0.2,0,0.2,0c0,0,0.1-0.1,0-0.1c0.1,0.1,0.1,0.1,0,0.2C28.7,18.2,28.6,18.2,28.6,18.2L28.6,18.2z"/>
		</g>
		<path class="st5" d="M28.4,18c0-0.1,0.1-0.1,0.1-0.1c0.1,0,0.1,0.1,0.1,0.1c0,0.1-0.1,0.1-0.1,0.1C28.5,18.2,28.4,18.1,28.4,18
			L28.4,18z"/>
		<path class="st5" d="M27.9,14.8c0-0.1,0-0.1,0.1-0.1c0.1,0,0.1,0,0.1,0.1c0,0.1,0,0.1-0.1,0.1C27.9,15,27.9,14.9,27.9,14.8
			L27.9,14.8z"/>
		<path class="st5" d="M27.8,13.2C27.8,13.2,27.8,13.2,27.8,13.2c0.1-0.1,0.2,0,0.2,0C27.9,13.3,27.9,13.3,27.8,13.2
			C27.8,13.3,27.8,13.3,27.8,13.2L27.8,13.2z"/>
		<g>
			<path class="st6" d="M27.3,12.5c-0.1,0-0.1-0.1-0.1-0.2c0-0.3,0.3-0.6,0.5-0.8c0.1-0.1,0.2-0.2,0.2-0.2c0.2-0.3,0.3-0.4,0.3-0.7
				c0-0.2-0.2-0.4-0.3-0.4l0,0c0.2,0,0.4,0.2,0.4,0.4c0,0.3-0.1,0.4-0.3,0.7c-0.1,0.1-0.1,0.1-0.2,0.2c-0.2,0.2-0.5,0.5-0.5,0.8
				C27.2,12.4,27.3,12.4,27.3,12.5L27.3,12.5z"/>
		</g>
		<path class="st5" d="M27.3,12.4c0-0.1,0-0.1,0.1-0.1c0.1,0,0.1,0.1,0.1,0.1c0,0.1-0.1,0.1-0.1,0.1C27.4,12.6,27.3,12.5,27.3,12.4
			L27.3,12.4z"/>
		<g>
			<path class="st5" d="M27.4,12.6c-0.1,0-0.1-0.1-0.1-0.1c0-0.2,0.2-0.2,0.2,0C27.6,12.5,27.5,12.6,27.4,12.6L27.4,12.6z
				 M27.4,12.3c-0.1,0-0.1,0.1-0.1,0.1c0,0.1,0.2,0.1,0.2,0C27.6,12.4,27.5,12.3,27.4,12.3L27.4,12.3z"/>
		</g>
		<g>
			<polygon class="st6" points="27.2,12.3 27.2,12.2 27.2,12.1 27.3,11.9 28.2,10.8 28.2,10.7 28.2,10.5 28.2,10.5 28.3,10.5 
				28.2,10.9 28.1,11.1 27.3,12 27.2,12.1 27.2,12.3 			"/>
		</g>
		<g>
			<path class="st6" d="M27.7,12.7L27.7,12.7c0-0.1,0-0.2-0.1-0.3c0-0.1-0.1-0.1-0.1-0.1c0.1,0,0.1,0,0.2,0
				C27.7,12.4,27.8,12.5,27.7,12.7L27.7,12.7z"/>
		</g>
		<g>
			<path class="st6" d="M27.3,12.9c0,0-0.1,0-0.1,0c-0.1,0-0.1-0.1-0.2-0.1l0,0C27.1,12.8,27.2,12.8,27.3,12.9c0,0,0.1,0,0.2-0.1
				C27.5,12.9,27.4,12.9,27.3,12.9L27.3,12.9z"/>
		</g>
		<g>
			<path class="st6" d="M27.4,11.4L27.4,11.4c0.1-0.2,0.2-0.3,0.3-0.4c0.1-0.2,0.3-0.3,0.3-0.6c0-0.3-0.2-0.5-0.4-0.5v0
				c0.2,0,0.4,0.3,0.4,0.5c0,0.3-0.2,0.5-0.3,0.6C27.6,11.1,27.5,11.2,27.4,11.4L27.4,11.4L27.4,11.4z"/>
		</g>
		<g>
			<path class="st6" d="M27.2,10.9c0.2-0.2,0.4-0.4,0.4-0.7c0-0.2,0-0.3-0.1-0.4c-0.1-0.1-0.1-0.1-0.2-0.2c0,0,0,0,0,0c0,0,0,0,0,0
				c0.1,0,0.2,0.1,0.2,0.2c0.1,0.1,0.1,0.3,0.1,0.5C27.6,10.6,27.4,10.8,27.2,10.9L27.2,10.9z"/>
		</g>
		<g>
			<path class="st5" d="M27.1,10.9L27.1,10.9L27.1,10.9C27.1,10.9,27.1,10.9,27.1,10.9L27.1,10.9C27.1,10.9,27.1,10.9,27.1,10.9
				l0.2-0.1l0,0c0,0,0,0,0.1-0.1c0,0,0,0,0-0.1c0,0,0,0,0,0.1c0,0,0,0.1-0.1,0.1c0,0,0,0,0,0C27.1,10.9,27.1,10.9,27.1,10.9
				C27.1,10.9,27.1,10.9,27.1,10.9L27.1,10.9z"/>
		</g>
		<g>
			<path class="st6" d="M26.7,10.6c0.1-0.2,0.2-0.2,0.2-0.4c0-0.1,0-0.3-0.1-0.5c0,0,0,0,0,0c0,0,0,0,0,0c0,0,0,0,0,0c0,0,0,0,0,0.1
				C27,9.8,27,10.1,27,10.2C26.9,10.4,26.9,10.5,26.7,10.6L26.7,10.6z"/>
		</g>
		<g>
			<path class="st5" d="M26.6,10.6C26.6,10.6,26.6,10.6,26.6,10.6L26.6,10.6C26.7,10.6,26.7,10.6,26.6,10.6c0.1-0.1,0.1-0.2,0.2-0.2
				c0,0,0,0,0-0.1c0,0,0,0,0,0.1c0,0,0,0.1-0.1,0.1C26.7,10.6,26.7,10.6,26.6,10.6C26.6,10.6,26.6,10.6,26.6,10.6
				C26.6,10.6,26.6,10.6,26.6,10.6L26.6,10.6z"/>
		</g>
		<g>
			<path class="st6" d="M26.2,10.6c0.1-0.1,0.2-0.3,0.3-0.4c0.1-0.3,0-0.5-0.2-0.6c0,0,0,0,0,0c0,0,0,0,0,0c0.2,0.1,0.3,0.4,0.2,0.7
				C26.5,10.4,26.4,10.5,26.2,10.6L26.2,10.6z"/>
		</g>
		<g>
			<path class="st5" d="M26.2,10.6C26.2,10.6,26.2,10.6,26.2,10.6C26.2,10.6,26.2,10.6,26.2,10.6C26.1,10.6,26.1,10.6,26.2,10.6
				L26.2,10.6C26.2,10.5,26.2,10.5,26.2,10.6c0.1-0.1,0.1-0.1,0.1-0.1c0,0,0,0,0,0l0.1-0.1l0,0l0-0.1l0,0c0,0,0,0,0,0l0,0l0,0
				c0,0,0,0,0,0l0,0.1c0,0.1,0,0.1,0,0.1l0,0.1c0,0,0,0,0,0.1C26.3,10.5,26.3,10.5,26.2,10.6C26.2,10.6,26.2,10.6,26.2,10.6
				C26.2,10.6,26.2,10.6,26.2,10.6L26.2,10.6z"/>
		</g>
		<g>
			<path class="st6" d="M25.1,10.9c0.2-0.1,0.4-0.2,0.6-0.3c0.3-0.2,0.5-0.4,0.4-0.7c0-0.1-0.1-0.1-0.2-0.2l0,0
				c0.1,0.1,0.1,0.1,0.2,0.2c0.1,0.3-0.1,0.6-0.4,0.8C25.6,10.8,25.4,10.9,25.1,10.9L25.1,10.9z"/>
		</g>
		<g>
			<path class="st6" d="M25.7,10.4c-0.1,0-0.2,0-0.2-0.1c0,0,0-0.1-0.1-0.1c0,0,0.1,0,0.1,0.1C25.6,10.3,25.7,10.3,25.7,10.4
				L25.7,10.4L25.7,10.4z"/>
		</g>
		<g>
			<path class="st6" d="M24.4,10.6c0,0-0.1,0-0.1-0.1c-0.1-0.1-0.1-0.2-0.1-0.3c0,0,0-0.1,0.1-0.2c0.1-0.2,0.2-0.4,0.2-0.6
				c0-0.4-0.1-0.6-0.4-0.7c0.3,0.1,0.4,0.3,0.4,0.7c0,0.2-0.1,0.4-0.2,0.6c0,0.1-0.1,0.1-0.1,0.2c0,0.1,0,0.2,0.1,0.3
				C24.3,10.5,24.3,10.5,24.4,10.6L24.4,10.6L24.4,10.6z"/>
		</g>
		<g>
			<path class="st6" d="M24.2,10.3L24.2,10.3l0-0.2l0.2-0.5l0-0.3c0,0,0,0,0,0c0,0,0,0,0,0l0,0.2l-0.2,0.5L24.2,10.3L24.2,10.3
				L24.2,10.3z"/>
		</g>
		<g>
			<path class="st6" d="M27.7,14c-0.1,0-0.1,0-0.2,0c-0.2-0.1-0.3-0.1-0.5-0.3C27,13.6,27,13.6,27,13.5c0,0,0,0,0,0c0,0,0,0,0,0
				c0,0,0,0.1,0.1,0.1c0.1,0.1,0.3,0.2,0.5,0.3c0.1,0,0.3,0,0.4-0.1C27.9,13.9,27.8,14,27.7,14L27.7,14z"/>
		</g>
		<g>
			<path class="st5" d="M27.8,13.8C27.7,13.8,27.7,13.8,27.8,13.8c-0.1,0-0.1,0-0.2,0c0,0,0,0-0.1,0l0,0l0,0c0,0,0,0,0.1,0
				C27.6,13.7,27.6,13.7,27.8,13.8C27.7,13.8,27.7,13.8,27.8,13.8C27.8,13.8,27.8,13.8,27.8,13.8c0.1,0,0.1,0,0.1,0c0,0,0,0,0.1,0
				l0.1,0v0l0.1,0l0,0L28,13.7c0,0,0,0-0.1,0C27.9,13.8,27.9,13.8,27.8,13.8C27.8,13.8,27.8,13.8,27.8,13.8L27.8,13.8z"/>
		</g>
		<g>
			<path class="st5" d="M28,14.2L28,14.2L28,14.2C28,14.2,28.1,14.2,28,14.2c0.1-0.1,0.1-0.1,0.1-0.1c0,0,0,0,0.1-0.1c0,0,0,0,0-0.1
				c0-0.1,0-0.1,0.1-0.1c0,0,0,0,0-0.1l0-0.1l0,0.1c0,0,0,0,0,0.1c0,0,0,0,0,0.1c0,0,0,0.1-0.1,0.1c0,0,0,0-0.1,0.1
				C28.1,14.1,28.1,14.1,28,14.2C28.1,14.2,28.1,14.2,28,14.2L28,14.2z"/>
		</g>
		<g>
			<path class="st0" d="M27.2,14.9C27.2,14.9,27.2,14.9,27.2,14.9C27.2,15,27.2,15,27.2,14.9c0.1,0,0.1,0.1,0.2,0.1L27.2,14.9z"/>
		</g>
		<g>
			<path class="st5" d="M27.2,15.9C27.2,15.9,27.2,15.9,27.2,15.9C27.2,15.9,27.2,15.9,27.2,15.9l0.2-0.2l0,0.1L27.2,15.9
				C27.2,15.9,27.2,15.9,27.2,15.9L27.2,15.9z"/>
		</g>
		<g>
			<path class="st5" d="M27.2,16C27.2,16,27.2,16,27.2,16C27.2,16,27.2,16,27.2,16l0.2-0.3L27.2,16C27.2,16,27.2,16,27.2,16L27.2,16
				z"/>
		</g>
		<g>
			<path class="st5" d="M27.3,17.8L27.3,17.8c-0.1,0-0.1-0.1-0.1-0.1c0,0,0,0-0.1-0.1c0,0,0-0.1-0.1-0.1c0,0,0,0,0,0c0,0,0,0,0,0
				c0,0,0,0.1,0.1,0.1c0,0,0,0,0.1,0.1C27.2,17.7,27.3,17.8,27.3,17.8L27.3,17.8L27.3,17.8z"/>
		</g>
		<path class="st5" d="M27.3,19.4c0-0.1,0-0.2,0.1-0.2c0.1,0,0.2,0,0.2,0.1c0,0.1,0,0.2-0.1,0.2C27.4,19.5,27.3,19.5,27.3,19.4
			L27.3,19.4z"/>
		<g>
			<path class="st5" d="M27.4,19.5c-0.1,0-0.1-0.1-0.2-0.2c0-0.1,0-0.2,0.1-0.2c0.1,0,0.2,0.1,0.2,0.1
				C27.6,19.4,27.5,19.5,27.4,19.5L27.4,19.5L27.4,19.5z M27.4,19.1c-0.1,0-0.2,0.1-0.1,0.2c0,0.1,0.1,0.1,0.2,0.1v0l0,0
				c0.1,0,0.1-0.1,0.1-0.2C27.5,19.2,27.5,19.1,27.4,19.1L27.4,19.1z"/>
		</g>
		<g>
			<path class="st5" d="M28,17.7C28,17.7,28,17.6,28,17.7c-0.1-0.1-0.1-0.1-0.1-0.1l0-0.1l0,0l-0.1-0.1c0,0,0,0,0,0c0,0,0,0,0,0
				l0.1,0.2C27.9,17.6,27.9,17.6,28,17.7C28,17.6,28,17.6,28,17.7L28,17.7z"/>
		</g>
		<g>
			<path class="st5" d="M28.2,18.5C28.2,18.5,28.2,18.5,28.2,18.5c-0.1-0.1-0.1-0.1-0.1-0.1c0,0,0,0-0.1,0c0,0,0,0-0.1,0
				c0,0,0,0-0.1,0l0,0h0c0,0,0,0,0.1,0c0,0,0,0,0.1,0c0,0,0,0,0,0C28.1,18.5,28.1,18.5,28.2,18.5C28.2,18.5,28.2,18.5,28.2,18.5
				L28.2,18.5z"/>
		</g>
		<g>
			<path class="st6" d="M27.3,19.7C27.3,19.7,27.3,19.7,27.3,19.7c-0.2,0-0.4-0.1-0.4-0.2l0,0c0,0,0,0,0-0.1c0,0,0,0,0,0
				c0,0,0,0,0,0c0,0,0,0,0,0C27,19.5,27.2,19.6,27.3,19.7c0.3,0,0.3-0.3,0.3-0.3c0-0.2,0-0.2-0.1-0.3c0,0-0.1,0-0.1,0
				c0.1-0.1,0.1,0,0.1,0c0.1,0.1,0.2,0.1,0.2,0.3C27.7,19.4,27.7,19.7,27.3,19.7L27.3,19.7z"/>
		</g>
		<g>
			<polygon class="st6" points="27.3,19.7 27.3,19.6 27.5,19.6 27.6,19.5 27.6,19.3 27.7,19.4 27.6,19.5 27.6,19.6 27.5,19.6 
				27.3,19.7 			"/>
		</g>
		<g>
			<path class="st6" d="M16.4,18.5c0,0-0.1,0-0.1,0c-0.1,0-0.2-0.1-0.3-0.2c0-0.1-0.1-0.2,0-0.3c0,0.1,0,0.2,0.1,0.3
				c0,0.1,0.1,0.2,0.3,0.2c0.1,0,0.2,0,0.3,0l0,0C16.5,18.5,16.4,18.5,16.4,18.5L16.4,18.5z"/>
		</g>
		<g>
			<polygon class="st6" points="16.4,18.5 16.3,18.5 16.3,18.4 16.4,18.4 16.5,18.4 16.6,18.4 16.5,18.5 16.4,18.5 			"/>
		</g>
		<g>
			<path class="st6" d="M16.4,18.2c0,0-0.1,0-0.1,0c-0.1,0-0.1-0.1-0.1-0.2C16.2,18.1,16.3,18.1,16.4,18.2c0,0,0,0,0.1-0.1
				c0,0,0.1-0.1,0.1-0.1c0,0,0-0.1,0-0.1c-0.1-0.1-0.1-0.1-0.2-0.1l0,0c0,0,0,0,0,0c0,0,0,0,0,0c0.1,0,0.2,0.1,0.3,0.2
				c0,0,0,0.1,0,0.1c0,0.1,0,0.1-0.1,0.2C16.5,18.2,16.4,18.2,16.4,18.2L16.4,18.2z"/>
		</g>
		<path class="st5" d="M16.2,18c0-0.1,0.1-0.2,0.1-0.2c0.1,0,0.1,0.1,0.1,0.2c0,0.1-0.1,0.2-0.1,0.2C16.3,18.2,16.2,18.1,16.2,18
			L16.2,18z"/>
		<g>
			<path class="st5" d="M16.4,18.2c-0.1,0-0.1-0.1-0.1-0.2s0.1-0.2,0.1-0.2c0.1,0,0.1,0.1,0.1,0.2C16.5,18.1,16.4,18.2,16.4,18.2
				L16.4,18.2z M16.4,17.9c-0.1,0-0.1,0.1-0.1,0.2c0,0.1,0.1,0.2,0.1,0.2c0.1,0,0.1-0.1,0.1-0.2C16.5,17.9,16.4,17.9,16.4,17.9
				L16.4,17.9z"/>
		</g>
		<g>
			<path class="st6" d="M17,18.2L17,18.2c0.1-0.1,0.2-0.2,0.2-0.2c0.2-0.2,0.3-0.5,0.4-0.8c0.1-0.3,0-0.6,0-0.9
				c-0.1-0.5-0.5-0.9-0.8-0.9l0,0c0.4,0.1,0.7,0.5,0.8,1c0,0.2,0.1,0.6,0,0.9c-0.1,0.3-0.2,0.6-0.4,0.8C17.2,18.1,17.2,18.1,17,18.2
				L17,18.2L17,18.2z"/>
		</g>
		<g>
			<path class="st6" d="M16.7,16.1C16.7,16.1,16.6,16.1,16.7,16.1c-0.2,0-0.3-0.1-0.3-0.2c0,0,0-0.1,0-0.2c0,0.1,0.1,0.1,0.1,0.2
				C16.5,15.9,16.5,16,16.7,16.1c0,0,0.1-0.1,0.2-0.1c0.1-0.1,0.1-0.1,0.1-0.2c0,0,0,0,0-0.1l0,0c0,0,0,0.1,0,0.1
				c0,0.1,0,0.2-0.1,0.3C16.9,16.1,16.8,16.1,16.7,16.1L16.7,16.1z"/>
		</g>
		<g>
			<polygon class="st6" points="16.7,16.1 16.7,16 16.9,16 16.9,15.9 16.9,15.8 17,15.8 16.9,15.9 16.9,16 16.7,16.1 			"/>
		</g>
		<g>
			<path class="st0" d="M16.7,15.6C16.7,15.6,16.7,15.6,16.7,15.6c-0.1,0.1-0.1,0.1-0.1,0.1c0,0,0,0.1,0,0.1L16.7,15.6z"/>
		</g>
		<g>
			<path class="st6" d="M16.7,17.8c0-0.1,0-0.1,0-0.2c0-0.1-0.1-0.3-0.2-0.3v0c0.2,0,0.3,0.1,0.3,0.3C16.8,17.7,16.7,17.8,16.7,17.8
				L16.7,17.8z"/>
		</g>
		<g>
			<path class="st6" d="M16.6,18c0-0.1,0.1-0.2,0.1-0.2c0-0.1-0.1-0.3-0.3-0.3v0c0.2,0,0.3,0.2,0.3,0.3C16.7,17.9,16.6,18,16.6,18
				L16.6,18z"/>
		</g>
		<g>
			<path class="st5" d="M16.9,17.7C16.9,17.7,16.9,17.7,16.9,17.7L16.9,17.7L16.9,17.7c0.1-0.1,0.1-0.1,0.1-0.1l0-0.1l0,0
				c0,0,0-0.1,0-0.1l0,0l0,0c0,0,0,0,0,0l0,0l-0.1,0.1l0,0l0,0.1l0,0C17,17.6,17,17.6,16.9,17.7L16.9,17.7
				C17,17.7,16.9,17.7,16.9,17.7C16.9,17.7,16.9,17.7,16.9,17.7L16.9,17.7z"/>
		</g>
		<g>
			<path class="st5" d="M16.7,18.6L16.7,18.6c0.1-0.1,0.1-0.1,0.1-0.1c0,0,0,0,0.1,0c0,0,0,0,0.1,0c0,0,0,0,0,0c0,0,0,0,0,0l0,0l0,0
				c0,0,0,0-0.1,0c0,0,0,0-0.1,0C16.8,18.5,16.8,18.5,16.7,18.6L16.7,18.6L16.7,18.6z"/>
		</g>
		<g>
			<path class="st5" d="M17.7,15.9L17.7,15.9L17.7,15.9l-0.1-0.1c0,0,0,0,0,0c0,0,0,0,0,0l0,0l0.1,0.1
				C17.7,15.8,17.7,15.8,17.7,15.9L17.7,15.9C17.8,15.9,17.8,15.9,17.7,15.9C17.7,15.9,17.7,15.9,17.7,15.9L17.7,15.9z"/>
		</g>
		<g>
			<path class="st6" d="M18.1,16.5c-0.1-0.2-0.2-0.4-0.3-0.5c0,0,0,0,0,0c0,0,0,0,0,0C17.9,16.1,18,16.3,18.1,16.5L18.1,16.5z"/>
		</g>
		<g>
			<path class="st6" d="M17.7,17.8c0.1-0.1,0.2-0.3,0.2-0.4c0-0.1,0.1-0.2,0.1-0.3c0,0,0,0,0,0c0,0,0,0,0,0c0,0.1-0.1,0.2-0.1,0.3
				C17.9,17.5,17.8,17.7,17.7,17.8L17.7,17.8z"/>
		</g>
		<g>
			<path class="st6" d="M17.8,16c0.1-0.1,0.2-0.2,0.2-0.4l0,0C18,15.8,17.9,15.9,17.8,16L17.8,16z"/>
		</g>
		<g>
			<path class="st6" d="M18.1,15.2c-0.1-0.1-0.2-0.2-0.3-0.3l0,0C17.9,15,18,15.1,18.1,15.2L18.1,15.2z"/>
		</g>
		<g>
			<path class="st0" d="M17.9,14c0,0,0.1,0.1,0.1,0.1L17.9,14z"/>
		</g>
		<g>
			<path class="st0" d="M17.8,14.9c0,0-0.1,0.1-0.1,0.1L17.8,14.9z"/>
		</g>
		<g>
			<path class="st0" d="M17.8,14.9C17.7,14.9,17.7,15,17.8,14.9C17.6,15,17.6,15,17.6,15L17.8,14.9z"/>
		</g>
		<g>
			<path class="st6" d="M17.8,14.9c0.1-0.1,0.2-0.2,0.2-0.4c0,0,0,0,0,0c0,0,0,0,0,0C18,14.7,17.9,14.8,17.8,14.9L17.8,14.9z"/>
		</g>
		<g>
			<path class="st0" d="M17.9,13.5C18,13.6,18,13.6,17.9,13.5L17.9,13.5z"/>
		</g>
		<g>
			<path class="st6" d="M17.3,14.4c-0.2,0-0.3,0-0.4-0.1c-0.2-0.1-0.3-0.3-0.3-0.4c0.1,0.1,0.2,0.3,0.3,0.4
				C17,14.3,17.1,14.3,17.3,14.4c0.3,0,0.5-0.2,0.6-0.3c0-0.1,0.1-0.1,0.1-0.2c0,0,0,0,0,0c0,0,0,0,0,0c0,0.1-0.1,0.1-0.1,0.2
				C17.8,14.2,17.6,14.4,17.3,14.4C17.3,14.4,17.3,14.4,17.3,14.4L17.3,14.4z"/>
		</g>
		<g>
			<path class="st5" d="M16.9,14.2C16.9,14.2,16.9,14.2,16.9,14.2c-0.1,0-0.1-0.1-0.2-0.1c0,0-0.1-0.1-0.1-0.1c0,0,0-0.1-0.1-0.1
				c0,0,0,0,0-0.1c0,0,0,0,0,0c0,0,0,0,0,0h0l0,0c0,0,0,0,0,0.1c0,0.1,0,0.1,0.1,0.1c0,0,0.1,0.1,0.1,0.1
				C16.8,14.1,16.8,14.1,16.9,14.2C16.9,14.2,16.9,14.2,16.9,14.2C16.9,14.2,16.9,14.2,16.9,14.2L16.9,14.2z"/>
		</g>
		<g>
			<path class="st6" d="M18.1,13c-0.1-0.1-0.1-0.2-0.2-0.2l0,0C18,12.8,18,12.9,18.1,13L18.1,13z"/>
		</g>
		<g>
			<path class="st6" d="M17.3,14c-0.1,0-0.3,0-0.4-0.1c0.1,0,0.3,0.1,0.5,0c0.4-0.1,0.6-0.4,0.6-0.5c0,0,0,0,0,0c0,0,0,0,0,0
				c0,0.1-0.2,0.5-0.6,0.6C17.4,14,17.3,14,17.3,14L17.3,14z"/>
		</g>
		<g>
			<path class="st5" d="M17.2,13.9C17.2,13.9,17.2,13.9,17.2,13.9c-0.1,0-0.1,0-0.1,0c0,0-0.1,0-0.1,0c0,0,0,0-0.1,0c0,0,0,0,0,0
				c0,0,0,0,0,0l0,0c0,0,0,0,0.1,0c0,0,0,0,0.1,0C17.1,13.9,17.2,13.9,17.2,13.9c0,0,0,0,0.1,0C17.3,13.9,17.3,13.9,17.2,13.9
				L17.2,13.9z"/>
		</g>
		<g>
			<path class="st6" d="M17.2,13.7C17.1,13.7,17.1,13.7,17.2,13.7c-0.2,0-0.4-0.1-0.4-0.4l0,0C16.8,13.5,16.9,13.6,17.2,13.7
				c0.1,0,0.2-0.1,0.3-0.3c0.1-0.2,0-0.4-0.1-0.6c0.2,0.2,0.2,0.4,0.1,0.6C17.4,13.6,17.3,13.7,17.2,13.7L17.2,13.7z"/>
		</g>
		<g>
			<path class="st6" d="M17.1,13.6C17.1,13.6,17.1,13.6,17.1,13.6C17.1,13.6,17.1,13.6,17.1,13.6l0.1-0.1l0.1-0.1l0.1-0.1l0.1-0.2
				l0,0.1l-0.1,0.2l-0.1,0.1L17.1,13.6C17.1,13.6,17.1,13.6,17.1,13.6L17.1,13.6z"/>
		</g>
		<path class="st5" d="M16.9,13.1c0-0.1,0.1-0.1,0.2-0.1c0.1,0,0.1,0.1,0.1,0.2c0,0.1-0.1,0.1-0.2,0.1C17,13.3,16.9,13.2,16.9,13.1
			L16.9,13.1z"/>
		<g>
			<path class="st5" d="M17.1,13.3L17.1,13.3c-0.1,0-0.1-0.1-0.1-0.2c0-0.1,0.1-0.1,0.1-0.1c0.1,0,0.1,0,0.1,0.1c0,0,0,0.1,0,0.1
				C17.2,13.3,17.1,13.3,17.1,13.3L17.1,13.3z M17.1,13.1c-0.1,0-0.1,0-0.1,0.1c0,0.1,0,0.1,0.1,0.2l0,0c0.1,0,0.1,0,0.1-0.1
				C17.2,13.2,17.2,13.1,17.1,13.1C17.2,13.1,17.1,13.1,17.1,13.1C17.1,13.1,17.1,13.1,17.1,13.1L17.1,13.1z"/>
		</g>
		<g>
			<polygon class="st5" points="16.2,13.9 16.2,13.9 16.3,13.5 16.5,13.3 16.7,13.2 16.8,13.1 16.8,13.1 16.7,13.2 16.5,13.3 
				16.4,13.5 16.2,13.9 			"/>
		</g>
		<g>
			<path class="st5" d="M16.3,14.9c-0.1-0.1-0.1-0.1-0.1-0.2c-0.1-0.1-0.1-0.3-0.2-0.4c0,0,0-0.1,0-0.1c0-0.1,0-0.3,0-0.5
				c0-0.1,0-0.1,0.1-0.2c0-0.1,0.1-0.1,0.1-0.2c0-0.1,0.1-0.1,0.1-0.1c0,0,0.1-0.1,0.1-0.1c0.3-0.2,0.5-0.2,0.6-0.1l0,0
				c-0.1-0.1-0.4-0.1-0.6,0.1c0,0-0.1,0.1-0.1,0.1c0,0-0.1,0.1-0.1,0.1c0,0-0.1,0.1-0.1,0.2c0,0.1,0,0.1-0.1,0.2
				C16,13.8,16,14,16,14.1c0,0.1,0,0.1,0,0.2c0,0.2,0.1,0.3,0.2,0.4C16.2,14.7,16.3,14.8,16.3,14.9L16.3,14.9z"/>
		</g>
		<path class="st5" d="M16.9,14.8c0-0.1,0.1-0.1,0.1-0.1s0.1,0.1,0.1,0.1c0,0.1-0.1,0.1-0.1,0.1S16.9,14.9,16.9,14.8L16.9,14.8z"/>
		<g>
			<path class="st6" d="M16.6,15.3c-0.2,0-0.3-0.1-0.4-0.2C16.1,15.1,16,15,16,15c0,0,0,0,0,0c0,0,0,0,0,0c0,0.1,0.1,0.1,0.2,0.2
				C16.3,15.2,16.5,15.3,16.6,15.3L16.6,15.3z"/>
		</g>
		<g>
			<path class="st6" d="M17,15.4C17,15.4,16.9,15.4,17,15.4C16.9,15.4,17,15.4,17,15.4c0.1-0.1,0.3-0.1,0.3-0.2
				c0.1-0.1,0.1-0.2,0.1-0.3c0-0.2-0.2-0.3-0.3-0.3c0.1,0,0.3,0.1,0.4,0.3c0,0.1,0,0.3-0.1,0.4C17.3,15.3,17.1,15.4,17,15.4L17,15.4
				L17,15.4z"/>
		</g>
		<g>
			<polygon class="st6" points="16.9,15.4 17.3,15.2 17.3,15.1 17.4,14.9 17.4,14.9 17.4,15.2 17.3,15.3 17.1,15.4 16.9,15.4 			"/>
		</g>
		<g>
			<path class="st6" d="M17.7,12.9c-0.1,0-0.2,0-0.3-0.1c0.1,0,0.3,0.1,0.4,0c0.1-0.1,0.2-0.2,0.3-0.3l0,0c0,0.1-0.1,0.2-0.3,0.3
				C17.7,12.9,17.7,12.9,17.7,12.9L17.7,12.9z"/>
		</g>
		<g>
			<polygon class="st6" points="17.7,12.9 17.6,12.9 17.7,12.9 17.8,12.8 18,12.6 18,12.5 18.1,12.5 18,12.7 17.8,12.9 17.7,12.9 
							"/>
		</g>
		<g>
			<path class="st6" d="M17.7,12.5c0-0.1-0.1-0.1-0.1-0.1c0,0-0.1,0-0.1,0v0c0.1,0,0.1,0,0.2,0.1C17.7,12.4,17.7,12.4,17.7,12.5
				L17.7,12.5z"/>
		</g>
		<g>
			<path class="st6" d="M17.5,12.6C17.5,12.6,17.5,12.6,17.5,12.6c0.1,0,0.1-0.1,0.2-0.2c0,0,0,0,0,0c0,0,0,0,0,0
				C17.7,12.5,17.7,12.6,17.5,12.6L17.5,12.6z"/>
		</g>
		<path class="st5" d="M17.3,12.4c0-0.1,0.1-0.1,0.1-0.1c0.1,0,0.1,0.1,0.1,0.1c0,0.1-0.1,0.1-0.1,0.1
			C17.4,12.6,17.3,12.5,17.3,12.4L17.3,12.4z"/>
		<g>
			<path class="st5" d="M17.5,12.6c-0.1,0-0.1-0.1-0.1-0.2c0-0.2,0.3-0.2,0.3,0C17.6,12.5,17.6,12.6,17.5,12.6L17.5,12.6z
				 M17.5,12.3c-0.1,0-0.1,0.1-0.1,0.1c0,0.2,0.3,0.2,0.3,0C17.6,12.4,17.5,12.3,17.5,12.3L17.5,12.3z"/>
		</g>
		<g>
			<path class="st0" d="M17.6,12.4L17.6,12.4L17.6,12.4z"/>
		</g>
		<g>
			<path class="st6" d="M17.8,10.9c-0.2-0.1-0.3-0.2-0.4-0.4c0,0,0,0,0,0c0,0,0,0,0,0C17.5,10.6,17.6,10.8,17.8,10.9L17.8,10.9z"/>
		</g>
		<g>
			<path class="st5" d="M17.8,11C17.8,11,17.8,11,17.8,11L17.8,11c-0.1,0-0.1-0.1-0.2-0.1c-0.1,0-0.1-0.1-0.1-0.1
				c0,0-0.1-0.1-0.1-0.1c0,0,0,0,0-0.1c0,0,0,0,0,0c0,0,0.1,0.1,0.1,0.1c0,0,0.1,0.1,0.1,0.1C17.7,10.9,17.8,10.9,17.8,11L17.8,11
				C17.9,11,17.9,11,17.8,11L17.8,11L17.8,11z"/>
		</g>
		<g>
			<path class="st5" d="M18.3,10.7C18.3,10.7,18.2,10.6,18.3,10.7c-0.1-0.1-0.2-0.1-0.2-0.1c0,0-0.1-0.1-0.1-0.1c0,0,0-0.1,0-0.1
				c0,0,0,0,0,0c0,0,0,0,0,0l0,0c0,0,0,0.1,0,0.1c0,0.1,0.1,0.1,0.1,0.1C18.2,10.6,18.2,10.6,18.3,10.7
				C18.3,10.6,18.3,10.6,18.3,10.7L18.3,10.7z"/>
		</g>
		<g>
			<path class="st5" d="M18.7,10.6C18.7,10.6,18.6,10.6,18.7,10.6c-0.1-0.1-0.2-0.1-0.2-0.1c0,0,0-0.1-0.1-0.1c0,0,0,0,0-0.1
				c0,0,0,0,0,0c0,0,0,0,0,0l0,0c0,0,0,0,0,0.1c0,0,0,0.1,0.1,0.1C18.6,10.5,18.6,10.5,18.7,10.6C18.6,10.6,18.7,10.6,18.7,10.6
				L18.7,10.6L18.7,10.6z"/>
		</g>
		<path class="st5" d="M19,10.1c0-0.1,0-0.1,0.1-0.1c0.1,0,0.1,0.1,0.1,0.1c0,0.1,0,0.1-0.1,0.1C19.1,10.2,19.1,10.2,19,10.1
			L19,10.1z"/>
		<g>
			<path class="st6" d="M27.8,13.7c-0.1,0-0.3-0.1-0.3-0.2C27.6,13.5,27.7,13.6,27.8,13.7c0.2-0.1,0.3-0.2,0.3-0.2
				c0-0.1,0-0.2,0-0.3c0,0,0,0,0,0c0,0,0,0,0,0c0.1,0.1,0.1,0.2,0,0.4C28.1,13.6,28,13.6,27.8,13.7C27.9,13.7,27.8,13.7,27.8,13.7
				L27.8,13.7z"/>
		</g>
		<g>
			<path class="st6" d="M16.8,15.1C16.8,15.1,16.8,15.1,16.8,15.1c-0.3,0-0.5-0.2-0.6-0.4c-0.1-0.1-0.1-0.3-0.2-0.4c0,0,0-0.1,0-0.1
				l0-0.1c0-0.1,0-0.3,0-0.5c0-0.1,0-0.1,0.1-0.2c0-0.1,0.1-0.1,0.1-0.2c0-0.1,0.1-0.1,0.1-0.1c0,0,0.1-0.1,0.1-0.1
				c0.3-0.2,0.6-0.2,0.7,0l0,0c-0.1-0.1-0.4-0.2-0.7,0c0,0-0.1,0.1-0.1,0.1c0,0-0.1,0.1-0.1,0.1c0,0-0.1,0.1-0.1,0.2
				c0,0.1,0,0.1-0.1,0.2C16,13.8,16,14,16,14l0,0.1c0,0,0,0.1,0,0.1c0,0.2,0.1,0.3,0.2,0.4C16.3,14.9,16.5,15,16.8,15.1
				c0,0,0.2-0.1,0.2-0.1c0,0,0.1-0.1,0.1-0.1c0,0.1,0,0.1,0,0.2C17,15.1,16.9,15.1,16.8,15.1L16.8,15.1z"/>
		</g>
		<g>
			<path class="st6" d="M24.7,11C24.7,11,24.7,11,24.7,11c-0.6,0-1.1-0.3-1.4-0.5l-0.1-0.1c-0.1,0-0.1,0-0.2,0c0,0,0,0.1,0,0.2
				c-0.1,0-0.1-0.1,0-0.2c0-0.1,0.1-0.1,0.2,0l0.1,0.1C23.7,10.6,24.1,10.9,24.7,11c0.4-0.1,0.7-0.1,1-0.3c0.3-0.2,0.5-0.4,0.4-0.7
				c0-0.1-0.1-0.2-0.2-0.2c-0.1,0-0.3,0-0.4,0.1c-0.1,0-0.1,0.1-0.1,0.1c0,0.1,0,0.2,0,0.3c0.1,0.1,0.2,0.1,0.3,0.1
				c0.1,0,0.1-0.1,0.1-0.1c0-0.1,0-0.1,0-0.2c0,0-0.1,0-0.1,0c0,0-0.1,0-0.1,0.1c0,0,0,0,0,0c0,0,0,0,0,0c0-0.1,0.1-0.1,0.1-0.1
				c0.1,0,0.1,0,0.1,0c0,0.1,0.1,0.1,0,0.2c0,0.1-0.1,0.2-0.2,0.2c-0.1,0-0.2,0-0.3-0.1c-0.1-0.1-0.1-0.2,0-0.3
				c0-0.1,0.1-0.1,0.1-0.2c0.1-0.1,0.3-0.1,0.4-0.1c0.1,0,0.2,0.1,0.3,0.2c0.1,0.3-0.1,0.6-0.4,0.8C25.5,10.9,25.1,11,24.7,11
				L24.7,11z"/>
		</g>
		<g>
			<path class="st6" d="M25.7,10.4c0.1-0.1,0.1-0.1,0.1-0.2c0-0.1,0-0.1,0-0.2c0,0,0-0.1-0.1-0.1c0,0,0,0,0,0c0,0,0,0,0,0
				c0.1,0,0.1,0,0.1,0.1c0,0.1,0.1,0.1,0,0.2C25.9,10.3,25.8,10.3,25.7,10.4L25.7,10.4z"/>
		</g>
		<path class="st5" d="M23,10.6c0-0.1,0.1-0.1,0.1-0.1s0.1,0.1,0.1,0.1c0,0.1-0.1,0.1-0.1,0.1S23,10.6,23,10.6L23,10.6z"/>
		<path class="st5" d="M25.6,10.1c0-0.1,0.1-0.1,0.1-0.1s0.1,0.1,0.1,0.1c0,0.1-0.1,0.1-0.1,0.1C25.7,10.2,25.6,10.1,25.6,10.1
			L25.6,10.1z"/>
		<g>
			<path class="st6" d="M22.1,11c0.1-0.1,0.2-0.2,0.2-0.3c0-0.1,0-0.2-0.2-0.3c0,0,0,0,0,0c0,0,0,0,0,0c0.1,0.1,0.2,0.2,0.2,0.4
				C22.3,10.8,22.2,10.8,22.1,11L22.1,11z"/>
		</g>
		<g>
			<polygon class="st6" points="27,12 26.9,10.9 27,10.9 27,12 			"/>
		</g>
		<g>
			<path class="st6" d="M22.1,10.9c0.1-0.1,0.1-0.1,0.1-0.2c0,0,0,0,0,0c0,0,0,0,0,0C22.3,10.8,22.2,10.9,22.1,10.9L22.1,10.9z"/>
		</g>
		<path class="st6" d="M23.5,9.7c0-0.1-0.1-0.1-0.2-0.1c-0.1,0-0.2,0.1-0.3,0.2c-0.2,0.1-0.3,0.1-0.5,0.1s-0.3,0-0.5-0.1
			c-0.2-0.1-0.2-0.2-0.3-0.2c-0.1,0-0.2,0.1-0.2,0.2c0,0,0,0,0,0.1c0,0,0,0,0,0c0-0.1,0-0.1,0-0.1c0,0,0.1-0.1,0.1-0.1
			c0.1,0,0.2,0.1,0.3,0.2c0.2,0.1,0.3,0.1,0.5,0.1c0.2,0,0.3,0,0.5-0.1c0.2-0.1,0.2-0.2,0.3-0.2C23.4,9.6,23.4,9.6,23.5,9.7
			C23.4,9.7,23.4,9.7,23.5,9.7C23.4,9.7,23.4,9.7,23.5,9.7C23.4,9.7,23.5,9.7,23.5,9.7L23.5,9.7z"/>
		<g>
			<path class="st6" d="M22.5,9.9L22.5,9.9c-0.2,0-0.3,0-0.5-0.1c-0.1,0-0.1-0.1-0.1-0.1c-0.1,0-0.1-0.1-0.2-0.1c0,0-0.1,0-0.1,0.1
				c0,0,0,0.1,0,0.1l-0.1,0c0,0,0-0.1,0-0.1c0-0.1,0-0.1,0-0.1c0,0,0.1-0.1,0.1-0.1c0.1,0,0.1,0,0.2,0.1c0,0,0.1,0.1,0.1,0.1
				c0.2,0.1,0.3,0.1,0.5,0.1c0.2,0,0.3,0,0.5-0.1c0.1,0,0.1-0.1,0.1-0.1c0.1,0,0.1-0.1,0.2-0.1c0,0,0.2,0,0.2,0.2c0,0,0,0.1,0,0.1
				l0,0l-0.1,0l0-0.1c0,0,0-0.1-0.1-0.1c-0.1,0-0.1,0-0.2,0.1c0,0-0.1,0.1-0.2,0.1C22.8,9.9,22.7,9.9,22.5,9.9L22.5,9.9z M21.9,9.7
				c0,0,0.1,0.1,0.1,0.1c0.2,0.1,0.3,0.1,0.5,0.1c0.2,0,0.3,0,0.5-0.1c0.1,0,0.1-0.1,0.1-0.1c0.1,0,0.1-0.1,0.2-0.1c0,0,0.1,0,0.1,0
				c0-0.1-0.1-0.1-0.1-0.1c-0.1,0-0.1,0-0.2,0.1c0,0-0.1,0.1-0.1,0.1c-0.2,0.1-0.3,0.1-0.5,0.1C22.3,9.9,22.2,9.8,21.9,9.7
				C21.9,9.7,21.9,9.7,21.9,9.7L21.9,9.7z M21.7,9.5c0,0-0.1,0-0.1,0c0,0,0,0,0,0.1c0,0,0,0,0,0C21.6,9.6,21.6,9.6,21.7,9.5
				c0.1,0,0.1,0.1,0.2,0.1c0,0,0,0,0,0C21.8,9.6,21.7,9.5,21.7,9.5L21.7,9.5z"/>
		</g>
		<g>
			<path class="st6" d="M19.3,10.4c0.1-0.1,0.2-0.1,0.2-0.3c0,0,0,0,0,0C19.6,10.2,19.5,10.3,19.3,10.4L19.3,10.4z"/>
		</g>
		<g>
			<path class="st6" d="M16.6,14.8C16.5,14.8,16.5,14.8,16.6,14.8c-0.1,0-0.1-0.1-0.1-0.1c-0.1-0.1-0.1-0.3-0.2-0.4
				c0-0.2,0-0.4,0-0.5c0-0.2,0.1-0.3,0.2-0.4c0.1-0.1,0.2-0.2,0.4-0.3l0,0c-0.1,0-0.3,0.1-0.3,0.2c-0.1,0.1-0.1,0.2-0.2,0.4
				c0,0.1,0,0.3,0,0.5c0,0.1,0.1,0.3,0.2,0.4C16.5,14.7,16.5,14.8,16.6,14.8C16.6,14.8,16.6,14.8,16.6,14.8
				C16.6,14.8,16.6,14.8,16.6,14.8L16.6,14.8z"/>
		</g>
		<g>
			<path class="st6" d="M16.7,14.9c-0.1,0-0.1-0.1-0.2-0.1c0,0,0-0.1-0.1-0.1c-0.1-0.1-0.1-0.3-0.2-0.4c0-0.2,0-0.4,0-0.5
				c0-0.2,0.1-0.3,0.2-0.4c0.1-0.1,0.2-0.2,0.4-0.3l0,0c-0.2,0-0.3,0.1-0.4,0.3c-0.1,0.1-0.1,0.2-0.2,0.4c0,0.1,0,0.3,0,0.5
				c0,0.1,0.1,0.3,0.2,0.4c0,0,0,0.1,0.1,0.1c0.1,0.1,0.2,0.1,0.3,0.1C16.8,14.9,16.7,14.9,16.7,14.9L16.7,14.9z"/>
		</g>
		<g>
			<path class="st6" d="M16.3,13.8c0-0.2,0-0.3,0.1-0.5c0.1-0.1,0.1-0.1,0.2-0.2c0,0,0.1,0,0.1-0.1c0,0,0,0,0,0c0,0,0,0,0,0
				c0,0-0.1,0-0.1,0.1c-0.1,0-0.1,0.1-0.2,0.2C16.3,13.5,16.3,13.6,16.3,13.8L16.3,13.8z"/>
		</g>
		<g>
			<path class="st6" d="M27.3,14.9C27.2,14.9,27.2,14.9,27.3,14.9c-0.2-0.1-0.3-0.3-0.4-0.5c0-0.1,0-0.3,0.1-0.4c0,0,0,0,0,0
				c0,0,0,0,0,0c-0.1,0.1-0.1,0.3-0.1,0.4C27,14.6,27.1,14.8,27.3,14.9C27.2,14.9,27.3,14.9,27.3,14.9
				C27.3,14.9,27.3,14.9,27.3,14.9L27.3,14.9L27.3,14.9z"/>
		</g>
		<g>
			<path class="st6" d="M27.7,14.3C27.7,14.3,27.7,14.3,27.7,14.3c-0.3,0-0.5-0.1-0.7-0.3c-0.1-0.1-0.1-0.2-0.1-0.3
				c0-0.1,0-0.2,0.1-0.2l0,0c-0.1,0.1-0.1,0.1-0.1,0.2c0,0.1,0,0.2,0.1,0.3C27.2,14.2,27.4,14.3,27.7,14.3c0.2-0.1,0.3-0.1,0.4-0.2
				c0.2-0.1,0.2-0.3,0.3-0.4c0,0.1-0.1,0.3-0.2,0.4C28,14.3,27.9,14.3,27.7,14.3L27.7,14.3z"/>
		</g>
		<path class="st5" d="M26.9,18.2c0,0,0,0.1,0,0.2c0,0.2-0.1,0.3-0.1,0.5c-0.1,0.2-0.2,0.3-0.3,0.4c-0.1,0.1-0.2,0.2-0.4,0.3
			c-0.2,0.1-0.3,0.1-0.5,0.2c-0.2,0-0.3,0.1-0.5,0.1c-0.2,0-0.3,0-0.5,0c-0.2,0-0.3,0-0.5-0.1c-0.2,0-0.2,0-0.4,0
			c-0.2,0-0.3,0-0.4,0c-0.1,0-0.2,0.1-0.4,0.1c-0.2,0.1-0.4,0.2-0.5,0.3c0-0.1-0.3-0.2-0.5-0.3c-0.1-0.1-0.2-0.1-0.4-0.1
			c-0.2,0-0.2,0-0.4,0c-0.2,0-0.2,0-0.4,0c-0.2,0-0.3,0-0.5,0.1c-0.2,0-0.3,0-0.5,0c-0.2,0-0.3,0-0.5-0.1c-0.2,0-0.3-0.1-0.5-0.2
			c-0.2-0.1-0.3-0.2-0.4-0.3c-0.1-0.1-0.2-0.2-0.3-0.4c-0.1-0.2-0.1-0.3-0.1-0.5c0-0.1,0-0.2,0-0.2l0,0v-7.3h8.8L26.9,18.2
			L26.9,18.2z"/>
		<g>
			<path class="st6" d="M22.5,20.2L22.5,20.2c-0.1-0.1-0.3-0.2-0.5-0.3c-0.1-0.1-0.2-0.1-0.4-0.1c-0.2,0-0.2,0-0.4,0
				c-0.1,0-0.2,0-0.3,0l-0.1,0c-0.1,0-0.2,0-0.2,0c-0.1,0-0.2,0-0.3,0c-0.2,0-0.3,0-0.5,0c-0.2,0-0.3,0-0.5-0.1
				c-0.2,0-0.3-0.1-0.5-0.2c-0.2-0.1-0.3-0.2-0.4-0.3c-0.1-0.1-0.2-0.2-0.3-0.4c-0.1-0.2-0.1-0.3-0.2-0.5c0-0.1,0-0.2,0-0.2v-7.3
				l8.9,0l0,7.3c0,0,0,0.1,0,0.2c0,0.2-0.1,0.3-0.2,0.5c-0.1,0.2-0.2,0.3-0.3,0.4c-0.1,0.1-0.2,0.2-0.4,0.3
				c-0.2,0.1-0.3,0.1-0.5,0.2c-0.2,0-0.3,0.1-0.5,0.1c-0.2,0-0.3,0-0.4,0c-0.1,0-0.2,0-0.3,0c-0.1,0-0.1,0-0.2,0l-0.1,0
				c-0.1,0-0.2,0-0.3,0c-0.2,0-0.3,0-0.4,0c-0.1,0-0.2,0-0.4,0.1C22.7,20,22.5,20.1,22.5,20.2L22.5,20.2L22.5,20.2z M21.2,19.7
				c0.2,0,0.3,0,0.4,0c0.1,0,0.2,0,0.4,0.1c0.2,0.1,0.4,0.2,0.5,0.3c0.1-0.1,0.3-0.2,0.5-0.3c0.1-0.1,0.2-0.1,0.4-0.1
				c0.2,0,0.3,0,0.4,0c0.1,0,0.2,0,0.3,0l0.1,0c0.1,0,0.2,0,0.2,0c0.1,0,0.2,0,0.3,0c0.2,0,0.3,0,0.5,0c0.2,0,0.3,0,0.5-0.1
				c0.2,0,0.3-0.1,0.5-0.2c0.2-0.1,0.3-0.2,0.4-0.3c0.1-0.1,0.2-0.2,0.3-0.4c0.1-0.2,0.1-0.3,0.1-0.5c0-0.1,0-0.2,0-0.2v-7.3L18,11
				l0,7.3c0,0,0,0.1,0,0.2c0,0.2,0.1,0.3,0.1,0.5c0.1,0.2,0.2,0.3,0.3,0.4c0.1,0.1,0.2,0.2,0.4,0.3c0.2,0.1,0.3,0.1,0.5,0.2
				c0.2,0,0.3,0,0.5,0.1c0.2,0,0.3,0,0.4,0c0.1,0,0.2,0,0.3,0c0.1,0,0.1,0,0.2,0l0.1,0C21,19.7,21.1,19.7,21.2,19.7L21.2,19.7z"/>
		</g>
		<rect x="18.5" y="11.4" class="st1" width="3.8" height="3.8"/>
		<g>
			<path class="st6" d="M22.3,15.2h-3.8l0-3.8l3.8,0L22.3,15.2L22.3,15.2z M22.2,11.4l-3.8,0l0,3.8l3.7,0V11.4L22.2,11.4z"/>
		</g>
		<path class="st7" d="M20.8,14.3l-0.1,0l-0.2,0l0,0.1c0,0,0,0.1,0,0.2c0,0.1,0,0.1,0.1,0.2c0.1,0.1,0.1,0.1,0.2,0.2
			C20.9,15,21,15,21.1,15c0.3,0,0.4-0.3,0.4-0.5c0.1-0.2,0.2-0.4,0.3-0.3c0.1,0,0.1,0.1,0,0.2c-0.1,0.1-0.2,0.1-0.2,0.1l0.1,0.2
			c0,0,0.3,0,0.3-0.3c0-0.1,0-0.3-0.2-0.4c-0.2,0-0.4,0.1-0.5,0.2c-0.1,0.2-0.2,0.6-0.5,0.5c-0.2,0-0.2-0.3-0.2-0.4L20.8,14.3z"/>
		<path class="st7" d="M20.3,14.3c0,0,0,0.1,0,0.2c0,0.1,0,0.1-0.1,0.2c-0.1,0.1-0.1,0.1-0.2,0.2C19.9,15,19.8,15,19.7,15
			c-0.3,0-0.4-0.3-0.4-0.5c-0.1-0.2-0.2-0.4-0.3-0.3c-0.1,0-0.1,0.1,0,0.2c0.1,0.1,0.2,0.1,0.2,0.1L19,14.7c0,0-0.3,0-0.3-0.3
			c0-0.1,0-0.3,0.2-0.4c0.2-0.1,0.4,0.1,0.5,0.2c0.1,0.2,0.1,0.6,0.4,0.5c0.2,0,0.2-0.3,0.2-0.4l0.1-0.1L20.3,14.3L20.3,14.3z"/>
		<path class="st8" d="M20.7,12.7l0.5-0.5c0,0,0.1-0.1,0.1-0.2l-0.1,0l0-0.1l0-0.1l0.1,0c0,0,0,0,0-0.1c0,0,0,0,0-0.1l-0.1,0
			c0,0,0,0,0-0.1c0,0,0,0,0,0c0,0,0.1,0,0.1,0c0,0,0,0,0.1,0c0.1-0.2,0.4-0.3,0.7,0c0.2,0.2,0.1,0.5-0.1,0.6c-0.1,0-0.2,0-0.3-0.1
			l0.1-0.2c0.1,0.1,0.2,0,0.2-0.1c0-0.1-0.1-0.2-0.2-0.2c-0.1,0-0.2,0.1-0.2,0.1c0,0.1,0,0.1,0,0.2c0,0.1,0,0.1,0,0.2
			c0,0,0,0.1-0.1,0.2l-0.5,0.5l-2,2.1l-0.1-0.1L20.7,12.7z"/>
		<path class="st7" d="M19.3,12.9c0,0,0.1,0.6,0.5,1.5c0.2-0.1,0.3-0.1,0.6-0.1c0.2,0,0.4,0,0.6,0.1c0.4-0.9,0.5-1.5,0.5-1.5
			l-1.1-1.4L19.3,12.9z"/>
		<path class="st8" d="M20.5,12l0.8,1c0,0-0.1,0.5-0.4,1.2c-0.1,0-0.2-0.1-0.4-0.1V12z"/>
		<path class="st8" d="M20.3,12l-0.8,1c0,0,0.1,0.5,0.4,1.2c0.1,0,0.2-0.1,0.4-0.1V12z"/>
		<rect x="22.7" y="11.4" class="st8" width="3.8" height="3.8"/>
		<g>
			<path class="st6" d="M26.5,15.2h-3.8l0-3.8l3.8,0L26.5,15.2L26.5,15.2z M26.4,11.4l-3.8,0l0,3.8l3.7,0V11.4L26.4,11.4z"/>
		</g>
		<path class="st8" d="M26.4,18.4c0,0.1,0,0.2-0.1,0.3c-0.1,0.1,0,0.1-0.2,0.3c-0.1,0.1-0.2,0.2-0.3,0.2c-0.1,0-0.2,0.1-0.3,0.1
			c-0.3,0.1-0.5,0.1-0.8,0.1c-0.2,0-0.4,0-0.5,0c-0.2,0-0.3,0-0.5-0.1c-0.1,0-0.2,0-0.3,0c-0.1,0-0.2,0-0.3,0.1
			c-0.3,0-0.5,0.1-0.5,0.1l0-3.9h3.8v2.7C26.4,18.2,26.4,18.4,26.4,18.4L26.4,18.4z"/>
		<g>
			<path class="st6" d="M22.6,19.5L22.6,19.5l0-4l3.8,0l0,2.7c0,0,0,0.1,0,0.2c0,0.1,0,0.2-0.1,0.3l0,0.1c0,0,0,0.1-0.2,0.2
				c-0.1,0.1-0.2,0.1-0.3,0.2c-0.1,0.1-0.2,0.1-0.3,0.1c-0.3,0.1-0.5,0.1-0.8,0.1c-0.2,0-0.3,0-0.4,0c-0.2,0-0.3,0-0.5,0
				c-0.1,0-0.2,0-0.3,0c-0.1,0-0.2,0-0.3,0C22.9,19.4,22.7,19.5,22.6,19.5L22.6,19.5L22.6,19.5z M26.4,15.5l-3.8,0l0,3.9
				c0.1,0,0.3-0.1,0.5-0.1c0.1,0,0.2,0,0.3,0c0.1,0,0.2,0,0.3,0c0.2,0,0.3,0,0.5,0c0.2,0,0.3,0,0.5,0.1c0.3,0,0.5,0,0.8-0.1
				c0.2,0,0.2-0.1,0.3-0.1c0.1-0.1,0.2-0.1,0.3-0.2c0.1-0.1,0.1-0.2,0.1-0.2l0-0.1c0.1-0.1,0.1-0.2,0.1-0.3c0,0,0-0.2,0-0.2V15.5
				L26.4,15.5z"/>
		</g>
		<path class="st9" d="M23.7,16.6C23.6,16.6,23.6,16.6,23.7,16.6C23.6,16.6,23.6,16.6,23.7,16.6c0-0.1,0-0.1,0-0.1c0,0,0,0,0-0.1
			c0,0,0,0,0.1,0c0,0,0,0,0,0C23.8,16.5,23.7,16.5,23.7,16.6C23.7,16.6,23.7,16.6,23.7,16.6C23.7,16.6,23.7,16.6,23.7,16.6
			C23.8,16.7,23.7,16.7,23.7,16.6L23.7,16.6z"/>
		<path class="st9" d="M23.6,16.7C23.6,16.7,23.6,16.7,23.6,16.7C23.7,16.7,23.7,16.7,23.6,16.7C23.7,16.7,23.7,16.7,23.6,16.7
			C23.6,16.7,23.6,16.7,23.6,16.7L23.6,16.7z"/>
		<path class="st9" d="M23.5,15.9C23.5,15.9,23.5,15.9,23.5,15.9C23.5,15.9,23.5,15.9,23.5,15.9c0-0.1,0-0.1,0-0.1c0,0,0,0,0,0
			c0,0,0,0,0,0c0,0,0,0,0,0c0,0,0,0,0,0c0,0,0,0,0,0c0,0,0,0,0,0c0,0,0,0,0,0.1c0,0,0,0,0,0.1C23.6,15.8,23.6,15.8,23.5,15.9
			C23.6,15.9,23.6,15.9,23.5,15.9L23.5,15.9C23.6,15.9,23.6,15.9,23.5,15.9C23.6,15.9,23.5,15.9,23.5,15.9L23.5,15.9z"/>
		<path class="st1" d="M25.6,16.4c0,0,0,0.1,0,0.1c0,0.1,0,0.1,0,0.1c0,0,0,0,0,0.1c0,0.1,0.1,0.1,0,0.2c0,0.1,0,0.1,0,0.1
			c0,0,0,0,0,0.1c0,0,0,0.1,0,0.2c0,0,0,0,0,0c0,0,0,0,0,0c0,0,0,0,0,0.1l0,0l-0.1,0l-0.1,0l0,0c0,0,0,0,0,0c0,0,0,0,0.1-0.1
			c0,0,0-0.1,0-0.1c0,0,0-0.1,0-0.1c0,0,0-0.1,0-0.1c0,0,0-0.1,0-0.1c0,0,0,0-0.1-0.1c0,0,0,0,0,0c0,0,0,0,0,0c0,0,0,0,0,0
			c0,0,0,0-0.1,0.1c-0.1,0.1-0.1,0.1-0.1,0.2c0,0,0,0.1,0,0.1c0,0,0,0,0,0c0,0,0,0,0,0c0,0,0,0,0,0l0,0l-0.1,0l-0.1,0l0,0
			c0,0,0.1,0,0.1,0c0,0,0,0,0,0c0,0,0,0,0,0c0,0,0,0,0,0c0,0,0,0,0-0.1c0,0,0,0,0-0.1c0,0,0,0,0,0c0,0,0,0,0,0c0,0,0,0,0,0
			c0,0,0,0,0,0c0,0,0,0,0,0c0,0,0,0,0,0c0,0,0,0,0,0c0,0,0,0,0,0c0,0,0,0,0,0c0,0,0,0,0,0c0,0,0,0,0,0c0,0,0,0,0,0c0,0,0,0,0,0
			c0,0,0,0,0,0c0,0,0,0,0,0c0,0,0,0,0,0c0,0,0,0,0,0c0,0-0.1,0-0.1-0.1c0,0,0,0,0,0c-0.2,0-0.3,0-0.4,0c0,0,0,0.1,0,0.1
			c0,0,0,0.1,0,0.1c0,0,0,0,0,0.1c0,0.1,0,0.1,0,0.1c0,0,0,0,0,0.1c0,0,0,0,0,0c0,0,0,0,0,0c0,0,0,0,0,0c0,0,0,0,0,0l0,0l-0.1,0
			l-0.1,0l0,0c0,0,0,0,0,0c0,0,0,0,0,0c0,0,0,0,0-0.1c0,0,0-0.1,0-0.1c0,0,0,0,0,0c0,0,0,0,0,0c0,0,0-0.1,0-0.2c0,0,0,0,0,0l0,0
			c0,0,0,0-0.1,0c0,0-0.1,0-0.1,0c0,0,0,0,0,0c0,0-0.1,0-0.1,0.1c0,0,0,0,0,0c0,0,0,0.1,0.1,0.1c0,0,0,0,0,0c0,0,0,0,0,0
			c0,0,0,0,0,0l0,0l0,0.1l0,0l0,0c0,0,0-0.1,0-0.1c0,0,0-0.1,0-0.1c0-0.1,0-0.1-0.1-0.1c0-0.1,0-0.1,0-0.1c0,0,0.1-0.1,0.1-0.1
			c0,0,0-0.1-0.1-0.1c0,0,0-0.1-0.1-0.2c0,0,0,0,0,0c0,0,0,0,0,0l-0.1,0c0,0,0,0,0,0c0,0,0,0,0,0c0,0,0,0,0,0c0,0,0,0,0,0
			c0,0,0,0-0.1,0c0,0,0,0-0.1,0c0,0-0.1,0-0.1,0c0,0,0,0-0.1,0c0,0,0,0,0,0c0,0,0-0.1,0-0.1c0,0,0,0,0,0c0,0,0,0,0,0c0,0,0,0,0,0
			c0,0,0,0,0,0c0,0,0,0,0-0.1c0,0,0,0,0,0c0,0,0,0,0,0c0,0,0,0,0-0.1c0,0,0,0,0,0c0,0,0,0,0.1,0c0,0,0,0,0,0c0,0,0,0,0,0
			c0.1,0,0.1,0,0.1,0c0,0,0.1,0.1,0.1,0.1c0,0,0,0,0,0c0,0,0,0,0.1,0c0,0,0,0,0,0c0,0,0,0,0,0c0,0,0,0,0,0c0,0,0,0,0,0
			c0,0,0,0-0.1,0l0.1,0c0,0,0.1,0,0.2,0c0.2,0,0.2,0,0.3-0.1c0.1,0,0.2,0,0.3,0c0.1,0,0.1,0,0.2,0c0.1,0,0.1,0,0.2,0
			c0.1,0,0.1,0,0.2,0c0.1,0,0.1,0,0.2,0c0,0,0.1,0,0.1,0.1c0,0,0,0,0,0c0,0,0,0,0,0c0,0,0,0,0,0c0,0,0,0,0,0.1
			C25.7,16.4,25.7,16.4,25.6,16.4C25.6,16.4,25.6,16.4,25.6,16.4L25.6,16.4z"/>
		<g>
			<path class="st8" d="M24.9,16.5L24.9,16.5c0,0-0.1,0-0.1,0L24.9,16.5c-0.1-0.1-0.1-0.1-0.1-0.1c0,0,0,0,0,0l0.1,0
				c0,0,0.1,0,0.1,0c0,0,0.1,0,0.1,0c0,0,0.1,0,0.4,0c0.1,0,0.2,0,0.3,0c0,0,0,0,0-0.1c0,0,0-0.1,0-0.1c0,0,0,0,0,0c0,0,0,0,0,0
				c0,0,0.1,0,0.1,0c0,0,0,0,0,0.1c0,0,0,0.1-0.1,0.1c-0.1,0-0.1,0-0.3,0c-0.2,0-0.3,0-0.4,0c0,0-0.1,0-0.1,0c0,0,0,0-0.1,0l-0.1,0
				c0.1,0,0.1,0,0.1,0l0,0.1C24.8,16.5,24.8,16.5,24.9,16.5C24.9,16.5,25,16.5,24.9,16.5L24.9,16.5L24.9,16.5
				C25,16.5,25,16.5,24.9,16.5c0.1,0,0.1-0.1,0.2-0.1c0,0,0,0,0.1,0c0.1,0,0.1,0,0.2,0c0.1,0,0.1,0,0.2,0c0.1,0,0.1,0,0.1,0
				c0,0,0,0,0,0c0,0,0,0,0,0l0,0c0,0-0.1,0-0.1,0c-0.1,0-0.1,0-0.2,0c0,0-0.1,0-0.2,0c0,0-0.1,0-0.1,0
				C25.1,16.5,25.1,16.5,24.9,16.5C25,16.5,25,16.5,24.9,16.5L24.9,16.5L24.9,16.5z"/>
		</g>
		<path class="st8" d="M23.6,16C23.6,16,23.6,16,23.6,16c-0.1,0-0.1,0-0.1,0.1C23.6,16.1,23.6,16.1,23.6,16
			C23.6,16.1,23.6,16.1,23.6,16C23.6,16.1,23.6,16.1,23.6,16L23.6,16z"/>
		<g>
			<path class="st0" d="M23.6,16C23.6,16,23.6,16,23.6,16c-0.1,0-0.1,0-0.1,0.1C23.6,16.1,23.6,16.1,23.6,16
				C23.6,16.1,23.6,16.1,23.6,16C23.6,16.1,23.6,16.1,23.6,16L23.6,16z"/>
		</g>
		<g>
			<path class="st8" d="M24.2,16.9L24.2,16.9L24.2,16.9L24.2,16.9c0-0.1,0-0.1,0-0.2c0,0,0,0,0-0.1c0,0,0,0,0,0c0,0,0,0,0,0l0,0
				c0,0,0,0,0,0.1c0,0,0,0,0,0.1L24.2,16.9C24.2,16.9,24.2,16.9,24.2,16.9L24.2,16.9L24.2,16.9C24.2,16.9,24.2,16.9,24.2,16.9
				L24.2,16.9z"/>
		</g>
		<g>
			<path class="st0" d="M24.5,16.6C24.5,16.6,24.5,16.6,24.5,16.6c0,0.1,0,0.2-0.1,0.2c0,0,0,0,0,0L24.5,16.6z"/>
		</g>
		<path class="st9" d="M23.7,16.4L23.7,16.4c0.2,0,0.2,0,0.3-0.1c0-0.1,0-0.1,0.1-0.2l-0.1,0l0,0c0,0.1,0,0.1-0.1,0.2
			C23.8,16.3,23.8,16.4,23.7,16.4L23.7,16.4z"/>
		<polygon class="st1" points="23.7,16.4 23.7,16.4 23.7,16.4 23.7,16.4 		"/>
		<path class="st9" d="M23.9,17.3C23.9,17.2,23.9,17.2,23.9,17.3c0.1-0.1,0.1-0.1,0.1-0.1c0,0,0,0,0,0c0,0,0,0,0,0.1
			C24,17.2,24,17.3,23.9,17.3C24,17.3,24,17.3,23.9,17.3C24,17.3,24,17.3,23.9,17.3C24,17.3,23.9,17.3,23.9,17.3L23.9,17.3z"/>
		<path class="st9" d="M25.4,17.3C25.5,17.4,25.5,17.4,25.4,17.3c0.1,0,0.1,0,0.1,0.1c0,0,0,0,0,0C25.5,17.4,25.5,17.4,25.4,17.3
			C25.5,17.4,25.5,17.4,25.4,17.3C25.4,17.4,25.4,17.4,25.4,17.3C25.4,17.4,25.4,17.4,25.4,17.3C25.4,17.4,25.4,17.4,25.4,17.3
			L25.4,17.3z"/>
		<path class="st9" d="M25,17.3C25,17.3,25,17.3,25,17.3c0.1,0,0.1,0.1,0.1,0.1c0,0,0,0,0,0C25.1,17.3,25.1,17.4,25,17.3
			C25,17.4,25,17.4,25,17.3C25,17.4,25,17.4,25,17.3C24.9,17.3,24.9,17.3,25,17.3C24.9,17.3,25,17.3,25,17.3L25,17.3z"/>
		<path class="st9" d="M24.2,17.3C24.2,17.4,24.2,17.4,24.2,17.3c0.1,0,0.1,0.1,0.1,0.1c0,0,0,0,0,0c0,0,0,0-0.1,0c0,0,0,0-0.1,0
			C24.2,17.4,24.2,17.4,24.2,17.3C24.1,17.4,24.1,17.4,24.2,17.3C24.2,17.4,24.2,17.4,24.2,17.3L24.2,17.3z"/>
		<path class="st9" d="M23.8,16C23.8,16,23.7,15.9,23.8,16C23.8,15.9,23.8,15.9,23.8,16c0-0.1,0-0.1,0-0.1s0,0,0,0c0,0,0,0,0,0
			c0,0,0-0.1,0-0.1c0,0,0,0,0,0c0,0,0,0,0,0c0,0,0,0,0,0.1c0,0,0,0,0,0.1c0,0,0,0,0,0.1C23.9,15.9,23.9,15.9,23.8,16
			C23.9,15.9,23.9,16,23.8,16C23.8,16,23.8,16,23.8,16C23.8,16,23.8,16,23.8,16L23.8,16z"/>
		<g>
			<path class="st1" d="M23.6,16.4L23.6,16.4c-0.1,0-0.1,0-0.2,0h0l0,0c0,0,0,0,0.1,0L23.6,16.4C23.7,16.3,23.7,16.3,23.6,16.4
				l0.2-0.1L23.6,16.4L23.6,16.4C23.7,16.3,23.7,16.3,23.6,16.4L23.6,16.4z"/>
		</g>
		<g>
			<path class="st0" d="M23.9,16.8C23.9,16.8,23.9,16.8,23.9,16.8L23.9,16.8z"/>
		</g>
		<g>
			<path class="st0" d="M24,16.6c0,0,0,0.2,0.1,0.2L24,16.6z"/>
		</g>
		<g>
			<path class="st0" d="M25.3,16.9L25.3,16.9c0.1,0,0.1-0.1,0.1-0.1L25.3,16.9z"/>
		</g>
		<g>
			<path class="st8" d="M24.9,16.8C24.9,16.8,24.9,16.8,24.9,16.8C24.9,16.8,24.9,16.8,24.9,16.8c0.1,0,0.2-0.1,0.2-0.1
				c0.1,0,0.1,0,0.1-0.1c0,0-0.1,0-0.1,0.1C25.1,16.8,25,16.8,24.9,16.8L24.9,16.8L24.9,16.8z"/>
		</g>
		<g>
			<path class="st8" d="M25.5,16.9L25.5,16.9L25.5,16.9L25.5,16.9c-0.1-0.1-0.1-0.1-0.2-0.1c0,0,0,0-0.1-0.1c-0.1,0-0.1-0.1-0.1-0.1
				l0,0h0c0.1,0,0.1,0,0.1,0c0.1,0.1,0.1,0.1,0.1,0.1C25.4,16.8,25.4,16.8,25.5,16.9C25.4,16.8,25.5,16.8,25.5,16.9
				C25.5,16.9,25.5,16.9,25.5,16.9L25.5,16.9z"/>
		</g>
		<path class="st1" d="M25,16.6L25,16.6l0.2,0.1c0,0,0,0,0,0c0,0,0,0,0,0C25.1,16.6,25.1,16.6,25,16.6C25.1,16.6,25.1,16.6,25,16.6
			C25.1,16.6,25.1,16.6,25,16.6C25,16.6,25,16.6,25,16.6L25,16.6z"/>
		<path class="st1" d="M25.6,16.2C25.6,16.2,25.6,16.2,25.6,16.2C25.6,16.2,25.5,16.2,25.6,16.2L25.6,16.2L25.6,16.2
			C25.6,16.2,25.6,16.2,25.6,16.2L25.6,16.2z"/>
		<path class="st1" d="M25.4,16.5L25.4,16.5C25.4,16.5,25.4,16.5,25.4,16.5C25.3,16.5,25.3,16.5,25.4,16.5c-0.1-0.1-0.1-0.1-0.1-0.1
			c0,0,0,0-0.1,0c0,0,0,0,0,0c0,0,0,0,0,0c0,0,0,0-0.1,0c0,0,0,0-0.1,0c0,0-0.1,0-0.1,0l0.1,0L25.4,16.5z"/>
		<path class="st1" d="M24.9,16.6L24.9,16.6C24.9,16.5,24.9,16.5,24.9,16.6c-0.1-0.1-0.1-0.1-0.2-0.1l0,0.1L24.9,16.6L24.9,16.6z"/>
		<path class="st1" d="M24.8,16.4C24.8,16.4,24.8,16.4,24.8,16.4c0.1,0,0.1,0,0.1,0c0,0,0,0,0,0c0,0,0,0,0.1,0c0,0,0,0,0.1,0
			c0,0,0,0,0.1,0c0,0,0,0,0.1,0c0,0,0,0,0.1,0c0,0,0.1,0,0.1,0c0,0,0.1,0,0.1,0c0,0,0,0,0.1,0l0,0l-0.3,0l-0.3,0L24.8,16.4
			L24.8,16.4L24.8,16.4z"/>
		<path class="st8" d="M23.3,16.2C23.3,16.2,23.3,16.2,23.3,16.2C23.4,16.2,23.4,16.2,23.3,16.2C23.4,16.2,23.4,16.2,23.3,16.2
			c0.1,0,0.1,0,0.1,0c0,0,0,0,0,0C23.4,16.3,23.4,16.3,23.3,16.2C23.4,16.3,23.4,16.3,23.3,16.2C23.4,16.2,23.4,16.2,23.3,16.2
			C23.4,16.2,23.4,16.2,23.3,16.2C23.3,16.2,23.3,16.2,23.3,16.2L23.3,16.2z"/>
		<g>
			<path class="st0" d="M23.3,16.2C23.3,16.2,23.3,16.2,23.3,16.2C23.4,16.2,23.4,16.2,23.3,16.2C23.4,16.2,23.4,16.2,23.3,16.2
				c0.1,0,0.1,0,0.1,0c0,0,0,0,0,0C23.4,16.3,23.4,16.3,23.3,16.2C23.4,16.3,23.4,16.3,23.3,16.2C23.4,16.2,23.4,16.2,23.3,16.2
				C23.4,16.2,23.4,16.2,23.3,16.2C23.3,16.2,23.3,16.2,23.3,16.2z"/>
		</g>
		<path class="st9" d="M23.7,18.3C23.6,18.3,23.6,18.3,23.7,18.3C23.6,18.3,23.6,18.3,23.7,18.3c0-0.1,0-0.1,0-0.1c0,0,0,0,0-0.1
			c0,0,0,0,0.1,0c0,0,0,0,0,0C23.8,18.2,23.7,18.2,23.7,18.3C23.7,18.3,23.7,18.3,23.7,18.3C23.7,18.3,23.7,18.3,23.7,18.3
			C23.8,18.4,23.7,18.3,23.7,18.3L23.7,18.3z"/>
		<path class="st9" d="M23.6,18.4C23.6,18.4,23.6,18.3,23.6,18.4C23.7,18.3,23.7,18.4,23.6,18.4C23.7,18.4,23.7,18.4,23.6,18.4
			C23.6,18.4,23.6,18.4,23.6,18.4L23.6,18.4z"/>
		<path class="st9" d="M23.5,17.6C23.5,17.6,23.5,17.6,23.5,17.6C23.5,17.6,23.5,17.6,23.5,17.6c0-0.1,0-0.1,0-0.1c0,0,0,0,0-0.1
			c0,0,0,0,0,0c0,0,0,0,0,0c0,0,0,0,0,0c0,0,0,0,0,0c0,0,0,0,0,0c0,0,0,0,0,0c0,0,0,0,0,0.1C23.6,17.5,23.6,17.5,23.5,17.6
			C23.6,17.5,23.6,17.5,23.5,17.6L23.5,17.6C23.6,17.6,23.6,17.6,23.5,17.6C23.6,17.6,23.5,17.6,23.5,17.6L23.5,17.6z"/>
		<path class="st1" d="M25.6,18.1c0,0,0,0.1,0,0.1c0,0.1,0,0.1,0,0.1c0,0,0,0,0,0.1c0,0.1,0.1,0.1,0,0.2c0,0.1,0,0,0,0.1
			c0,0,0,0,0,0.1c0,0,0,0.1,0,0.2c0,0,0,0,0,0c0,0,0,0,0,0c0,0,0,0.1,0,0.1l0,0l-0.1,0l-0.1,0l0,0c0,0,0,0,0,0c0,0,0,0,0.1-0.1
			c0,0,0-0.1,0-0.1c0,0,0-0.1,0-0.1c0,0,0,0,0-0.1c0,0,0,0,0-0.1c0,0,0,0-0.1-0.1c0,0,0,0,0,0c0,0,0,0,0,0c0,0,0,0,0,0
			c0,0,0,0-0.1,0.1c-0.1,0.1-0.1,0.1-0.1,0.2c0,0,0,0.1,0,0.1c0,0,0,0,0,0c0,0,0,0,0,0c0,0,0,0,0,0l0,0L25,19L25,19l0,0
			c0,0,0.1,0,0.1,0c0,0,0,0,0,0c0,0,0,0,0,0c0,0,0,0,0,0c0,0,0,0,0-0.1c0,0,0,0,0-0.1c0,0,0,0,0,0c0,0,0,0,0,0c0,0,0,0,0,0
			c0,0,0,0,0,0c0,0,0,0,0,0c0,0,0,0,0,0c0,0,0,0,0,0c0,0,0,0,0,0c0,0,0,0,0,0c0,0,0,0,0,0c0,0,0,0,0,0c0,0,0,0,0,0c0,0,0,0,0,0
			c0,0,0,0,0,0c0,0,0,0,0,0c0,0,0,0,0,0c0,0,0,0,0,0c0,0-0.1,0-0.1-0.1c0,0,0,0,0,0c-0.2,0-0.3,0-0.4,0c0,0,0,0.1,0,0.1
			c0,0,0,0.1,0,0.1c0,0,0,0,0,0.1c0,0.1,0,0.1,0,0.1c0,0,0,0,0,0.1c0,0,0,0,0,0c0,0,0,0,0,0c0,0,0,0,0,0c0,0,0,0,0,0l0,0l-0.1,0
			l-0.1,0l0,0c0,0,0,0,0,0c0,0,0,0,0,0c0,0,0,0,0-0.1c0,0,0-0.1,0-0.1c0,0,0,0,0,0c0,0,0,0,0,0c0,0,0-0.1,0-0.2c0,0,0,0,0,0l0,0
			c0,0,0,0-0.1,0c0,0-0.1,0-0.1,0c0,0,0,0,0,0c0,0-0.1,0-0.1,0.1c0,0,0,0,0,0c0,0,0,0.1,0.1,0.1c0,0,0,0,0,0c0,0,0,0,0,0
			c0,0,0,0,0,0l0,0l0,0.1l0,0l0,0c0,0,0-0.1,0-0.1c0,0,0-0.1,0-0.1c0-0.1,0-0.1-0.1-0.1c0-0.1,0-0.1,0-0.1c0,0,0.1-0.1,0.1-0.1
			c0,0,0-0.1-0.1-0.1c0,0,0-0.1-0.1-0.1c0,0,0,0,0,0c0,0,0,0,0,0l-0.1,0c0,0,0,0,0,0c0,0,0,0,0,0c0,0,0,0,0,0c0,0,0,0,0,0
			c0,0,0,0-0.1,0c0,0,0,0-0.1,0c0,0-0.1,0-0.1,0c0,0,0,0-0.1,0c0,0,0,0,0,0c0,0,0,0,0-0.1c0,0,0,0,0,0c0,0,0,0,0,0c0,0,0,0,0,0
			c0,0,0,0,0,0c0,0,0,0,0,0c0,0,0,0,0,0c0,0,0,0,0,0c0,0,0,0,0,0c0,0,0,0,0,0c0,0,0,0,0.1,0c0,0,0,0,0,0c0,0,0,0,0,0
			c0.1,0,0.1,0,0.1,0c0,0,0.1,0.1,0.1,0.1c0,0,0,0,0,0c0,0,0,0,0.1,0c0,0,0,0,0,0c0,0,0,0,0,0c0,0,0,0,0,0c0,0,0,0,0,0
			c0,0,0,0-0.1,0l0.1,0c0,0,0.1,0,0.2,0c0.2,0,0.2,0,0.3-0.1c0.1,0,0.2,0,0.3,0c0.1,0,0.1,0,0.2,0c0.1,0,0.1,0,0.2,0
			c0.1,0,0.1,0,0.2,0c0.1,0,0.1,0,0.2,0c0,0,0.1,0,0.1,0.1c0,0,0,0,0,0c0,0,0,0,0,0c0,0,0,0,0,0.1c0,0,0,0,0,0.1
			C25.7,18.1,25.7,18.1,25.6,18.1C25.6,18.1,25.6,18.1,25.6,18.1L25.6,18.1z"/>
		<g>
			<path class="st8" d="M24.9,18.2L24.9,18.2c0,0-0.1,0-0.1,0L24.9,18.2c-0.1-0.1-0.1-0.1-0.1-0.1c0,0,0,0,0,0c0,0,0.1,0,0.1,0
				c0,0,0.1,0,0.1,0c0,0,0.1,0,0.1,0c0,0,0.1,0,0.4,0c0.1,0,0.2,0,0.3,0c0,0,0,0,0-0.1c0,0,0-0.1,0-0.1c0,0,0,0,0,0c0,0,0,0,0,0
				c0,0,0.1,0,0.1,0c0,0,0,0,0,0.1c0,0.1,0,0.1-0.1,0.1c-0.1,0-0.1,0-0.3,0c-0.2,0-0.3,0-0.4,0c0,0-0.1,0-0.1,0c0,0,0,0-0.1,0
				c0,0,0,0-0.1,0c0.1,0,0.1,0,0.1,0l0,0.1C24.8,18.2,24.8,18.2,24.9,18.2C24.9,18.2,25,18.1,24.9,18.2L24.9,18.2L24.9,18.2
				C25,18.2,25,18.2,24.9,18.2c0.1,0,0.1-0.1,0.2-0.1c0,0,0,0,0.1,0c0.1,0,0.1,0,0.2,0c0.1,0,0.1,0,0.2,0c0.1,0,0.1,0,0.1,0
				c0,0,0,0,0,0c0,0,0,0,0,0l0,0c0,0-0.1,0-0.1,0c-0.1,0-0.1,0-0.2,0c0,0-0.1,0-0.2,0c0,0-0.1,0-0.1,0
				C25.1,18.2,25.1,18.2,24.9,18.2C25,18.2,25,18.2,24.9,18.2L24.9,18.2L24.9,18.2z"/>
		</g>
		<path class="st8" d="M23.6,17.7C23.6,17.7,23.6,17.7,23.6,17.7c-0.1,0-0.1,0-0.1,0.1C23.6,17.8,23.6,17.8,23.6,17.7
			C23.6,17.8,23.6,17.8,23.6,17.7C23.6,17.7,23.6,17.7,23.6,17.7L23.6,17.7z"/>
		<g>
			<path class="st0" d="M23.6,17.7C23.6,17.7,23.6,17.7,23.6,17.7c-0.1,0-0.1,0-0.1,0.1C23.6,17.8,23.6,17.8,23.6,17.7
				C23.6,17.8,23.6,17.8,23.6,17.7C23.6,17.7,23.6,17.7,23.6,17.7L23.6,17.7z"/>
		</g>
		<g>
			<path class="st8" d="M24.2,18.5L24.2,18.5L24.2,18.5L24.2,18.5c0-0.1,0-0.1,0-0.2c0,0,0,0,0-0.1c0,0,0,0,0,0c0,0,0,0,0,0l0,0l0,0
				c0,0,0,0,0,0.1c0,0,0,0,0,0.1L24.2,18.5C24.2,18.5,24.2,18.5,24.2,18.5L24.2,18.5L24.2,18.5C24.2,18.5,24.2,18.5,24.2,18.5
				L24.2,18.5z"/>
		</g>
		<g>
			<path class="st0" d="M24.5,18.3C24.5,18.3,24.5,18.3,24.5,18.3c0,0.1,0,0.2-0.1,0.2c0,0,0,0,0,0L24.5,18.3z"/>
		</g>
		<path class="st9" d="M23.7,18.1L23.7,18.1c0.2,0,0.2,0,0.3-0.1c0-0.1,0-0.1,0.1-0.2l-0.1,0l0,0c0,0.1,0,0.1-0.1,0.2
			C23.8,18,23.8,18.1,23.7,18.1L23.7,18.1z"/>
		<polygon class="st1" points="23.7,18.1 23.7,18.1 23.7,18.1 23.7,18.1 		"/>
		<path class="st9" d="M23.9,18.9C23.9,18.9,23.9,18.9,23.9,18.9c0.1-0.1,0.1-0.1,0.1-0.1c0,0,0,0,0,0c0,0,0,0,0,0.1
			C24,18.9,24,18.9,23.9,18.9C24,19,24,19,23.9,18.9C24,19,24,19,23.9,18.9C24,19,23.9,19,23.9,18.9L23.9,18.9z"/>
		<path class="st9" d="M25.4,19C25.5,19,25.5,19,25.4,19c0.1,0,0.1,0,0.1,0.1c0,0,0,0,0,0C25.5,19.1,25.5,19.1,25.4,19
			C25.5,19.1,25.5,19.1,25.4,19C25.4,19.1,25.4,19.1,25.4,19C25.4,19.1,25.4,19.1,25.4,19C25.4,19.1,25.4,19,25.4,19L25.4,19z"/>
		<path class="st9" d="M25,18.9C25,18.9,25,18.9,25,18.9c0.1,0,0.1,0.1,0.1,0.1c0,0,0,0,0,0C25.1,19,25.1,19,25,18.9
			C25,19,25,19,25,18.9C25,19,25,19,25,18.9C24.9,19,24.9,19,25,18.9C24.9,19,25,18.9,25,18.9L25,18.9z"/>
		<path class="st9" d="M24.2,19C24.2,19,24.2,19,24.2,19c0.1,0,0.1,0.1,0.1,0.1c0,0,0,0,0,0c0,0,0,0-0.1,0c0,0,0,0-0.1,0
			C24.2,19.1,24.2,19.1,24.2,19C24.1,19.1,24.1,19.1,24.2,19C24.2,19.1,24.2,19,24.2,19L24.2,19z"/>
		<path class="st9" d="M23.8,17.7C23.8,17.6,23.7,17.6,23.8,17.7C23.8,17.6,23.8,17.6,23.8,17.7c0-0.1,0-0.1,0-0.1c0,0,0,0,0,0
			c0,0,0,0,0,0c0,0,0-0.1,0-0.1c0,0,0,0,0,0c0,0,0,0,0,0c0,0,0,0,0,0.1c0,0,0,0,0,0.1c0,0,0,0,0,0.1C23.9,17.6,23.9,17.6,23.8,17.7
			C23.9,17.6,23.9,17.6,23.8,17.7C23.8,17.7,23.8,17.7,23.8,17.7C23.8,17.7,23.8,17.7,23.8,17.7L23.8,17.7z"/>
		<g>
			<path class="st0" d="M23.9,18.4C23.9,18.5,23.9,18.5,23.9,18.4L23.9,18.4z"/>
		</g>
		<g>
			<path class="st0" d="M24,18.3c0,0,0,0.2,0.1,0.2L24,18.3z"/>
		</g>
		<g>
			<path class="st0" d="M25.3,18.6L25.3,18.6c0.1,0,0.1-0.1,0.1-0.1L25.3,18.6z"/>
		</g>
		<g>
			<path class="st8" d="M24.9,18.5C24.9,18.5,24.9,18.5,24.9,18.5C24.9,18.5,24.9,18.5,24.9,18.5c0.1,0,0.2-0.1,0.2-0.1
				c0.1,0,0.1,0,0.1,0c0,0-0.1,0-0.1,0.1C25.1,18.5,25,18.5,24.9,18.5L24.9,18.5L24.9,18.5z"/>
		</g>
		<g>
			<path class="st8" d="M25.5,18.5L25.5,18.5L25.5,18.5c-0.1-0.1-0.1-0.1-0.2-0.1c0,0,0,0-0.1-0.1c-0.1,0-0.1-0.1-0.1-0.1l0,0l0,0
				c0.1,0,0.1,0,0.1,0c0.1,0,0.1,0.1,0.1,0.1C25.4,18.5,25.4,18.5,25.5,18.5C25.4,18.5,25.5,18.5,25.5,18.5
				C25.5,18.5,25.5,18.5,25.5,18.5L25.5,18.5z"/>
		</g>
		<path class="st1" d="M25,18.3L25,18.3l0.2,0.1c0,0,0,0,0,0c0,0,0,0,0,0C25.1,18.3,25.1,18.3,25,18.3C25.1,18.3,25.1,18.3,25,18.3
			C25.1,18.3,25.1,18.3,25,18.3C25,18.3,25,18.3,25,18.3L25,18.3z"/>
		<path class="st1" d="M25.6,17.9C25.6,17.9,25.6,17.9,25.6,17.9C25.6,17.8,25.5,17.8,25.6,17.9L25.6,17.9L25.6,17.9
			C25.6,17.9,25.6,17.9,25.6,17.9L25.6,17.9z"/>
		<path class="st1" d="M25.4,18.2L25.4,18.2C25.4,18.2,25.4,18.2,25.4,18.2C25.3,18.2,25.3,18.1,25.4,18.2c-0.1-0.1-0.1-0.1-0.1-0.1
			c0,0,0,0-0.1,0c0,0,0,0,0,0c0,0,0,0,0,0c0,0,0,0-0.1,0c0,0,0,0-0.1,0c0,0-0.1,0-0.1,0l0.1,0L25.4,18.2z"/>
		<path class="st1" d="M24.9,18.2L24.9,18.2C24.9,18.2,24.9,18.2,24.9,18.2c-0.1-0.1-0.1-0.1-0.2-0.1l0,0.1L24.9,18.2L24.9,18.2z"/>
		<path class="st8" d="M23.3,17.9C23.3,17.9,23.3,17.9,23.3,17.9C23.4,17.9,23.4,17.9,23.3,17.9C23.4,17.9,23.4,17.9,23.3,17.9
			c0.1,0,0.1,0,0.1,0c0,0,0,0,0,0C23.4,17.9,23.4,17.9,23.3,17.9C23.4,17.9,23.4,17.9,23.3,17.9C23.4,17.9,23.4,17.9,23.3,17.9
			C23.4,17.9,23.4,17.9,23.3,17.9C23.3,17.9,23.3,17.9,23.3,17.9L23.3,17.9z"/>
		<g>
			<path class="st0" d="M23.3,17.9C23.3,17.9,23.3,17.9,23.3,17.9C23.4,17.9,23.4,17.9,23.3,17.9C23.4,17.9,23.4,17.9,23.3,17.9
				c0.1,0,0.1,0,0.1,0c0,0,0,0,0,0C23.4,17.9,23.4,17.9,23.3,17.9C23.4,17.9,23.4,17.9,23.3,17.9C23.4,17.9,23.4,17.9,23.3,17.9
				C23.4,17.9,23.4,17.9,23.3,17.9C23.3,17.9,23.3,17.9,23.3,17.9z"/>
		</g>
		<path class="st8" d="M18.5,18.4c0,0.1,0,0.2,0.1,0.3c0.1,0.1,0,0.1,0.2,0.3c0.1,0.1,0.2,0.2,0.3,0.2c0.1,0.1,0.2,0.1,0.3,0.1
			c0.3,0.1,0.5,0.1,0.8,0.1c0.2,0,0.3,0,0.5,0c0.2,0,0.3,0,0.5-0.1c0.1,0,0.2,0,0.3,0c0.1,0,0.2,0,0.3,0.1c0.2,0,0.5,0.1,0.5,0.1
			v-3.9h-3.8v2.7C18.5,18.2,18.5,18.4,18.5,18.4L18.5,18.4z"/>
		<g>
			<path class="st6" d="M22.3,19.5L22.3,19.5c0,0-0.3-0.1-0.5-0.2c-0.1,0-0.2,0-0.3,0c-0.1,0-0.2,0-0.3,0c-0.2,0-0.3,0-0.5,0l-0.1,0
				c-0.1,0-0.2,0-0.4,0c-0.3,0-0.5,0-0.8-0.1c-0.2,0-0.2-0.1-0.3-0.1c-0.1,0-0.2-0.1-0.3-0.2c-0.1-0.1-0.1-0.2-0.2-0.2l0-0.1
				c-0.1-0.1-0.1-0.2-0.1-0.3c0,0,0-0.2,0-0.2v-2.7l3.8,0L22.3,19.5L22.3,19.5z M21.3,19.3c0,0,0.1,0,0.1,0c0.1,0,0.2,0,0.3,0
				c0.2,0,0.4,0.1,0.5,0.1v-3.9l-3.8,0l0,2.7l0,0c0,0,0,0.1,0,0.2c0,0.1,0,0.2,0.1,0.3c0,0,0,0.1,0,0.1c0,0.1,0,0.1,0.2,0.2
				c0.1,0.1,0.2,0.2,0.3,0.2c0.1,0.1,0.2,0.1,0.3,0.1c0.3,0.1,0.5,0.1,0.8,0.1c0.2,0,0.3,0,0.4,0l0.1,0c0.2,0,0.3,0,0.5,0
				C21.2,19.3,21.2,19.3,21.3,19.3L21.3,19.3z"/>
		</g>
		<path class="st1" d="M18.9,19.1c0.1,0,0.1,0.1,0.2,0.1c0.1,0,0.1,0.1,0.2,0.1v-3.7h-0.4V19.1L18.9,19.1z"/>
		<g>
			<path class="st1" d="M19.4,19.3L19.4,19.3c-0.1-0.1-0.2-0.1-0.3-0.1c-0.1,0-0.1-0.1-0.2-0.1l0-3.5l0.4,0L19.4,19.3L19.4,19.3z
				 M19.4,15.6l-0.4,0l0,3.5c0.1,0,0.1,0.1,0.2,0.1c0.1,0,0.1,0,0.2,0.1l0.1,0V15.6L19.4,15.6z"/>
		</g>
		<path class="st1" d="M21,19.3v-3.7h-0.4v3.7C20.6,19.3,20.9,19.3,21,19.3L21,19.3z"/>
		<g>
			<path class="st1" d="M20.6,19.3v-3.7l0.4,0l0,3.7C20.9,19.3,20.6,19.3,20.6,19.3L20.6,19.3L20.6,19.3z M21,15.6l-0.4,0l0,3.7
				c0,0,0.3,0,0.4,0L21,15.6L21,15.6z"/>
		</g>
		<path class="st1" d="M21.9,15.6h-0.4v3.7c0.1,0,0.3,0,0.4,0.1L21.9,15.6z"/>
		<g>
			<path class="st1" d="M21.9,19.3L21.9,19.3c-0.2,0-0.3-0.1-0.4-0.1l0-3.7l0.4,0L21.9,19.3L21.9,19.3z M21.9,15.6l-0.4,0l0,3.7
				c0.1,0,0.3,0,0.4,0.1V15.6L21.9,15.6z"/>
		</g>
		<g>
			<path class="st6" d="M28.4,15.4c0.3-0.1,1-0.3,1-1.4c0-0.4-0.1-0.8-0.4-1c-0.3-0.3-0.7-0.4-0.9-0.4v0c0.2,0,0.6,0.1,1,0.4
				c0.3,0.3,0.4,0.6,0.4,1C29.4,15.1,28.7,15.3,28.4,15.4L28.4,15.4z"/>
		</g>
		<g>
			<path class="st6" d="M28.5,15.4c0.2-0.1,0.9-0.5,0.8-1.3c0-0.5-0.2-0.9-0.4-1.2c-0.2-0.2-0.5-0.3-0.8-0.3v0
				c0.3,0,0.6,0.1,0.8,0.3c0.3,0.3,0.4,0.7,0.5,1.2C29.4,14.9,28.7,15.3,28.5,15.4L28.5,15.4z"/>
		</g>
		<rect x="23.2" y="11.4" class="st1" width="0.5" height="3.7"/>
		<g>
			<path class="st1" d="M23.8,15.1h-0.5l0-3.7l0.5,0L23.8,15.1L23.8,15.1z M23.7,11.4h-0.5l0,3.7l0.5,0V11.4L23.7,11.4z"/>
		</g>
		<rect x="24.3" y="11.4" class="st1" width="0.5" height="3.7"/>
		<g>
			<path class="st1" d="M24.8,15.1h-0.5l0-3.7l0.5,0L24.8,15.1L24.8,15.1z M24.8,11.4h-0.5l0,3.7l0.5,0V11.4L24.8,11.4z"/>
		</g>
		<rect x="25.4" y="11.4" class="st1" width="0.5" height="3.7"/>
		<g>
			<path class="st1" d="M25.9,15.1h-0.5l0-3.7l0.5,0L25.9,15.1L25.9,15.1z M25.9,11.4h-0.5l0,3.7l0.5,0V11.4L25.9,11.4z"/>
		</g>
		<path class="st1" d="M20.2,15.6v3.8c0,0-0.3,0-0.4,0v-3.8H20.2z"/>
		<g>
			<path class="st1" d="M20.1,19.4c-0.1,0-0.2,0-0.3,0l0-3.8l0.4,0l0,3.8L20.1,19.4L20.1,19.4z M20.2,15.6l-0.4,0l0,3.8
				c0.1,0,0.2,0,0.3,0l0.1,0V15.6L20.2,15.6z"/>
		</g>
	</g>
</g>
</svg>
