<?xml version="1.0" encoding="utf-8"?>
<!-- Generator: Adobe Illustrator 22.1.0, SVG Export Plug-In . SVG Version: 6.00 Build 0)  -->
<svg version="1.1" id="Layer_1" xmlns="http://www.w3.org/2000/svg" xmlns:xlink="http://www.w3.org/1999/xlink" x="0px" y="0px"
	 viewBox="0 0 45 32" style="enable-background:new 0 0 45 32;" xml:space="preserve">
<style type="text/css">
	.st0{fill:none;}
	.st1{fill:#BC0030;}
	.st2{fill:#F1D62F;}
</style>
<g>
	<path class="st0" d="M0,0h45v32H0V0z"/>
	<path class="st1" d="M0,0h45v32H0V0z"/>
	<path d="M0,16h45v16H0V16z"/>
	<path class="st2" d="M19.9,13l-1.4-1h1.7l0.5-1.6l0.5,1.6H23l-1.4,1l0.5,1.6l-1.4-1l-1.4,1L19.9,13z M28.1,22.7
		c0.3,0.5,0,1-0.5,0.7c-0.3-0.2-0.4-0.6-0.8-1c-0.3-0.2-0.5-0.5-1.2-0.6c0,0,0-0.1,0-0.1l0.6-0.7c0.3,0.3,0.8,0.6,1.1,0.9
		C27.7,22.1,27.9,22.3,28.1,22.7 M26.5,21.5C26.5,21.5,26.5,21.4,26.5,21.5c0.1-0.1,0.1-0.2,0-0.2C26.4,21.3,26.4,21.3,26.5,21.5
		C26.4,21.4,26.4,21.5,26.5,21.5 M27.1,22C27.2,22,27.2,22,27.1,22c0.1-0.1,0-0.2,0-0.2S27,21.9,27.1,22C27,22,27.1,22,27.1,22
		 M27.7,22.6C27.7,22.6,27.8,22.6,27.7,22.6c0.1-0.1,0-0.2,0-0.2C27.6,22.4,27.6,22.5,27.7,22.6C27.6,22.6,27.6,22.6,27.7,22.6
		 M22.4,19.9c-0.5,0.2-1.1,0.3-1.7,0.3c-1.2,0-2.3-0.5-3.2-1.2l-0.7,0.9c0.3,0.3,0.7,0.5,1,0.7l-0.3,0.5c0.4,0.2,0.8,0.4,1.2,0.5
		l0.2-0.5c0.4,0.1,0.8,0.2,1.2,0.2l0,0.5c0.4,0,0.9,0,1.3,0l-0.1-0.5c0.4,0,0.8-0.1,1.2-0.2l0.2,0.5c0.2-0.1,0.4-0.1,0.6-0.2
		l-0.3-1.1L22.4,19.9z M25.9,15.1c0,1.6-0.7,3-1.8,3.9l1.4,1c0.2-0.2,0.4-0.4,0.5-0.6l-0.4-0.3c0.3-0.3,0.5-0.7,0.7-1l0.5,0.3
		c0.2-0.4,0.4-0.8,0.5-1.2l-0.5-0.2c0.1-0.4,0.2-0.8,0.2-1.2l0.5,0c0-0.4,0-0.9,0-1.3L27,14.4c0-0.4-0.1-0.8-0.2-1.2l0.5-0.2
		c-0.1-0.4-0.3-0.8-0.5-1.2l-0.5,0.3c-0.2-0.4-0.4-0.7-0.7-1l0.4-0.3c-0.3-0.3-0.6-0.7-0.9-0.9l-0.3,0.4c-0.3-0.3-0.7-0.5-1-0.7
		L23.9,9c-0.4-0.2-0.8-0.4-1.2-0.5l-0.2,0.5c-0.4-0.1-0.8-0.2-1.2-0.2L21.3,10C23.8,10.3,25.9,12.4,25.9,15.1 M23.9,19.7
		c-1.4-1-2.7-1.9-3.9-3c0,0,0,0,0,0c0,0,0,0,0,0C21.1,17.7,22.5,18.7,23.9,19.7c0.7,0.4,1.4,0.9,2,1.4l0.2-0.2
		c-2.3-1.6-7.6-5.3-7.6-6.7c-1.1,2.1,0.3,3.3,1.1,3.8c2.2,1.2,3.6,2.1,5.9,3.6l0.4-0.4C25.2,20.6,24.5,20.1,23.9,19.7"/>
</g>
</svg>
