<?xml version="1.0" encoding="utf-8"?>
<!-- Generator: Adobe Illustrator 22.1.0, SVG Export Plug-In . SVG Version: 6.00 Build 0)  -->
<svg version="1.1" id="Layer_1" xmlns="http://www.w3.org/2000/svg" xmlns:xlink="http://www.w3.org/1999/xlink" x="0px" y="0px"
	 viewBox="0 0 45 32" style="enable-background:new 0 0 45 32;" xml:space="preserve">
<style type="text/css">
	.st0{fill:none;}
	.st1{fill:#FFFFFF;}
	.st2{fill:#386FC2;}
	.st3{fill:#BC0030;}
	.st4{fill:#F3D02F;}
</style>
<g>
	<path class="st0" d="M0,0h45v32H0V0z"/>
	<path class="st1" d="M0,0h45v32H0V0z"/>
	<path d="M0,0h45v16H0V0z"/>
	<path class="st2" d="M0,16h45v5.7H0V16z"/>
	<path class="st3" d="M45,32H0V5.8L22.5,32L45,5.8V32z"/>
	<path class="st4" d="M31.1,16H13.9l4.3-0.9l-3.6-2.4l4.3,0.8L16.4,10l3.6,2.4l-0.8-4.3l2.4,3.6l0.9-4.3l0.9,4.3l2.4-3.6l-0.9,4.3
		l3.6-2.4l-2.4,3.6l4.3-0.8l-3.6,2.4L31.1,16z"/>
</g>
</svg>
