<?xml version="1.0" encoding="utf-8"?>
<!-- Generator: Adobe Illustrator 22.1.0, SVG Export Plug-In . SVG Version: 6.00 Build 0)  -->
<svg version="1.1" id="Layer_1" xmlns="http://www.w3.org/2000/svg" xmlns:xlink="http://www.w3.org/1999/xlink" x="0px" y="0px"
	 viewBox="0 0 45 32" style="enable-background:new 0 0 45 32;" xml:space="preserve">
<style type="text/css">
	.st0{fill:none;}
	.st1{fill:#FFFFFF;}
	.st2{fill:#80A7D8;}
	.st3{fill:#F1BD51;}
	.st4{fill:#7A361D;}
</style>
<g>
	<path class="st0" d="M0,0h45v32H0V0z"/>
	<rect y="10.7" class="st1" width="45" height="10.7"/>
	<rect class="st2" width="45" height="10.7"/>
	<rect y="21.3" class="st2" width="45" height="10.7"/>
	<g>
		<path class="st3" d="M22.3,16l0.1,3.6c0,0,0,0.1,0,0.1c0,0,0-0.1,0-0.1l0.1-3.6H22.3z"/>
		<path class="st4" d="M22.5,19.7C22.5,19.7,22.4,19.6,22.5,19.7L22.3,16l0,0L22.5,19.7C22.5,19.6,22.5,19.6,22.5,19.7
			C22.5,19.6,22.5,19.6,22.5,19.7l0.2-3.7L22.5,19.7C22.6,19.6,22.5,19.7,22.5,19.7L22.5,19.7z"/>
		<polygon class="st4" points="22.4,16 22.5,18.5 22.6,16 		"/>
		<path class="st3" d="M22.2,17.2c-0.2,0.5,0,0.8-0.2,1.2c-0.2,0.4-0.1,0.7-0.1,0.9c0,0.2-0.2,0.2-0.1,0.3c0,0,0.2,0,0.3-0.3
			c0.1-0.2-0.1-0.4,0.2-0.9c0.2-0.5,0.1-0.7,0.3-1.1L22.2,17.2z"/>
		<path class="st4" d="M21.8,19.6L21.8,19.6C21.7,19.5,21.7,19.5,21.8,19.6c0-0.1,0.1-0.2,0.1-0.3c0,0,0-0.1,0-0.2
			c0-0.2,0-0.4,0.1-0.7C22,18.2,22,18,22,17.8c0-0.2,0-0.4,0.1-0.6l0,0c-0.1,0.2-0.1,0.4-0.1,0.6c0,0.2,0,0.4-0.1,0.6
			c-0.2,0.3-0.1,0.5-0.1,0.7c0,0.1,0,0.1,0,0.2C21.8,19.4,21.8,19.4,21.8,19.6C21.7,19.5,21.7,19.5,21.8,19.6c0.1,0,0.2-0.1,0.2-0.3
			c0-0.1,0-0.1,0-0.2c0-0.2,0-0.3,0.1-0.6c0.1-0.2,0.1-0.4,0.1-0.6c0-0.2,0-0.3,0.2-0.6c-0.1,0.2-0.1,0.4-0.1,0.6
			c0,0.2,0,0.3-0.1,0.6C22,18.7,22,18.9,22,19c0,0.1,0,0.1,0,0.2C21.9,19.4,21.8,19.5,21.8,19.6L21.8,19.6L21.8,19.6z"/>
		<path class="st4" d="M22.2,17.3c-0.2,0.4,0,0.7-0.2,1.1C22.3,18.1,22.1,17.8,22.2,17.3L22.2,17.3z"/>
		<path class="st3" d="M22.7,16l-0.1-3.6c0,0,0-0.1,0-0.1c0,0,0,0.1,0,0.1L22.3,16H22.7z"/>
		<path class="st4" d="M22.7,16l-0.1-3.6c0,0,0-0.1,0-0.1c0,0,0,0.1,0,0.1L22.3,16l0.1-3.6c0,0,0-0.1,0.1-0.1c0,0,0.1,0.1,0.1,0.1
			L22.7,16L22.7,16L22.7,16z"/>
		<polygon class="st4" points="22.6,16 22.5,13.5 22.4,16 		"/>
		<path class="st3" d="M22.8,14.8c0.2-0.4,0-0.8,0.2-1.2c0.2-0.4,0.1-0.7,0.1-0.9c0-0.2,0.2-0.2,0.1-0.3c0,0-0.2,0-0.3,0.3
			c-0.1,0.2,0.1,0.4-0.2,0.9c-0.2,0.5,0,0.7-0.3,1.1L22.8,14.8z"/>
		<path class="st4" d="M22.8,14.8L22.8,14.8c0.1-0.2,0.1-0.4,0.1-0.6c0-0.2,0-0.4,0.1-0.6c0.1-0.3,0.1-0.5,0.1-0.7
			c0-0.1,0-0.1,0-0.2c0-0.1,0.1-0.2,0.1-0.2c0,0,0,0,0-0.1c-0.1,0-0.2,0.1-0.2,0.3c0,0.1,0,0.2,0,0.2c0,0.2,0,0.3-0.2,0.6
			c-0.1,0.2-0.1,0.4-0.1,0.6c0,0.2,0,0.3-0.1,0.5c0.1-0.2,0.1-0.4,0.1-0.6c0-0.2,0-0.3,0.1-0.6C23,13.3,23,13.1,23,13
			c0-0.1,0-0.1,0-0.2c0-0.2,0.2-0.3,0.2-0.3l0,0l0,0c0,0,0,0,0,0.1c0,0-0.1,0.1-0.1,0.2c0,0,0,0.1,0,0.2c0,0.2,0,0.4-0.1,0.7
			C23,13.8,23,14,23,14.2C23,14.4,23,14.6,22.8,14.8L22.8,14.8z"/>
		<path class="st4" d="M22.8,14.7c0.2-0.4,0-0.7,0.2-1.1C22.8,13.9,22.9,14.2,22.8,14.7L22.8,14.7z"/>
		<path class="st3" d="M22.5,15.8L18.9,16c0,0-0.1,0-0.1,0c0,0,0.1,0,0.1,0l3.6,0.1V15.8z"/>
		<path class="st4" d="M22.5,16.2l-3.6-0.1c0,0-0.1,0-0.1-0.1c0,0,0.1-0.1,0.1-0.1l3.6-0.1l0,0L18.9,16c0,0-0.1,0-0.1,0
			c0,0,0.1,0,0.1,0L22.5,16.2L22.5,16.2z"/>
		<polygon class="st4" points="22.5,15.9 20,16 22.5,16.1 		"/>
		<path class="st3" d="M21.3,15.7c-0.4-0.2-0.8,0-1.2-0.2c-0.4-0.2-0.7-0.1-0.9-0.1c-0.2,0-0.2-0.2-0.3-0.1c0,0,0,0.2,0.3,0.3
			c0.2,0.1,0.4-0.1,0.9,0.2c0.5,0.3,0.7,0.1,1.1,0.3L21.3,15.7z"/>
		<path class="st4" d="M21.2,15.9c-0.2-0.1-0.4-0.1-0.6-0.1c-0.2,0-0.3,0-0.6-0.1c-0.3-0.2-0.5-0.2-0.6-0.1c-0.1,0-0.1,0-0.2,0
			c-0.2,0-0.3-0.1-0.3-0.2l0,0l0,0c0,0,0.1,0,0.1,0c0,0,0.1,0.1,0.2,0.1c0,0,0.1,0,0.2,0c0.2,0,0.4,0,0.7,0.1
			c0.2,0.1,0.4,0.1,0.6,0.1c0.2,0,0.4,0,0.6,0.1l0,0c-0.2-0.1-0.4-0.1-0.6-0.1c-0.2,0-0.4,0-0.6-0.1c-0.3-0.1-0.5-0.1-0.7-0.1
			c-0.1,0-0.1,0-0.2,0c-0.1,0-0.2-0.1-0.2-0.1c0,0,0,0-0.1,0c0,0.1,0.1,0.2,0.3,0.2c0.1,0,0.1,0,0.2,0c0.1,0,0.3,0,0.6,0.2
			c0.2,0.1,0.4,0.1,0.6,0.1C20.9,15.8,21,15.8,21.2,15.9L21.2,15.9z"/>
		<path class="st4" d="M21.2,15.7c-0.4-0.2-0.7,0-1.1-0.2C20.4,15.8,20.7,15.6,21.2,15.7L21.2,15.7z"/>
		<path class="st3" d="M22.5,16.2l3.6-0.1c0,0,0.1,0,0.1,0c0,0-0.1,0-0.1,0l-3.6-0.1V16.2z"/>
		<path class="st4" d="M22.5,16.2L22.5,16.2l3.6-0.2c0,0,0.1,0,0.1,0c0,0-0.1,0-0.1,0l-3.6-0.1l3.6,0.1c0,0,0.1,0,0.1,0.1
			c0,0,0,0.1-0.1,0.1L22.5,16.2L22.5,16.2z"/>
		<polygon class="st4" points="22.5,16.1 25,16 22.5,15.9 		"/>
		<path class="st3" d="M23.7,16.3c0.5,0.2,0.8,0,1.2,0.2c0.4,0.2,0.7,0.1,0.9,0.1c0.2,0,0.2,0.2,0.3,0.1c0,0,0-0.2-0.3-0.3
			c-0.2-0.1-0.4,0.1-0.9-0.2c-0.5-0.2-0.7,0-1.1-0.3L23.7,16.3z"/>
		<path class="st4" d="M26,16.8C26,16.8,26,16.8,26,16.8c-0.1-0.1-0.2-0.1-0.3-0.1c0,0-0.1,0-0.2,0c-0.2,0-0.4,0-0.7-0.1
			c-0.2-0.1-0.4-0.1-0.6-0.1c-0.2,0-0.4,0-0.6-0.1l0,0c0.2,0.1,0.4,0.1,0.6,0.1c0.2,0,0.4,0,0.6,0.1c0.3,0.1,0.5,0.1,0.7,0.1
			c0.1,0,0.1,0,0.2,0C25.9,16.7,25.9,16.7,26,16.8C26,16.8,26,16.8,26,16.8c0-0.1-0.1-0.2-0.3-0.3c-0.1,0-0.1,0-0.2,0
			c-0.2,0-0.3,0-0.6-0.1c-0.2-0.1-0.4-0.1-0.6-0.1c-0.2,0-0.3,0-0.6-0.2c0.2,0.1,0.4,0.1,0.6,0.1c0.2,0,0.3,0,0.6,0.2
			c0.3,0.2,0.5,0.2,0.6,0.1c0.1,0,0.1,0,0.2,0C26,16.6,26,16.7,26,16.8L26,16.8L26,16.8C26,16.8,26,16.8,26,16.8L26,16.8z"/>
		<path class="st4" d="M23.8,16.3c0.5,0.2,0.7,0,1.1,0.2C24.6,16.3,24.3,16.4,23.8,16.3L23.8,16.3z"/>
		<path class="st3" d="M22.4,15.9l-2.4,2.6c0,0,0,0,0,0.1c0,0,0.1,0,0.1,0l2.6-2.4L22.4,15.9z"/>
		<path class="st4" d="M19.9,18.6c-0.1,0,0-0.1,0-0.1l2.4-2.6l0,0L19.9,18.6C19.9,18.5,19.9,18.5,19.9,18.6
			C20,18.6,20,18.6,19.9,18.6l2.7-2.5L19.9,18.6C20,18.6,20,18.6,19.9,18.6L19.9,18.6z"/>
		<polygon class="st4" points="22.4,15.9 20.8,17.7 22.6,16.1 		"/>
		<path class="st3" d="M21.4,16.6c-0.5,0.2-0.6,0.6-1,0.7c-0.4,0.1-0.6,0.5-0.7,0.6c-0.1,0.1-0.3,0-0.3,0.1c0,0.1,0.2,0.1,0.4,0
			c0.2-0.1,0.2-0.3,0.7-0.5c0.5-0.2,0.5-0.5,1-0.6L21.4,16.6z"/>
		<path class="st4" d="M19.6,18c0,0-0.1,0-0.1,0l0,0c0,0,0,0,0.1,0c0.1,0,0.1,0,0.2-0.1c0,0,0.1-0.1,0.1-0.1
			c0.1-0.1,0.3-0.3,0.6-0.4c0.2-0.1,0.3-0.2,0.5-0.3c0.1-0.1,0.3-0.3,0.5-0.4l0,0c-0.2,0.1-0.4,0.2-0.5,0.4
			c-0.1,0.1-0.3,0.3-0.5,0.3c-0.3,0.1-0.5,0.3-0.6,0.4c0,0.1-0.1,0.1-0.1,0.1C19.6,17.9,19.6,17.9,19.6,18c-0.1-0.1-0.1-0.1-0.1-0.1
			c0.1,0.1,0.2,0.1,0.4,0c0.1,0,0.1-0.1,0.2-0.1c0.1-0.1,0.2-0.2,0.6-0.3c0.3-0.1,0.4-0.2,0.5-0.3c0.1-0.1,0.3-0.2,0.5-0.3
			c-0.2,0.1-0.4,0.2-0.5,0.3c-0.1,0.1-0.3,0.2-0.5,0.3c-0.3,0.1-0.4,0.2-0.5,0.3c0,0.1-0.1,0.1-0.2,0.2C19.7,18,19.6,18,19.6,18
			L19.6,18z"/>
		<path class="st4" d="M21.4,16.7c-0.4,0.2-0.5,0.5-0.9,0.7C20.8,17.3,21,17,21.4,16.7L21.4,16.7z"/>
		<path class="st3" d="M22.6,16.1l2.4-2.6c0,0,0,0,0-0.1c0,0-0.1,0-0.1,0l-2.6,2.4L22.6,16.1z"/>
		<path class="st4" d="M22.6,16.1L22.6,16.1l2.4-2.6c0,0,0,0,0-0.1c0,0-0.1,0-0.1,0l-2.6,2.4l2.6-2.5c0,0,0.1,0,0.1,0
			c0,0,0,0.1,0,0.1L22.6,16.1L22.6,16.1z"/>
		<polygon class="st4" points="22.6,16.1 24.2,14.3 22.4,15.9 		"/>
		<path class="st3" d="M23.6,15.4c0.5-0.2,0.6-0.6,1-0.7c0.4-0.1,0.6-0.5,0.7-0.6c0.1-0.1,0.3,0,0.3-0.1c0-0.1-0.2-0.1-0.4,0
			c-0.2,0.1-0.2,0.3-0.7,0.5c-0.5,0.2-0.5,0.5-1,0.6L23.6,15.4z"/>
		<path class="st4" d="M23.6,15.4L23.6,15.4c0.2-0.1,0.4-0.2,0.5-0.4c0.1-0.1,0.3-0.3,0.5-0.3c0.3-0.1,0.5-0.3,0.6-0.4
			c0-0.1,0.1-0.1,0.1-0.1c0.1-0.1,0.2-0.1,0.2-0.1c0,0,0.1,0,0.1,0c-0.1-0.1-0.2-0.1-0.4,0c-0.1,0-0.1,0.1-0.2,0.1
			c-0.1,0.1-0.2,0.2-0.6,0.3c-0.3,0.1-0.4,0.2-0.5,0.3c-0.1,0.1-0.3,0.2-0.5,0.3c0.2-0.1,0.4-0.2,0.5-0.3c0.1-0.1,0.3-0.2,0.5-0.3
			c0.3-0.1,0.4-0.2,0.5-0.3c0.1-0.1,0.1-0.1,0.2-0.2c0.2-0.1,0.3-0.1,0.4-0.1l0,0c0,0,0,0-0.1,0c0,0-0.1,0-0.2,0.1
			c0,0-0.1,0.1-0.1,0.1c-0.1,0.1-0.3,0.3-0.6,0.4c-0.2,0.1-0.4,0.2-0.5,0.3C23.9,15.2,23.8,15.3,23.6,15.4L23.6,15.4z"/>
		<path class="st4" d="M23.6,15.3c0.4-0.2,0.5-0.5,0.9-0.6C24.2,14.7,24,15,23.6,15.3L23.6,15.3z"/>
		<path class="st3" d="M22.6,15.9L20,13.4c0,0,0,0-0.1,0c0,0,0,0.1,0,0.1l2.4,2.6L22.6,15.9z"/>
		<path class="st4" d="M22.4,16.1l-2.5-2.6c0,0,0-0.1,0-0.1c0,0,0.1,0,0.1,0l2.6,2.4l0,0L20,13.4c0,0,0,0-0.1,0c0,0,0,0.1,0,0.1
			L22.4,16.1L22.4,16.1z"/>
		<polygon class="st4" points="22.6,15.9 20.8,14.3 22.4,16.1 		"/>
		<path class="st3" d="M21.9,14.9c-0.2-0.5-0.6-0.6-0.7-1c-0.1-0.4-0.4-0.6-0.6-0.7c-0.1-0.1,0-0.3-0.1-0.3c-0.1,0-0.1,0.2,0,0.4
			c0.1,0.2,0.3,0.2,0.5,0.7c0.2,0.5,0.5,0.5,0.6,1L21.9,14.9z"/>
		<path class="st4" d="M21.7,15c-0.1-0.2-0.2-0.4-0.3-0.5c-0.1-0.1-0.2-0.3-0.3-0.5c-0.1-0.3-0.2-0.5-0.3-0.5
			c-0.1,0-0.1-0.1-0.2-0.2c-0.1-0.2-0.1-0.3-0.1-0.4l0,0c0,0,0,0,0,0.1c0,0.1,0,0.1,0.1,0.2c0,0,0.1,0.1,0.1,0.1
			c0.1,0.1,0.3,0.3,0.4,0.6c0.1,0.2,0.2,0.3,0.3,0.5c0.1,0.1,0.3,0.3,0.4,0.5l0,0c-0.1-0.2-0.2-0.4-0.4-0.5
			c-0.1-0.1-0.3-0.3-0.3-0.5c-0.1-0.3-0.3-0.5-0.4-0.6c-0.1,0-0.1-0.1-0.1-0.1c-0.1-0.1-0.1-0.2-0.1-0.2c0,0,0-0.1,0-0.1
			c-0.1,0.1-0.1,0.2,0,0.4c0,0.1,0.1,0.1,0.2,0.2c0.1,0.1,0.2,0.2,0.3,0.6c0.1,0.3,0.2,0.4,0.3,0.5C21.5,14.7,21.6,14.8,21.7,15
			L21.7,15z"/>
		<path class="st4" d="M21.8,14.9c-0.2-0.4-0.5-0.5-0.7-0.9C21.2,14.3,21.5,14.5,21.8,14.9L21.8,14.9z"/>
		<path class="st3" d="M22.4,16.1l2.6,2.4c0,0,0,0,0.1,0c0,0,0-0.1,0-0.1l-2.4-2.6L22.4,16.1z"/>
		<path class="st4" d="M25.1,18.6C25,18.6,25,18.6,25.1,18.6l-2.7-2.5l0,0L25.1,18.6C25,18.6,25,18.6,25.1,18.6
			C25.1,18.5,25.1,18.5,25.1,18.6l-2.4-2.7L25.1,18.6C25.1,18.5,25.1,18.6,25.1,18.6C25.1,18.6,25.1,18.6,25.1,18.6L25.1,18.6z"/>
		<polygon class="st4" points="22.4,16.1 24.2,17.7 22.6,15.9 		"/>
		<path class="st3" d="M23.1,17.1c0.2,0.5,0.6,0.6,0.7,1c0.1,0.4,0.5,0.6,0.6,0.7c0.1,0.1,0,0.3,0.1,0.3c0.1,0,0.1-0.2,0-0.4
			c-0.1-0.2-0.3-0.2-0.5-0.7c-0.2-0.5-0.5-0.5-0.6-1L23.1,17.1z"/>
		<path class="st4" d="M24.4,19.1C24.4,19.1,24.4,19,24.4,19.1c0-0.1,0-0.2-0.1-0.3c0,0-0.1-0.1-0.1-0.1c-0.1-0.1-0.3-0.3-0.4-0.6
			c-0.1-0.2-0.2-0.3-0.3-0.5c-0.1-0.1-0.3-0.3-0.4-0.5l0,0c0.1,0.2,0.2,0.4,0.4,0.5c0.1,0.1,0.3,0.3,0.3,0.5
			c0.1,0.3,0.3,0.5,0.4,0.6c0.1,0,0.1,0.1,0.1,0.1C24.4,18.9,24.4,18.9,24.4,19.1C24.4,19,24.4,19,24.4,19.1c0.1-0.1,0.1-0.2,0-0.4
			c0-0.1-0.1-0.1-0.1-0.2c-0.1-0.1-0.2-0.2-0.3-0.6c-0.1-0.3-0.2-0.4-0.3-0.5c-0.1-0.1-0.2-0.3-0.3-0.5c0.1,0.2,0.2,0.4,0.3,0.5
			c0.1,0.1,0.2,0.3,0.3,0.5c0.1,0.3,0.2,0.4,0.3,0.5c0.1,0.1,0.1,0.1,0.2,0.2C24.5,18.8,24.5,19,24.4,19.1L24.4,19.1L24.4,19.1z"/>
		<path class="st4" d="M23.2,17.1c0.2,0.4,0.5,0.5,0.7,0.9C23.8,17.7,23.5,17.5,23.2,17.1L23.2,17.1z"/>
		<path class="st3" d="M22.3,15.9l-1.2,3.4c0,0,0,0.1,0,0.1c0,0,0.1,0,0.1,0l1.5-3.3L22.3,15.9z"/>
		<path class="st4" d="M21.1,19.4C21.1,19.4,21.1,19.3,21.1,19.4l1.2-3.5l0,0L21.1,19.4C21.1,19.3,21.1,19.3,21.1,19.4L21.1,19.4
			l1.5-3.3L21.1,19.4C21.2,19.3,21.2,19.4,21.1,19.4L21.1,19.4z"/>
		<polygon class="st4" points="22.4,16 21.6,18.3 22.6,16 		"/>
		<path class="st3" d="M21.7,16.9c-0.4,0.3-0.3,0.7-0.7,1c-0.3,0.3-0.3,0.6-0.4,0.8c-0.1,0.2-0.2,0.2-0.2,0.2c0,0.1,0.2,0,0.3-0.2
			c0.1-0.2,0.1-0.4,0.5-0.7c0.4-0.3,0.3-0.6,0.7-0.9L21.7,16.9z"/>
		<path class="st4" d="M20.5,19C20.5,19,20.5,19,20.5,19L20.5,19C20.4,18.9,20.4,18.9,20.5,19c0-0.1,0.1-0.2,0.2-0.2
			c0,0,0-0.1,0.1-0.2c0-0.2,0.1-0.4,0.4-0.6c0.2-0.1,0.2-0.3,0.3-0.5c0.1-0.2,0.2-0.4,0.3-0.5l0,0c-0.2,0.2-0.3,0.4-0.3,0.5
			c-0.1,0.2-0.2,0.4-0.3,0.5c-0.2,0.2-0.3,0.4-0.4,0.6c0,0.1,0,0.1-0.1,0.2C20.6,18.9,20.5,18.9,20.5,19C20.4,18.9,20.4,19,20.5,19
			c0,0,0.2-0.1,0.3-0.2c0-0.1,0.1-0.1,0.1-0.2c0.1-0.1,0.1-0.3,0.4-0.5c0.2-0.2,0.3-0.3,0.4-0.5c0.1-0.2,0.2-0.3,0.4-0.5
			c-0.2,0.2-0.3,0.3-0.3,0.5c-0.1,0.2-0.2,0.3-0.4,0.5c-0.3,0.2-0.3,0.4-0.4,0.5c0,0.1,0,0.1-0.1,0.2C20.7,18.9,20.5,19,20.5,19
			L20.5,19z"/>
		<path class="st4" d="M21.8,17.1c-0.3,0.4-0.3,0.7-0.6,1C21.5,17.9,21.4,17.5,21.8,17.1L21.8,17.1z"/>
		<path class="st3" d="M22.7,16.1l1.3-3.4c0,0,0-0.1,0-0.1c0,0-0.1,0-0.1,0l-1.5,3.3L22.7,16.1z"/>
		<path class="st4" d="M22.7,16.1L22.7,16.1l1.2-3.4c0,0,0,0,0-0.1l-0.1,0l-1.5,3.3l1.5-3.3c0,0,0,0,0,0l0.1,0c0,0,0,0.1,0,0.1
			L22.7,16.1L22.7,16.1z"/>
		<polygon class="st4" points="22.6,16 23.4,13.7 22.4,16 		"/>
		<path class="st3" d="M23.3,15.1c0.4-0.3,0.3-0.7,0.7-1c0.3-0.3,0.3-0.6,0.4-0.8c0.1-0.2,0.2-0.1,0.2-0.2c0-0.1-0.2,0-0.3,0.2
			c-0.2,0.2-0.1,0.4-0.5,0.7c-0.4,0.4-0.3,0.6-0.7,0.9L23.3,15.1z"/>
		<path class="st4" d="M23.3,15.1L23.3,15.1c0.2-0.2,0.2-0.4,0.3-0.5c0.1-0.2,0.2-0.4,0.3-0.5c0.2-0.2,0.3-0.4,0.4-0.6
			c0-0.1,0-0.1,0.1-0.2c0-0.1,0.1-0.1,0.2-0.2c0,0,0.1,0,0,0c-0.1,0-0.2,0-0.3,0.2c-0.1,0.1-0.1,0.1-0.1,0.2c0,0.1-0.1,0.3-0.4,0.5
			c-0.2,0.2-0.3,0.3-0.4,0.5c-0.1,0.2-0.1,0.3-0.3,0.5c0.2-0.2,0.3-0.3,0.3-0.5c0.1-0.2,0.2-0.3,0.4-0.5c0.3-0.2,0.3-0.4,0.4-0.5
			c0-0.1,0.1-0.1,0.1-0.2c0.1-0.1,0.2-0.2,0.3-0.2l0,0c0,0,0,0-0.1,0.1c0,0-0.1,0.1-0.2,0.1c0,0,0,0.1-0.1,0.2
			c0,0.2-0.1,0.4-0.4,0.6c-0.2,0.1-0.2,0.3-0.3,0.5C23.5,14.7,23.4,14.9,23.3,15.1L23.3,15.1z"/>
		<path class="st4" d="M23.2,14.9c0.3-0.4,0.3-0.7,0.6-1C23.5,14.1,23.6,14.5,23.2,14.9L23.2,14.9z"/>
		<path class="st3" d="M22.6,15.8l-3.4-1.2c0,0-0.1,0-0.1,0c0,0,0,0.1,0,0.1l3.3,1.5L22.6,15.8z"/>
		<path class="st4" d="M22.4,16.2l-3.3-1.5c0,0-0.1,0-0.1-0.1c0,0,0.1,0,0.1,0l3.4,1.2l0,0l-3.4-1.2c0,0-0.1,0-0.1,0
			c0,0,0,0.1,0,0.1L22.4,16.2L22.4,16.2z"/>
		<polygon class="st4" points="22.5,15.9 20.2,15.1 22.5,16.1 		"/>
		<path class="st3" d="M21.6,15.2c-0.3-0.4-0.7-0.3-1-0.7c-0.3-0.3-0.6-0.3-0.8-0.4c-0.2-0.1-0.1-0.2-0.2-0.2c-0.1,0,0,0.2,0.2,0.3
			c0.2,0.1,0.4,0.1,0.7,0.5c0.4,0.4,0.6,0.3,0.9,0.7L21.6,15.2z"/>
		<path class="st4" d="M21.4,15.4c-0.2-0.2-0.3-0.3-0.5-0.3c-0.2-0.1-0.3-0.2-0.5-0.4c-0.2-0.3-0.4-0.3-0.5-0.4
			c-0.1,0-0.1-0.1-0.2-0.1c-0.1-0.1-0.2-0.2-0.2-0.3l0,0c0,0,0,0,0.1,0.1c0,0,0.1,0.1,0.1,0.2c0,0,0.1,0,0.2,0.1
			c0.2,0.1,0.4,0.1,0.6,0.4c0.1,0.2,0.3,0.2,0.5,0.3c0.2,0.1,0.4,0.2,0.5,0.4l0,0c-0.2-0.2-0.4-0.3-0.5-0.3
			c-0.2-0.1-0.4-0.2-0.5-0.3c-0.2-0.2-0.4-0.3-0.6-0.4c-0.1,0-0.1,0-0.2-0.1c-0.1-0.1-0.1-0.1-0.2-0.2c0,0,0-0.1,0,0
			c0,0.1,0,0.2,0.2,0.3c0.1,0,0.1,0.1,0.2,0.1c0.1,0.1,0.3,0.1,0.5,0.4c0.2,0.2,0.3,0.3,0.5,0.4C21.1,15.2,21.2,15.2,21.4,15.4
			L21.4,15.4z"/>
		<path class="st4" d="M21.4,15.3c-0.4-0.3-0.7-0.3-1-0.6C20.6,15,21,14.9,21.4,15.3L21.4,15.3z"/>
		<path class="st3" d="M22.4,16.2l3.4,1.2c0,0,0.1,0,0.1,0c0,0,0-0.1,0-0.1l-3.3-1.5L22.4,16.2z"/>
		<path class="st4" d="M25.8,17.4C25.8,17.4,25.8,17.4,25.8,17.4l-3.4-1.3l0,0L25.8,17.4C25.8,17.4,25.8,17.4,25.8,17.4
			C25.9,17.4,25.8,17.3,25.8,17.4l-3.3-1.6l3.3,1.5C25.9,17.3,25.9,17.4,25.8,17.4C25.9,17.4,25.8,17.4,25.8,17.4L25.8,17.4z"/>
		<polygon class="st4" points="22.5,16.1 24.8,16.9 22.5,15.9 		"/>
		<path class="st3" d="M23.4,16.8c0.3,0.4,0.7,0.3,1,0.7c0.3,0.3,0.6,0.3,0.8,0.4c0.2,0.1,0.1,0.2,0.2,0.2c0,0,0-0.2-0.2-0.3
			c-0.2-0.1-0.4-0.1-0.7-0.5c-0.4-0.4-0.6-0.3-0.9-0.7L23.4,16.8z"/>
		<path class="st4" d="M25.5,18.1C25.4,18.1,25.4,18.1,25.5,18.1c-0.1-0.1-0.1-0.2-0.2-0.2c0,0-0.1,0-0.2-0.1
			c-0.2,0-0.4-0.1-0.6-0.4c-0.1-0.2-0.3-0.2-0.5-0.3c-0.2-0.1-0.4-0.2-0.5-0.3l0,0c0.2,0.2,0.4,0.3,0.5,0.3c0.2,0.1,0.4,0.2,0.5,0.3
			c0.2,0.2,0.4,0.3,0.6,0.4c0.1,0,0.1,0,0.2,0.1C25.4,17.9,25.4,18,25.5,18.1C25.4,18.1,25.5,18.1,25.5,18.1c0-0.1,0-0.2-0.2-0.3
			c-0.1,0-0.1-0.1-0.2-0.1c-0.1-0.1-0.3-0.1-0.5-0.4c-0.2-0.2-0.3-0.3-0.5-0.4c-0.1-0.1-0.3-0.2-0.4-0.4c0.2,0.2,0.3,0.3,0.5,0.3
			c0.2,0.1,0.3,0.2,0.5,0.4c0.2,0.3,0.4,0.3,0.5,0.4c0.1,0,0.1,0,0.2,0.1C25.5,17.9,25.5,18,25.5,18.1L25.5,18.1
			C25.5,18.1,25.5,18.1,25.5,18.1L25.5,18.1z"/>
		<path class="st4" d="M23.6,16.7c0.3,0.3,0.7,0.3,1,0.6C24.4,17,24,17.1,23.6,16.7L23.6,16.7z"/>
		<path class="st3" d="M22.4,15.8l-3.3,1.5c0,0-0.1,0,0,0.1c0,0,0.1,0,0.1,0l3.4-1.2L22.4,15.8z"/>
		<path class="st4" d="M19.2,17.4C19.2,17.4,19.1,17.4,19.2,17.4c-0.1-0.1,0-0.1,0-0.1l3.3-1.5l0,0L19.2,17.4
			C19.2,17.3,19.1,17.4,19.2,17.4C19.2,17.4,19.2,17.4,19.2,17.4l3.4-1.3L19.2,17.4C19.2,17.4,19.2,17.4,19.2,17.4L19.2,17.4z"/>
		<polygon class="st4" points="22.5,15.9 20.2,16.9 22.5,16.1 		"/>
		<path class="st3" d="M21.3,16.1c-0.5,0-0.8,0.3-1.2,0.2c-0.4,0-0.7,0.2-0.9,0.3c-0.2,0.1-0.3-0.1-0.3,0c0,0,0.1,0.2,0.4,0.1
			c0.2,0,0.3-0.2,0.9-0.2c0.5,0,0.7-0.2,1.2-0.2V16.1z"/>
		<path class="st4" d="M19.2,16.8c-0.1,0-0.2-0.1-0.3-0.1l0-0.1c0,0,0,0,0.1,0c0,0,0.1,0,0.2,0c0,0,0.1,0,0.2-0.1
			c0.2-0.1,0.4-0.2,0.7-0.2c0.2,0,0.4,0,0.6-0.1c0.2-0.1,0.4-0.1,0.6-0.1v0c-0.2,0-0.4,0.1-0.6,0.1c-0.2,0.1-0.4,0.1-0.6,0.1
			c-0.3,0-0.5,0.1-0.7,0.2c-0.1,0-0.1,0.1-0.2,0.1c-0.1,0-0.2,0-0.2,0c0,0-0.1,0-0.1,0C19,16.7,19.1,16.8,19.2,16.8
			c0.2,0,0.2-0.1,0.3-0.1c0.1-0.1,0.3-0.1,0.6-0.1c0.3,0,0.4,0,0.6-0.1c0.2-0.1,0.3-0.1,0.6-0.1c-0.3,0-0.4,0-0.6,0.1
			c-0.2,0.1-0.3,0.1-0.6,0.1c-0.4,0-0.5,0-0.6,0.1C19.4,16.7,19.4,16.7,19.2,16.8C19.3,16.8,19.2,16.8,19.2,16.8L19.2,16.8z"/>
		<path class="st4" d="M21.2,16.2c-0.5,0-0.7,0.3-1.1,0.2C20.4,16.6,20.7,16.3,21.2,16.2L21.2,16.2z"/>
		<path class="st3" d="M22.6,16.2l3.3-1.5c0,0,0.1,0,0-0.1c0,0-0.1,0-0.1,0l-3.4,1.2L22.6,16.2z"/>
		<path class="st4" d="M22.6,16.2L22.6,16.2l3.2-1.5c0,0,0.1,0,0-0.1c0,0-0.1,0-0.1,0l-3.4,1.2l3.3-1.3c0,0,0.1,0,0.1,0
			c0,0,0,0.1,0,0.1L22.6,16.2L22.6,16.2z"/>
		<polygon class="st4" points="22.5,16.1 24.8,15.1 22.5,15.9 		"/>
		<path class="st3" d="M23.7,15.9c0.5,0,0.8-0.3,1.2-0.2c0.4,0,0.7-0.2,0.9-0.3c0.2-0.1,0.3,0.1,0.3,0c0,0-0.1-0.2-0.4-0.1
			c-0.2,0-0.3,0.2-0.9,0.2c-0.5,0-0.7,0.2-1.2,0.2V15.9z"/>
		<path class="st4" d="M23.7,15.9C23.7,15.9,23.7,15.9,23.7,15.9L23.7,15.9c0.2,0,0.4-0.1,0.6-0.2c0.2-0.1,0.4-0.1,0.6-0.1
			c0.3,0,0.5-0.1,0.7-0.2c0.1,0,0.1-0.1,0.2-0.1c0.1,0,0.2,0,0.2,0c0,0,0.1,0,0.1,0c0-0.1-0.2-0.1-0.3-0.1c-0.1,0-0.1,0-0.2,0.1
			c-0.1,0.1-0.3,0.1-0.6,0.1c-0.3,0-0.4,0-0.6,0.1c-0.2,0.1-0.3,0.1-0.6,0.1c0.2,0,0.4,0,0.6-0.1c0.2-0.1,0.3-0.1,0.6-0.1
			c0.4,0,0.5,0,0.6-0.1c0.1,0,0.1-0.1,0.2-0.1c0.2,0,0.3,0,0.4,0.1l0,0.1c0,0,0,0-0.1,0c0,0-0.1,0-0.2,0c0,0-0.1,0-0.2,0.1
			c-0.2,0.1-0.4,0.2-0.7,0.2c-0.2,0-0.4,0-0.6,0.1C24.2,15.8,24,15.9,23.7,15.9L23.7,15.9z"/>
		<path class="st4" d="M23.8,15.8c0.5,0,0.7-0.3,1.1-0.2C24.6,15.4,24.3,15.7,23.8,15.8L23.8,15.8z"/>
		<path class="st3" d="M22.7,15.9l-1.5-3.3c0,0,0-0.1-0.1,0c0,0,0,0.1,0,0.1l1.2,3.4L22.7,15.9z"/>
		<path class="st4" d="M22.3,16.1l-1.3-3.3c0,0,0,0,0-0.1l0.1,0c0,0,0,0,0,0l1.5,3.3l0,0l-1.5-3.3l0,0l0,0.1L22.3,16.1L22.3,16.1z"
			/>
		<polygon class="st4" points="22.6,16 21.6,13.7 22.4,16 		"/>
		<path class="st3" d="M22.4,14.8c0-0.5-0.3-0.8-0.2-1.2c0-0.4-0.2-0.7-0.3-0.9c-0.1-0.2,0.1-0.3,0-0.3c-0.1,0-0.2,0.1-0.1,0.4
			c0,0.2,0.2,0.3,0.2,0.9c0,0.5,0.2,0.7,0.2,1.2L22.4,14.8z"/>
		<path class="st4" d="M22.4,14.8L22.4,14.8c0-0.2-0.1-0.4-0.2-0.6c-0.1-0.2-0.1-0.4-0.1-0.6c0-0.3-0.1-0.5-0.2-0.7
			c0-0.1-0.1-0.1-0.1-0.2c0-0.1,0-0.2,0-0.2c0,0,0-0.1,0-0.1c-0.1,0-0.1,0.2-0.1,0.3c0,0.1,0,0.1,0.1,0.2c0.1,0.1,0.1,0.3,0.1,0.6
			c0,0.3,0,0.4,0.1,0.6c0.1,0.2,0.1,0.3,0.1,0.6c0-0.2,0-0.4-0.1-0.6c-0.1-0.2-0.1-0.3-0.1-0.6c0-0.4,0-0.5-0.1-0.6
			c0-0.1-0.1-0.1-0.1-0.2c0-0.2,0-0.3,0.1-0.4l0.1,0c0,0,0,0,0,0.1c0,0,0,0.1,0,0.2c0,0,0,0.1,0.1,0.2c0.1,0.2,0.2,0.4,0.2,0.7
			c0,0.2,0,0.4,0.1,0.6C22.3,14.4,22.4,14.6,22.4,14.8L22.4,14.8z"/>
		<path class="st4" d="M22.3,14.7c0-0.5-0.3-0.7-0.2-1.1C21.9,13.9,22.2,14.2,22.3,14.7L22.3,14.7z"/>
		<path class="st3" d="M22.3,16.1l1.5,3.3c0,0,0,0.1,0.1,0c0,0,0-0.1,0-0.1l-1.3-3.4L22.3,16.1z"/>
		<path class="st4" d="M23.9,19.4C23.8,19.4,23.8,19.3,23.9,19.4l-1.6-3.3l0,0L23.9,19.4C23.8,19.3,23.9,19.4,23.9,19.4
			C23.9,19.3,23.9,19.3,23.9,19.4l-1.2-3.4L23.9,19.4C23.9,19.3,23.9,19.4,23.9,19.4L23.9,19.4z"/>
		<polygon class="st4" points="22.4,16 23.4,18.3 22.6,16 		"/>
		<path class="st3" d="M22.6,17.2c0,0.5,0.3,0.8,0.2,1.2c0,0.4,0.2,0.7,0.3,0.9c0.1,0.2-0.1,0.3,0,0.3c0,0,0.2-0.1,0.1-0.4
			c0-0.2-0.2-0.3-0.2-0.9c0-0.5-0.2-0.7-0.2-1.2L22.6,17.2z"/>
		<path class="st4" d="M23.1,19.6C23.1,19.6,23.1,19.5,23.1,19.6c0-0.1,0-0.2,0-0.3c0,0,0-0.1-0.1-0.2c-0.1-0.2-0.2-0.4-0.2-0.7
			c0-0.2,0-0.4-0.1-0.6c-0.1-0.2-0.1-0.4-0.1-0.6l0,0c0,0.2,0.1,0.4,0.1,0.6c0.1,0.2,0.1,0.4,0.1,0.6c0,0.3,0.1,0.5,0.2,0.7
			c0,0.1,0.1,0.1,0.1,0.2C23.2,19.4,23.2,19.4,23.1,19.6C23.1,19.5,23.1,19.6,23.1,19.6c0.1-0.1,0.1-0.2,0.1-0.4
			c0-0.1,0-0.1-0.1-0.2c-0.1-0.1-0.1-0.3-0.1-0.6c0-0.3,0-0.4-0.1-0.6c-0.1-0.2-0.1-0.3-0.1-0.6c0,0.2,0,0.4,0.1,0.6
			c0,0.2,0.1,0.3,0.1,0.6c0,0.4,0,0.5,0.1,0.6c0,0.1,0.1,0.1,0.1,0.2C23.3,19.4,23.2,19.5,23.1,19.6L23.1,19.6L23.1,19.6z"/>
		<path class="st4" d="M22.7,17.3c0,0.5,0.3,0.7,0.2,1.1C23.1,18.1,22.8,17.8,22.7,17.3L22.7,17.3z"/>
		<path class="st3" d="M22.5,14.5c0.8,0,1.5,0.7,1.5,1.5c0,0.8-0.6,1.5-1.5,1.5c-0.8,0-1.5-0.7-1.5-1.5C21,15.2,21.7,14.5,22.5,14.5
			L22.5,14.5z"/>
		<path class="st4" d="M22.5,17.5c-0.8,0-1.5-0.7-1.5-1.5c0-0.8,0.7-1.5,1.5-1.5c0.8,0,1.5,0.7,1.5,1.5C24,16.8,23.3,17.5,22.5,17.5
			L22.5,17.5z M22.5,14.6c-0.8,0-1.5,0.6-1.5,1.4c0,0.8,0.7,1.5,1.5,1.5c0.8,0,1.4-0.6,1.4-1.5C23.9,15.2,23.3,14.6,22.5,14.6
			L22.5,14.6z"/>
		<path class="st4" d="M23.4,15.7c-0.3-0.2-0.6-0.3-0.8-0.1c-0.1,0.2-0.1,0.4,0,0.6c0,0,0,0,0,0c-0.1-0.2-0.1-0.4-0.1-0.6
			C22.8,15.4,23.2,15.4,23.4,15.7L23.4,15.7z"/>
		<path class="st4" d="M23,15.6c-0.2,0-0.2,0-0.2,0.1c-0.1,0.1-0.1,0-0.1,0.1c0,0,0,0,0,0c0,0,0.1,0,0.1-0.1
			C22.9,15.7,23,15.7,23,15.6c0.2,0,0.3,0.2,0.3,0.2C23.4,15.8,23.2,15.6,23,15.6L23,15.6z"/>
		<path class="st4" d="M23.3,15.8c-0.1-0.2-0.4-0.2-0.5,0h0C22.9,15.6,23.2,15.7,23.3,15.8L23.3,15.8L23.3,15.8z"/>
		<path class="st4" d="M23,15.7c0.1,0,0.1,0,0.1,0.1c0,0.1,0,0.1-0.1,0.1c-0.1,0-0.1,0-0.1-0.1C22.9,15.7,22.9,15.7,23,15.7L23,15.7
			z"/>
		<path class="st4" d="M22.7,15.8c0.1,0.1,0.4,0.1,0.5,0l-0.1,0C23.1,15.9,22.9,15.9,22.7,15.8L22.7,15.8L22.7,15.8z"/>
		<path class="st4" d="M23.3,15.9c-0.2,0.1-0.4,0.1-0.5,0.1c-0.1-0.1-0.1-0.1-0.1-0.1c0,0,0,0,0.1,0.1C22.9,16,23.1,16,23.3,15.9
			L23.3,15.9z"/>
		<path class="st4" d="M22.7,16.2C22.8,16.2,22.8,16.3,22.7,16.2c0,0.1,0,0.1,0,0.1C22.7,16.3,22.7,16.3,22.7,16.2
			c-0.1,0.1-0.1,0.2-0.2,0.2h0l0,0c0,0,0.1,0,0.1,0c0,0,0.1,0.1,0.1,0C22.8,16.4,22.8,16.3,22.7,16.2C22.8,16.2,22.8,16.2,22.7,16.2
			L22.7,16.2z"/>
		<path class="st4" d="M22.9,16.7c-0.1-0.1-0.1-0.2-0.3-0.2c0,0-0.1,0-0.1,0h0l0,0c0,0,0.1-0.1,0.2,0C22.8,16.6,22.8,16.7,22.9,16.7
			L22.9,16.7z"/>
		<path class="st4" d="M22.8,16.7c-0.2-0.1-0.3,0-0.3,0h0l0,0C22.6,16.7,22.6,16.6,22.8,16.7L22.8,16.7z"/>
		<path class="st4" d="M22.9,16.7c-0.2,0-0.2,0.1-0.4,0.1h0l0,0C22.7,16.8,22.6,16.7,22.9,16.7L22.9,16.7z"/>
		<path class="st4" d="M22.7,17c0-0.1-0.1-0.2-0.2-0.2c-0.1,0-0.2,0.1-0.2,0.2c0-0.1,0.1-0.2,0.3-0.2C22.6,16.9,22.7,17,22.7,17
			L22.7,17z"/>
		<path class="st4" d="M21.6,15.7c0.3-0.2,0.6-0.3,0.8-0.1c0.1,0.2,0.1,0.4,0,0.6c0,0,0,0,0,0c0.1-0.2,0.1-0.4,0.1-0.6
			C22.2,15.4,21.8,15.4,21.6,15.7L21.6,15.7z"/>
		<path class="st4" d="M22,15.6c0.1,0,0.2,0,0.2,0.1c0.1,0.1,0.1,0,0.1,0.1c0,0,0,0,0,0c0,0-0.1,0-0.1-0.1
			C22.1,15.7,22.1,15.7,22,15.6c-0.2,0-0.3,0.2-0.3,0.2C21.6,15.8,21.8,15.6,22,15.6L22,15.6z"/>
		<path class="st4" d="M21.7,15.8c0.1-0.2,0.4-0.2,0.5,0h0C22.1,15.6,21.8,15.7,21.7,15.8L21.7,15.8L21.7,15.8z"/>
		<path class="st4" d="M22,15.7c-0.1,0-0.1,0-0.1,0.1c0,0.1,0,0.1,0.1,0.1c0.1,0,0.1,0,0.1-0.1C22.1,15.7,22.1,15.7,22,15.7L22,15.7
			z"/>
		<path class="st4" d="M22.3,15.8c-0.1,0.1-0.4,0.1-0.5,0l0.1,0C21.9,15.9,22.1,15.9,22.3,15.8L22.3,15.8L22.3,15.8z"/>
		<path class="st4" d="M21.7,15.9c0.2,0.1,0.4,0.1,0.5,0.1c0.1-0.1,0.1-0.1,0.1-0.1c0,0,0,0-0.1,0.1C22.1,16,21.9,16,21.7,15.9
			L21.7,15.9z"/>
		<path class="st4" d="M22.3,16.2C22.2,16.2,22.2,16.3,22.3,16.2c0,0.1,0,0.1,0,0.1C22.3,16.3,22.4,16.3,22.3,16.2
			c0.1,0.1,0.1,0.2,0.2,0.2h0l0,0c0,0-0.1,0-0.1,0c0,0-0.1,0.1-0.1,0C22.2,16.4,22.2,16.3,22.3,16.2C22.2,16.2,22.2,16.2,22.3,16.2
			L22.3,16.2z"/>
		<path class="st4" d="M22.1,16.7c0.1-0.1,0.1-0.2,0.3-0.2c0,0,0.1,0,0.1,0h0l0,0c0,0-0.1-0.1-0.2,0C22.2,16.6,22.2,16.7,22.1,16.7
			L22.1,16.7z"/>
		<path class="st4" d="M22.2,16.7c0.2-0.1,0.3,0,0.3,0h0l0,0C22.4,16.7,22.4,16.6,22.2,16.7L22.2,16.7z"/>
		<path class="st4" d="M22.1,16.7c0.2,0,0.2,0.1,0.4,0.1h0l0,0C22.3,16.8,22.4,16.7,22.1,16.7L22.1,16.7z"/>
		<path class="st4" d="M22.3,17c0-0.1,0.1-0.2,0.2-0.2c0.1,0,0.2,0.1,0.2,0.2c0-0.1-0.1-0.2-0.3-0.2C22.4,16.9,22.3,17,22.3,17
			L22.3,17z"/>
	</g>
</g>
</svg>
