<?xml version="1.0" encoding="utf-8"?>
<!-- Generator: Adobe Illustrator 22.1.0, SVG Export Plug-In . SVG Version: 6.00 Build 0)  -->
<svg version="1.1" id="Layer_1" xmlns="http://www.w3.org/2000/svg" xmlns:xlink="http://www.w3.org/1999/xlink" x="0px" y="0px"
	 viewBox="0 0 24 24" style="enable-background:new 0 0 24 24;" xml:space="preserve">
<style type="text/css">
	.st0{fill:none;}
	.st1{fill:#00141E;}
</style>
<g>
	<path class="st0" d="M0,0h24v24H0V0z"/>
	<path class="st1" d="M16,6v11.5c0,2.2-1.8,4-4,4s-4-1.8-4-4V5c0-1.4,1.1-2.5,2.5-2.5S13,3.6,13,5v10.5c0,0.5-0.4,1-1,1s-1-0.5-1-1
		V6H9.5v9.5c0,1.4,1.1,2.5,2.5,2.5s2.5-1.1,2.5-2.5V5c0-2.2-1.8-4-4-4s-4,1.8-4,4v12.5c0,3,2.5,5.5,5.5,5.5s5.5-2.5,5.5-5.5V6H16z"
		/>
</g>
</svg>
