<?xml version="1.0" encoding="utf-8"?>
<!-- Generator: Adobe Illustrator 22.1.0, SVG Export Plug-In . SVG Version: 6.00 Build 0)  -->
<svg version="1.1" id="Layer_1" xmlns="http://www.w3.org/2000/svg" xmlns:xlink="http://www.w3.org/1999/xlink" x="0px" y="0px"
	 viewBox="0 0 45 32" style="enable-background:new 0 0 45 32;" xml:space="preserve">
<style type="text/css">
	.st0{fill:none;}
	.st1{fill:#180087;}
	.st2{fill:#FFFFFF;}
	.st3{fill:#EA0020;}
</style>
<g>
	<path class="st0" d="M0,0h45v32H0V0z"/>
	<path class="st1" d="M0,0h45v32H0V0z"/>
	<path class="st2" d="M11.8,18.5l0.7,2.1l2.1-0.8l-1.2,1.9l1.9,1.1L13.1,23l0.3,2.2l-1.5-1.6l-1.5,1.6l0.3-2.2l-2.2-0.2l1.9-1.1
		l-1.2-1.9l2.1,0.8L11.8,18.5z M35.2,23.3l-1-0.4l0.6,0.9l-0.9,0.5l1.1,0.1l-0.1,1.1l0.7-0.8l0.7,0.8l-0.2-1.1l1.1-0.1l-0.9-0.5
		l0.6-0.9l-1,0.4l-0.3-1L35.2,23.3z M29.3,13.9l-1-0.4l0.6,0.9L27.9,15l1.1,0.1l-0.1,1.1l0.7-0.8l0.7,0.8l-0.1-1.1l1.1-0.1l-0.9-0.5
		l0.6-0.9l-1,0.4l-0.3-1L29.3,13.9z M35.2,7.5l-1-0.4L34.8,8l-0.9,0.5l1.1,0.1l-0.1,1.1l0.7-0.8l0.7,0.8l-0.2-1.1l1.1-0.1L36.3,8
		l0.6-0.9l-1,0.4l-0.3-1L35.2,7.5z M40.5,12.3l-1-0.4l0.6,0.9l-0.9,0.5l1.1,0.1L40,14.6l0.7-0.8l0.7,0.8l-0.2-1.1l1.1-0.1l-0.9-0.5
		l0.6-0.9l-1,0.4l-0.3-1L40.5,12.3z M37.6,16.7l-0.7,0l0.5,0.4l-0.2,0.7l0.6-0.4l0.6,0.4l-0.2-0.7l0.5-0.4l-0.7,0l-0.3-0.6
		L37.6,16.7z"/>
	<g>
		<polygon class="st2" points="11.1,0 11.1,4.4 0,4.4 0,8.9 11.1,8.9 11.1,13.3 15.5,13.3 15.5,8.9 26.6,8.9 26.6,4.4 15.5,4.4 
			15.5,0 		"/>
		<polygon class="st2" points="0,0 0,1.5 23.7,13.3 26.6,13.3 26.6,11.8 3,0 		"/>
		<polygon class="st2" points="23.7,0 0,11.8 0,13.3 3,13.3 26.6,1.5 26.6,0 		"/>
		<polygon class="st3" points="12,0 12,5.3 0,5.3 0,8 12,8 12,13.3 14.7,13.3 14.7,8 26.6,8 26.6,5.3 14.7,5.3 14.7,0 		"/>
		<path class="st3" d="M0,0v1l6.9,3.4h2L0,0z M24.7,0l-8.9,4.4h2L26.6,0H24.7z"/>
		<path class="st3" d="M8.9,8.9L0,13.3h2l8.9-4.4H8.9z M17.8,8.9l8.9,4.4v-1l-6.9-3.4H17.8z"/>
	</g>
</g>
</svg>
