<?xml version="1.0" encoding="utf-8"?>
<!-- Generator: Adobe Illustrator 22.1.0, SVG Export Plug-In . SVG Version: 6.00 Build 0)  -->
<svg version="1.1" id="Layer_1" xmlns="http://www.w3.org/2000/svg" xmlns:xlink="http://www.w3.org/1999/xlink" x="0px" y="0px"
	 viewBox="0 0 45 32" style="enable-background:new 0 0 45 32;" xml:space="preserve">
<style type="text/css">
	.st0{fill:none;}
	.st1{fill:#438FC3;}
	.st2{fill:#D6003F;}
	.st3{fill:#48AE68;}
	.st4{fill:#FFFFFF;}
</style>
<g>
	<path class="st0" d="M0,0h45v32H0V0z"/>
	<path class="st1" d="M0,0h45v32H0V0z"/>
	<path class="st2" d="M0,10.7h45v10.7H0V10.7z"/>
	<path class="st3" d="M0,21.3h45V32H0V21.3z"/>
	<path class="st4" d="M22.5,19.1c0.6,0,1.2-0.2,1.7-0.5c-0.7,0.7-1.6,1.1-2.6,1.1c-2,0-3.7-1.6-3.7-3.7c0-2,1.6-3.7,3.7-3.7
		c1,0,2,0.4,2.6,1.1c-0.5-0.3-1.1-0.5-1.7-0.5c-1.7,0-3.1,1.4-3.1,3.1S20.8,19.1,22.5,19.1 M26.1,16.4l1-0.4l-1-0.4l0.5-1l-1,0.5
		l-0.4-1l-0.4,1l-1-0.5l0.5,1l-1,0.4l1,0.4l-0.5,1l1-0.5l0.4,1l0.4-1l1,0.5L26.1,16.4z"/>
</g>
</svg>
