<?xml version="1.0" encoding="utf-8"?>
<!-- Generator: Adobe Illustrator 22.1.0, SVG Export Plug-In . SVG Version: 6.00 Build 0)  -->
<svg version="1.1" id="Layer_1" xmlns="http://www.w3.org/2000/svg" xmlns:xlink="http://www.w3.org/1999/xlink" x="0px" y="0px"
	 viewBox="0 0 52 52" style="enable-background:new 0 0 52 52;" xml:space="preserve">
<style type="text/css">
	.st0{fill:#D9D9D9;}
	.st1{fill:#677378;}
</style>
<g id="big-plus" transform="translate(75 -453)">
	<g id="big-plus-2" transform="translate(-75 453)">
		<path id="Group_1062" class="st0" d="M0,42V10C0,4.5,4.5,0,10,0h32c5.5,0,10,4.5,10,10v32c0,5.5-4.5,10-10,10H10
			C4.5,52,0,47.5,0,42z"/>
		<path class="st1" d="M38,26c0,0.8-0.7,1.5-1.5,1.5h-9v9c0,0.8-0.7,1.5-1.5,1.5s-1.5-0.7-1.5-1.5v-9h-9c-0.8,0-1.5-0.7-1.5-1.5
			s0.7-1.5,1.5-1.5h9v-9c0-0.8,0.7-1.5,1.5-1.5s1.5,0.7,1.5,1.5v9h9C37.3,24.5,38,25.2,38,26z"/>
	</g>
</g>
</svg>
