<?xml version="1.0" encoding="utf-8"?>
<!-- Generator: Adobe Illustrator 22.1.0, SVG Export Plug-In . SVG Version: 6.00 Build 0)  -->
<svg version="1.1" id="Layer_1" xmlns="http://www.w3.org/2000/svg" xmlns:xlink="http://www.w3.org/1999/xlink" x="0px" y="0px"
	 viewBox="0 0 56 56" style="enable-background:new 0 0 56 56;" xml:space="preserve">
<style type="text/css">
	.st0{fill:#7A6AE9;}
	.st1{fill:#FFFFFF;}
</style>
<g>
	<path class="st0" d="M28,0c15.5,0,28,12.5,28,28S43.5,56,28,56S0,43.5,0,28S12.5,0,28,0z"/>
	<g>
		<path class="st1" d="M40,32.4L40,32.4c0,0.4-0.3,0.7-0.7,0.7h-3.7v3.6c0,0.4-0.3,0.7-0.7,0.7c-0.4,0-0.7-0.3-0.7-0.7v-3.6h-3.7
			c-0.4,0-0.7-0.3-0.7-0.7c0-0.3,0.3-0.7,0.7-0.7h3.6V28c0-0.4,0.3-0.7,0.7-0.7c0.4,0,0.7,0.3,0.7,0.7v3.6h3.6
			C39.7,31.7,40,32,40,32.4z"/>
		<path class="st1" d="M27.9,31.7v1.6H26l-5.7,3c-0.1,0.1-0.3,0.1-0.4,0.1c-0.2,0-0.4-0.1-0.5-0.2c-0.3-0.3-0.3-0.5-0.3-0.8l0.4-2.2
			h-0.3c-1.8,0-3.3-1.5-3.3-3.3v-8.1c0-1.8,1.4-3.3,3.3-3.3h13.1c0.8,0,1.7,0.3,2.4,1c0.6,0.6,0.9,1.4,0.8,2.3v3.6h-1.4v-3.7
			c0-0.9-0.8-1.8-1.8-1.8h-13c-0.9,0-1.8,0.8-1.8,1.8v8.1c0,0.9,0.8,1.8,1.8,1.8h1.2c0.2,0,0.3,0.1,0.6,0.3c0.2,0.2,0.2,0.5,0.2,0.7
			l-0.3,1.6l4.5-2.4c0.1,0,0.2,0,0.3-0.1l0,0H27.9z"/>
	</g>
</g>
</svg>
