<?xml version="1.0" encoding="utf-8"?>
<!-- Generator: Adobe Illustrator 22.1.0, SVG Export Plug-In . SVG Version: 6.00 Build 0)  -->
<svg version="1.1" id="Layer_1" xmlns="http://www.w3.org/2000/svg" xmlns:xlink="http://www.w3.org/1999/xlink" x="0px" y="0px"
	 viewBox="0 0 36 36" style="enable-background:new 0 0 36 36;" xml:space="preserve">
<style type="text/css">
	.st0{fill:#677378;}
</style>
<g>
	<path class="st0" d="M32,1c1.7,0,3,1.3,3,3v28c0,1.7-1.3,3-3,3H4c-1.7,0-3-1.3-3-3V4c0-1.7,1.3-3,3-3H32 M32,0H4C1.8,0,0,1.8,0,4
		v28c0,2.2,1.8,4,4,4h28c2.2,0,4-1.8,4-4V4C36,1.8,34.2,0,32,0L32,0z"/>
	<path id="close" transform="translate(0 12.375) rotate(-45)" class="st0" d="M9.7,15.8V5.6H7.8v10.1H-2.3v1.9H7.8v10.1h1.9V17.7
		h10.1v-1.9H9.7z"/>
</g>
</svg>
