<?xml version="1.0" encoding="utf-8"?>
<!-- Generator: Adobe Illustrator 22.1.0, SVG Export Plug-In . SVG Version: 6.00 Build 0)  -->
<svg version="1.1" id="Layer_1" xmlns="http://www.w3.org/2000/svg" xmlns:xlink="http://www.w3.org/1999/xlink" x="0px" y="0px"
	 viewBox="0 0 85 85" style="enable-background:new 0 0 85 85;" xml:space="preserve">
<style type="text/css">
	.st0{fill:none;}
	.st1{fill:#00141E;}
</style>
<g id="logo" transform="translate(0.002)">
	<g id="_1" transform="translate(-0.002)">
		<path class="st0" d="M0,0h85v85H0V0z"/>
		<path id="Path_2379" class="st1" d="M76.6,46.3l7.7,7.6c0.4,0.4,0.7,1,0.7,1.6v18c0,1.2-1,2.2-2.2,2.2c-0.6,0-1.1-0.2-1.5-0.6
			L64.4,58.5c-0.9-0.8-0.9-2.2,0-3.1c0,0,0,0,0,0l9.1-9C74.4,45.5,75.7,45.5,76.6,46.3L76.6,46.3z M62.6,28.3l-2.2,2.1L48.2,42.5
			L35.9,54.6l0,0L25.2,44.1c-0.9-0.8-0.9-2.2,0-3.1c0,0,0,0,0,0l9.2-9c0.9-0.8,2.2-0.8,3.1,0l6.4,6.3c0.9,0.8,2.2,0.8,3.1,0l9.1-9
			c0.9-0.8,0.9-2.2,0-3.1c0,0,0,0,0,0L37.4,7.8c-0.9-0.8-2.2-0.8-3.1,0L0.7,40.9c-0.9,0.8-0.9,2.2,0,3.1c0,0,0,0,0,0l33.7,33.2
			c0.9,0.8,2.2,0.8,3.1,0l19.7-19.4l3.3-3.3l0,0l12.3-12.1l2.9-2.9l8.7-8.6c0.4-0.4,0.7-1,0.7-1.6v-18c0-1.2-1-2.2-2.2-2.2
			c-0.6,0-1.1,0.2-1.5,0.6L62.6,28.3z"/>
	</g>
</g>
</svg>
