<?xml version="1.0" encoding="utf-8"?>
<!-- Generator: Adobe Illustrator 22.1.0, SVG Export Plug-In . SVG Version: 6.00 Build 0)  -->
<svg version="1.1" id="Layer_1" xmlns="http://www.w3.org/2000/svg" xmlns:xlink="http://www.w3.org/1999/xlink" x="0px" y="0px"
	 viewBox="0 0 40 40" style="enable-background:new 0 0 40 40;" xml:space="preserve">
<style type="text/css">
	.st0{fill:none;}
	.st1{fill:#00141E;}
	.st2{fill:#5856D6;}
</style>
<g>
	<path class="st0" d="M0,0h40v40H0V0z"/>
	<path class="st1" d="M40,28.1v2.1c0,0.7-0.6,1.3-1.3,1.3h-6.3c-0.7,0-1.3-0.6-1.3-1.3c0-0.7,0.6-1.3,1.3-1.3h5v-0.8
		c0-0.1,0-0.1-0.1-0.1c-1.8-1.4-3.7-2.4-4-2.6c-0.5-0.2-0.8-0.7-0.8-1.3v-2.9c0-0.4,0.2-0.8,0.6-1.1V17c0-0.8-0.6-1.4-1.4-1.4h-0.6
		c-0.8,0-1.4,0.6-1.4,1.4v3c0.4,0.3,0.6,0.7,0.6,1.1v1.4c0,0.7-0.6,1.3-1.3,1.3c-0.7,0-1.3-0.6-1.3-1.3v-0.8
		c-0.4-0.5-0.6-1.1-0.6-1.7v-3c0-2.2,1.8-4,4-4h0.6c2.2,0,4,1.8,4,4v3c0,0.6-0.2,1.2-0.6,1.7v1.6C36,24,37.6,24.9,39,26
		C39.6,26.5,40,27.3,40,28.1z"/>
	<path class="st1" d="M12.9,17.1v3c0,0.6-0.2,1.2-0.6,1.7v0.9c0,0.7-0.6,1.3-1.3,1.3s-1.3-0.6-1.3-1.3v-1.5c0-0.4,0.2-0.8,0.6-1.1
		V17c0-0.8-0.6-1.4-1.4-1.4H8.2c-0.8,0-1.4,0.6-1.4,1.4v3c0.4,0.3,0.6,0.7,0.6,1.1V24c0,0.5-0.3,1-0.8,1.3c0,0-2.1,1-4,2.6L2.5,28
		v0.8h5.1c0.7,0,1.3,0.6,1.3,1.3c0,0.7-0.6,1.3-1.3,1.3H1.3c-0.7,0-1.3-0.6-1.3-1.3v-2c0-0.8,0.4-1.6,1-2.1c1.4-1.2,3-2.1,3.9-2.6
		v-1.6c-0.4-0.5-0.6-1.1-0.6-1.7v-3c0-2.2,1.8-4,4-4h0.6C11.1,13.2,12.9,14.9,12.9,17.1z"/>
	<path class="st2" d="M29.6,25.1c-2-1.6-4.1-2.8-5.2-3.4v-2.5c0.5-0.5,0.8-1.3,0.8-2v-3.9c0-2.6-2.1-4.8-4.8-4.8h-0.8
		c-2.6,0-4.8,2.1-4.8,4.8v3.9c0,0.8,0.3,1.5,0.8,2v2.5c-1,0.5-3.2,1.8-5.2,3.4c-0.7,0.6-1.1,1.5-1.1,2.4v2.7c0,0.7,0.6,1.3,1.3,1.3
		h18.9c0.7,0,1.3-0.6,1.3-1.3v-2.7C30.7,26.6,30.3,25.7,29.6,25.1z M11.8,27.5c0-0.2,0.1-0.4,0.2-0.5c2.3-1.9,4.8-3.2,5.3-3.4
		c0.5-0.2,0.8-0.8,0.8-1.3v-3.7c0-0.4-0.2-0.8-0.6-1.1c-0.1-0.1-0.2-0.2-0.2-0.4v-3.9c0-1.2,1-2.2,2.2-2.2h0.8c1.2,0,2.2,1,2.2,2.2
		v3.9c0,0.2-0.1,0.3-0.2,0.4c-0.4,0.2-0.6,0.6-0.6,1.1v3.7c0,0.5,0.3,1.1,0.8,1.3c0.7,0.3,3.1,1.6,5.3,3.4l0,0
		c0.1,0.1,0.2,0.3,0.2,0.5v1.4H11.8V27.5z"/>
</g>
</svg>
