<?xml version="1.0" encoding="utf-8"?>
<!-- Generator: Adobe Illustrator 22.1.0, SVG Export Plug-In . SVG Version: 6.00 Build 0)  -->
<svg version="1.1" id="Layer_1" xmlns="http://www.w3.org/2000/svg" xmlns:xlink="http://www.w3.org/1999/xlink" x="0px" y="0px"
	 viewBox="0 0 40 40" style="enable-background:new 0 0 40 40;" xml:space="preserve">
<style type="text/css">
	.st0{fill:none;}
	.st1{fill:#5856D6;}
	.st2{fill:#00141E;}
</style>
<g>
	<path class="st0" d="M0,0h40v40H0V0z"/>
	<path class="st1" d="M38.7,25.1c0,0.8-0.7,1.5-1.5,1.5h-7.1v7.1c0,0.8-0.7,1.5-1.5,1.5s-1.5-0.7-1.5-1.5v-7.1H20
		c-0.8,0-1.5-0.7-1.5-1.5s0.7-1.5,1.5-1.5h7.1v-7.1c0-0.8,0.7-1.5,1.5-1.5s1.5,0.7,1.5,1.5v7.1h7.1C38,23.6,38.7,24.3,38.7,25.1z"/>
	<path class="st2" d="M20.2,10.4v4.2c0,0.9-0.3,1.7-0.8,2.3v3.2c0,1-0.8,1.8-1.8,1.8s-1.8-0.8-1.8-1.8v-4c0-0.6,0.3-1.2,0.8-1.5
		v-4.3c0-1.1-0.9-2-2-2h-1.9c-1.1,0-2,0.9-2,2v4.2c0.5,0.4,0.8,1,0.8,1.6v4c0,0.8-0.4,1.4-1.1,1.8c0,0-2.9,1.4-5.6,3.6
		c-0.1,0-0.1,0.1-0.1,0.2v1.1H16c1,0,1.8,0.8,1.8,1.8S17,30.3,16,30.3H3.1c-1,0-1.8-0.8-1.8-1.8v-2.8c0-1.1,0.5-2.2,1.4-2.9
		c2-1.6,4.1-2.9,5.4-3.6v-2.3c-0.5-0.7-0.8-1.5-0.8-2.3v-4.2c0-3,2.5-5.5,5.5-5.5h1.9C17.7,4.9,20.2,7.4,20.2,10.4z"/>
</g>
</svg>
