<?xml version="1.0" encoding="utf-8"?>
<!-- Generator: Adobe Illustrator 22.1.0, SVG Export Plug-In . SVG Version: 6.00 Build 0)  -->
<svg version="1.1" id="Layer_1" xmlns="http://www.w3.org/2000/svg" xmlns:xlink="http://www.w3.org/1999/xlink" x="0px" y="0px"
	 viewBox="0 0 28 20" style="enable-background:new 0 0 28 20;" xml:space="preserve">
<style type="text/css">
	.st0{fill:#FFFFFF;}
	.st1{fill:#49A044;}
	.st2{fill:#C7001B;}
</style>
<g>
	<rect class="st0" width="28" height="20"/>
	<rect class="st1" width="28" height="6.7"/>
	<rect y="13.3" class="st2" width="28" height="6.7"/>
	<g>
		<polygon class="st2" points="14.1,8.1 13.8,8.3 13.8,12.1 14.1,12.3 14.3,12.1 14.4,8.3 		"/>
		<path class="st2" d="M14.6,7.7c-0.1,0.2-0.4,0.2-0.5,0.1c0,0,0,0,0,0c-0.2,0.1-0.4,0.1-0.6-0.1c0,0,0,0,0,0c0,0.2,0.1,0.4,0.2,0.4
			c0.1,0,0.2,0,0.3-0.1c0.1,0.1,0.3,0.1,0.5,0C14.6,7.9,14.7,7.8,14.6,7.7"/>
		<path class="st2" d="M14.8,8.2c0.8,1,0.5,2.5-0.5,3.3c-0.5,0.3-1.1,0.5-1.7,0.4c1.1,0.4,2.4-0.1,2.8-1.2
			C15.8,9.8,15.5,8.8,14.8,8.2"/>
		<path class="st2" d="M13.3,8.2c-0.8,1-0.5,2.5,0.5,3.3c0.5,0.3,1.1,0.5,1.7,0.4c-1.1,0.4-2.4-0.1-2.8-1.2
			C12.3,9.8,12.6,8.8,13.3,8.2"/>
		<path class="st2" d="M15.1,8.1c1,0.8,1.3,2.2,0.5,3.3c0,0.1-0.1,0.1-0.1,0.1c0.9-0.5,1.2-1.6,0.7-2.5C16,8.6,15.5,8.3,15.1,8.1"/>
		<path class="st2" d="M13.1,8.1c-1,0.8-1.3,2.2-0.5,3.3c0,0.1,0.1,0.1,0.1,0.1c-0.9-0.5-1.2-1.6-0.8-2.5
			C12.2,8.6,12.6,8.3,13.1,8.1"/>
	</g>
	<path class="st0" d="M0.1,6.4h0.1V6.1h0.4v0.3h0.6V6H0.8v0.1H1v0.1H0.7V6H0.1V6.4z M0.3,6.4h0.1V6.3H0.3V6.4z M0.1,5.9h1.6V5.8H0.1
		V5.9z M1.7,6.4H1.3V6h0.5V5.8h0.1v0.5H2V5.8h0.1v0.5h0.1V5.8h0.1v0.6H1.8V6.1H1.4v0.1h0.2V6.4z"/>
	<path class="st0" d="M2.5,6.4h0.1V6.1H3v0.3h0.6V6H3.3v0.1h0.2v0.1H3.2V6H2.5V6.4z M2.8,6.4h0.1V6.3H2.8V6.4z M2.5,5.9h1.6V5.8H2.5
		V5.9z M4.1,6.4H3.8V6h0.5V5.8h0.1v0.5h0.1V5.8h0.1v0.5h0.1V5.8h0.1v0.6H4.3V6.1H3.9v0.1h0.2V6.4z"/>
	<path class="st0" d="M5,6.4h0.1V6.1h0.4v0.3h0.6V6H5.7v0.1H6v0.1H5.6V6H5V6.4z M5.3,6.4h0.1V6.3H5.3V6.4z M5,5.9h1.6V5.8H5V5.9z
		 M6.6,6.4H6.2V6h0.5V5.8h0.1v0.5H7V5.8h0.1v0.5h0.1V5.8h0.1v0.6H6.7V6.1H6.4v0.1h0.2V6.4z"/>
	<path class="st0" d="M7.5,6.4h0.1V6.1H8v0.3h0.6V6H8.2v0.1h0.2v0.1H8.1V6H7.5V6.4z M7.7,6.4h0.1V6.3H7.7V6.4z M7.5,5.9h1.6V5.8H7.5
		V5.9z M9.1,6.4H8.7V6h0.5V5.8h0.1v0.5h0.1V5.8h0.1v0.5h0.1V5.8h0.1v0.6H9.2V6.1H8.8v0.1h0.2V6.4z"/>
	<path class="st0" d="M9.9,6.4h0.1V6.1h0.4v0.3h0.6V6h-0.4v0.1h0.2v0.1h-0.4V6H9.9V6.4z M10.2,6.4h0.1V6.3h-0.1V6.4z M9.9,5.9h1.6
		V5.8H9.9V5.9z M11.6,6.4h-0.4V6h0.5V5.8h0.1v0.5h0.1V5.8h0.1v0.5h0.1V5.8h0.1v0.6h-0.6V6.1h-0.4v0.1h0.2V6.4z"/>
	<path class="st0" d="M12.4,6.4h0.1V6.1h0.4v0.3h0.6V6h-0.4v0.1h0.2v0.1H13V6h-0.6V6.4z M12.7,6.4h0.1V6.3h-0.1V6.4z M12.4,5.9H14
		V5.8h-1.6V5.9z M14,6.4h-0.4V6h0.5V5.8h0.1v0.5h0.1V5.8h0.1v0.5h0.1V5.8h0.1v0.6h-0.6V6.1h-0.4v0.1H14V6.4z"/>
	<path class="st0" d="M14.9,6.4H15V6.1h0.4v0.3H16V6h-0.4v0.1h0.2v0.1h-0.4V6h-0.6V6.4z M15.1,6.4h0.1V6.3h-0.1V6.4z M14.9,5.9h1.6
		V5.8h-1.6V5.9z M16.5,6.4h-0.4V6h0.5V5.8h0.1v0.5h0.1V5.8H17v0.5h0.1V5.8h0.1v0.6h-0.6V6.1h-0.4v0.1h0.2V6.4z"/>
	<path class="st0" d="M17.4,6.4h0.1V6.1h0.4v0.3h0.6V6h-0.4v0.1h0.2v0.1H18V6h-0.6V6.4z M17.6,6.4h0.1V6.3h-0.1V6.4z M17.4,5.9H19
		V5.8h-1.6V5.9z M19,6.4h-0.4V6h0.5V5.8h0.1v0.5h0.1V5.8h0.1v0.5h0.1V5.8h0.1v0.6h-0.6V6.1h-0.4v0.1H19V6.4z"/>
	<path class="st0" d="M19.8,6.4H20V6.1h0.4v0.3H21V6h-0.4v0.1h0.2v0.1h-0.4V6h-0.6V6.4z M20.1,6.4h0.1V6.3h-0.1V6.4z M19.8,5.9h1.6
		V5.8h-1.6V5.9z M21.4,6.4h-0.4V6h0.5V5.8h0.1v0.5h0.1V5.8h0.1v0.5h0.1V5.8h0.1v0.6h-0.6V6.1h-0.4v0.1h0.2V6.4z"/>
	<path class="st0" d="M22.3,6.4h0.1V6.1h0.4v0.3h0.6V6h-0.4v0.1h0.2v0.1h-0.4V6h-0.6V6.4z M22.6,6.4h0.1V6.3h-0.1V6.4z M22.3,5.9
		h1.6V5.8h-1.6V5.9z M23.9,6.4h-0.4V6H24V5.8h0.1v0.5h0.1V5.8h0.1v0.5h0.1V5.8h0.1v0.6H24V6.1h-0.4v0.1h0.2V6.4z"/>
	<path class="st0" d="M24.8,6.4h0.1V6.1h0.4v0.3h0.6V6h-0.4v0.1h0.2v0.1h-0.4V6h-0.6V6.4z M25,6.4h0.1V6.3H25V6.4z M24.8,5.9h1.6
		V5.8h-1.6V5.9z M26.4,6.4H26V6h0.5V5.8h0.1v0.5h0.1V5.8h0.1v0.5H27V5.8h0.1v0.6h-0.6V6.1h-0.4v0.1h0.2V6.4z"/>
	<path class="st0" d="M27.2,6.4h0.1V6.1h0.4v0.3H28V6h0v0.1h0v0.1h-0.1V6h-0.6V6.4z M27.5,6.4h0.1V6.3h-0.1V6.4z M27.2,5.9H28V5.8
		h-0.8V5.9z"/>
	<path class="st0" d="M0.1,6.8h1.1V6.5H0.1V6.8z M1.3,6.8h1.1V6.5H1.3V6.8z"/>
	<path class="st0" d="M2.5,6.8h1.1V6.5H2.5V6.8z M3.8,6.8h1.1V6.5H3.8V6.8z"/>
	<path class="st0" d="M5,6.8h1.1V6.5H5V6.8z M6.2,6.8h1.1V6.5H6.2V6.8z"/>
	<path class="st0" d="M7.5,6.8h1.1V6.5H7.5V6.8z M8.7,6.8h1.1V6.5H8.7V6.8z"/>
	<path class="st0" d="M9.9,6.8h1.1V6.5H9.9V6.8z M11.2,6.8h1.1V6.5h-1.1V6.8z"/>
	<path class="st0" d="M12.4,6.8h1.1V6.5h-1.1V6.8z M13.7,6.8h1.1V6.5h-1.1V6.8z"/>
	<path class="st0" d="M14.9,6.8H16V6.5h-1.1V6.8z M16.1,6.8h1.1V6.5h-1.1V6.8z"/>
	<path class="st0" d="M17.4,6.8h1.1V6.5h-1.1V6.8z M18.6,6.8h1.1V6.5h-1.1V6.8z"/>
	<path class="st0" d="M19.8,6.8H21V6.5h-1.1V6.8z M21.1,6.8h1.1V6.5h-1.1V6.8z"/>
	<path class="st0" d="M22.3,6.8h1.1V6.5h-1.1V6.8z M23.5,6.8h1.1V6.5h-1.1V6.8z"/>
	<path class="st0" d="M24.8,6.8h1.1V6.5h-1.1V6.8z M26,6.8h1.1V6.5H26V6.8z"/>
	<path class="st0" d="M27.2,6.8l0.8,0V6.5l-0.8,0V6.8z"/>
	<path class="st0" d="M0.1,14.2h0.1v-0.3h0.4v0.3h0.6v-0.4H0.8v0.1H1v0.1H0.7v-0.3H0.1V14.2z M0.3,14.2h0.1v-0.1H0.3V14.2z
		 M0.1,13.7h1.6v-0.1H0.1V13.7z M1.7,14.2H1.3v-0.4h0.5v-0.2h0.1v0.5H2v-0.5h0.1v0.5h0.1v-0.5h0.1v0.6H1.8v-0.3H1.4v0.1h0.2V14.2z"
		/>
	<path class="st0" d="M2.5,14.2h0.1v-0.3H3v0.3h0.6v-0.4H3.3v0.1h0.2v0.1H3.2v-0.3H2.5V14.2z M2.8,14.2h0.1v-0.1H2.8V14.2z
		 M2.5,13.7h1.6v-0.1H2.5V13.7z M4.1,14.2H3.8v-0.4h0.5v-0.2h0.1v0.5h0.1v-0.5h0.1v0.5h0.1v-0.5h0.1v0.6H4.3v-0.3H3.9v0.1h0.2V14.2z
		"/>
	<path class="st0" d="M5,14.2h0.1v-0.3h0.4v0.3h0.6v-0.4H5.7v0.1H6v0.1H5.6v-0.3H5V14.2z M5.3,14.2h0.1v-0.1H5.3V14.2z M5,13.7h1.6
		v-0.1H5V13.7z M6.6,14.2H6.2v-0.4h0.5v-0.2h0.1v0.5H7v-0.5h0.1v0.5h0.1v-0.5h0.1v0.6H6.7v-0.3H6.4v0.1h0.2V14.2z"/>
	<path class="st0" d="M7.5,14.2h0.1v-0.3H8v0.3h0.6v-0.4H8.2v0.1h0.2v0.1H8.1v-0.3H7.5V14.2z M7.7,14.2h0.1v-0.1H7.7V14.2z
		 M7.5,13.7h1.6v-0.1H7.5V13.7z M9.1,14.2H8.7v-0.4h0.5v-0.2h0.1v0.5h0.1v-0.5h0.1v0.5h0.1v-0.5h0.1v0.6H9.2v-0.3H8.8v0.1h0.2V14.2z
		"/>
	<path class="st0" d="M9.9,14.2h0.1v-0.3h0.4v0.3h0.6v-0.4h-0.4v0.1h0.2v0.1h-0.4v-0.3H9.9V14.2z M10.2,14.2h0.1v-0.1h-0.1V14.2z
		 M9.9,13.7h1.6v-0.1H9.9V13.7z M11.6,14.2h-0.4v-0.4h0.5v-0.2h0.1v0.5h0.1v-0.5h0.1v0.5h0.1v-0.5h0.1v0.6h-0.6v-0.3h-0.4v0.1h0.2
		V14.2z"/>
	<path class="st0" d="M12.4,14.2h0.1v-0.3h0.4v0.3h0.6v-0.4h-0.4v0.1h0.2v0.1H13v-0.3h-0.6V14.2z M12.7,14.2h0.1v-0.1h-0.1V14.2z
		 M12.4,13.7H14v-0.1h-1.6V13.7z M14,14.2h-0.4v-0.4h0.5v-0.2h0.1v0.5h0.1v-0.5h0.1v0.5h0.1v-0.5h0.1v0.6h-0.6v-0.3h-0.4v0.1H14
		V14.2z"/>
	<path class="st0" d="M14.9,14.2H15v-0.3h0.4v0.3H16v-0.4h-0.4v0.1h0.2v0.1h-0.4v-0.3h-0.6V14.2z M15.1,14.2h0.1v-0.1h-0.1V14.2z
		 M14.9,13.7h1.6v-0.1h-1.6V13.7z M16.5,14.2h-0.4v-0.4h0.5v-0.2h0.1v0.5h0.1v-0.5H17v0.5h0.1v-0.5h0.1v0.6h-0.6v-0.3h-0.4v0.1h0.2
		V14.2z"/>
	<path class="st0" d="M17.4,14.2h0.1v-0.3h0.4v0.3h0.6v-0.4h-0.4v0.1h0.2v0.1H18v-0.3h-0.6V14.2z M17.6,14.2h0.1v-0.1h-0.1V14.2z
		 M17.4,13.7H19v-0.1h-1.6V13.7z M19,14.2h-0.4v-0.4h0.5v-0.2h0.1v0.5h0.1v-0.5h0.1v0.5h0.1v-0.5h0.1v0.6h-0.6v-0.3h-0.4v0.1H19
		V14.2z"/>
	<path class="st0" d="M19.8,14.2H20v-0.3h0.4v0.3H21v-0.4h-0.4v0.1h0.2v0.1h-0.4v-0.3h-0.6V14.2z M20.1,14.2h0.1v-0.1h-0.1V14.2z
		 M19.8,13.7h1.6v-0.1h-1.6V13.7z M21.4,14.2h-0.4v-0.4h0.5v-0.2h0.1v0.5h0.1v-0.5h0.1v0.5h0.1v-0.5h0.1v0.6h-0.6v-0.3h-0.4v0.1h0.2
		V14.2z"/>
	<path class="st0" d="M22.3,14.2h0.1v-0.3h0.4v0.3h0.6v-0.4h-0.4v0.1h0.2v0.1h-0.4v-0.3h-0.6V14.2z M22.6,14.2h0.1v-0.1h-0.1V14.2z
		 M22.3,13.7h1.6v-0.1h-1.6V13.7z M23.9,14.2h-0.4v-0.4H24v-0.2h0.1v0.5h0.1v-0.5h0.1v0.5h0.1v-0.5h0.1v0.6H24v-0.3h-0.4v0.1h0.2
		V14.2z"/>
	<path class="st0" d="M24.8,14.2h0.1v-0.3h0.4v0.3h0.6v-0.4h-0.4v0.1h0.2v0.1h-0.4v-0.3h-0.6V14.2z M25,14.2h0.1v-0.1H25V14.2z
		 M24.8,13.7h1.6v-0.1h-1.6V13.7z M26.4,14.2H26v-0.4h0.5v-0.2h0.1v0.5h0.1v-0.5h0.1v0.5H27v-0.5h0.1v0.6h-0.6v-0.3h-0.4v0.1h0.2
		V14.2z"/>
	<path class="st0" d="M0.1,13.4h1.1v-0.3H0.1V13.4z M1.3,13.4h1.1v-0.3H1.3V13.4z"/>
	<path class="st0" d="M2.5,13.4h1.1v-0.3H2.5V13.4z M3.8,13.4h1.1v-0.3H3.8V13.4z"/>
	<path class="st0" d="M5,13.4h1.1v-0.3H5V13.4z M6.2,13.4h1.1v-0.3H6.2V13.4z"/>
	<path class="st0" d="M7.5,13.4h1.1v-0.3H7.5V13.4z M8.7,13.4h1.1v-0.3H8.7V13.4z"/>
	<path class="st0" d="M9.9,13.4h1.1v-0.3H9.9V13.4z M11.2,13.4h1.1v-0.3h-1.1V13.4z"/>
	<path class="st0" d="M12.4,13.4h1.1v-0.3h-1.1V13.4z M13.7,13.4h1.1v-0.3h-1.1V13.4z"/>
	<path class="st0" d="M14.9,13.4H16v-0.3h-1.1V13.4z M16.1,13.4h1.1v-0.3h-1.1V13.4z"/>
	<path class="st0" d="M17.4,13.4h1.1v-0.3h-1.1V13.4z M18.6,13.4h1.1v-0.3h-1.1V13.4z"/>
	<path class="st0" d="M19.8,13.4H21v-0.3h-1.1V13.4z M21.1,13.4h1.1v-0.3h-1.1V13.4z"/>
	<path class="st0" d="M22.3,13.4h1.1v-0.3h-1.1V13.4z M23.5,13.4h1.1v-0.3h-1.1V13.4z"/>
	<path class="st0" d="M24.8,13.4h1.1v-0.3h-1.1V13.4z M26,13.4h1.1v-0.3H26V13.4z"/>
	<path class="st0" d="M27.3,14.2h0.1V14h0.4v0.3H28l0-0.4l0,0V14h0v0.1h-0.1v-0.3h-0.6V14.2z M27.5,14.2h0.1v-0.1h-0.1V14.2z
		 M27.3,13.7H28v-0.1h-0.7V13.7z"/>
	<path class="st0" d="M27.3,13.4H28v-0.3h-0.7V13.4z"/>
</g>
</svg>
