<?xml version="1.0" encoding="utf-8"?>
<!-- Generator: Adobe Illustrator 22.1.0, SVG Export Plug-In . SVG Version: 6.00 Build 0)  -->
<svg version="1.1" id="Layer_1" xmlns="http://www.w3.org/2000/svg" xmlns:xlink="http://www.w3.org/1999/xlink" x="0px" y="0px"
	 viewBox="0 0 232 28" style="enable-background:new 0 0 232 28;" xml:space="preserve">
<style type="text/css">
	.st0{fill:#00141E;}
	.st1{enable-background:new    ;}
	.st2{fill:#FFFFFF;}
</style>
<g>
	<path class="st0" d="M14,12h203.8v4H14V12z"/>
	<g id="dark-circle-4" transform="translate(-9 -5)">
		<path class="st0" d="M227,5c7.7,0,14,6.3,14,14s-6.3,14-14,14c-7.7,0-14-6.3-14-14S219.3,5,227,5z"/>
		<g class="st1">
			<path class="st2" d="M228.6,22h-4.8v-1.1c0.9-1.6,2.4-4,4.2-6.7h1.8v6.7h1.4V22h-1.4v2h-1.2V22z M225.1,20.9h3.6v-5.6h-0.1
				C227.5,16.7,226.2,18.8,225.1,20.9L225.1,20.9z"/>
		</g>
	</g>
	<g id="_3" transform="translate(-21 -5)">
		<path class="st0" d="M171,5c7.7,0,14,6.3,14,14s-6.3,14-14,14c-7.7,0-14-6.3-14-14S163.3,5,171,5z"/>
		<path class="st2" d="M176.8,14l-8.2,8.2l-3.5-3.5l-1.2,1.2l3.5,3.5l1.2,1.2l1.2-1.2l8.2-8.2L176.8,14z"/>
	</g>
	<g id="_2" transform="translate(-32 -5)">
		<path class="st0" d="M114,5c7.7,0,14,6.3,14,14s-6.3,14-14,14s-14-6.3-14-14S106.3,5,114,5z"/>
		<path class="st2" d="M119.8,14l-8.2,8.2l-3.5-3.5l-1.2,1.2l3.5,3.5l1.2,1.2l1.2-1.2l8.2-8.2L119.8,14z"/>
	</g>
	<g id="tick" transform="translate(8 -5)">
		<path class="st0" d="M6,5c7.7,0,14,6.3,14,14S13.7,33,6,33S-8,26.7-8,19S-1.7,5,6,5z"/>
		<path class="st2" d="M11.8,14l-8.2,8.2l-3.5-3.5L-1,19.8l3.5,3.5l1.2,1.2l1.2-1.2l8.2-8.2L11.8,14z"/>
	</g>
</g>
</svg>
