<?xml version="1.0" encoding="utf-8"?>
<!-- Generator: Adobe Illustrator 22.1.0, SVG Export Plug-In . SVG Version: 6.00 Build 0)  -->
<svg version="1.1" id="Layer_1" xmlns="http://www.w3.org/2000/svg" xmlns:xlink="http://www.w3.org/1999/xlink" x="0px" y="0px"
	 viewBox="0 0 232 28" style="enable-background:new 0 0 232 28;" xml:space="preserve">
<style type="text/css">
	.st0{fill:#F5F5F5;}
	.st1{enable-background:new    ;}
	.st2{fill:#00141E;}
	.st3{fill:#FFFFFF;}
</style>
<g>
	<path class="st0" d="M14.7,12H218v4H14.7V12z"/>
	<path class="st0" d="M218,0c7.7,0,14,6.3,14,14s-6.3,14-14,14c-7.7,0-14-6.3-14-14S210.3,0,218,0z"/>
	<g class="st1">
		<path class="st2" d="M219.1,16.9h-4.8v-1.1c0.9-1.6,2.4-4,4.2-6.7h1.8v6.7h1.4v1.1h-1.4v2h-1.2V16.9z M215.6,15.8h3.6v-5.6H219
			C218,11.7,216.7,13.7,215.6,15.8L215.6,15.8z"/>
	</g>
	<path class="st0" d="M150,0c7.7,0,14,6.3,14,14s-6.3,14-14,14c-7.7,0-14-6.3-14-14S142.3,0,150,0z"/>
	<g class="st1">
		<path class="st2" d="M148.7,13.4h1.2c1.1,0,1.9-0.7,1.9-1.8c0-1-0.8-1.7-1.9-1.7s-1.9,0.6-2,1.7h-1.2c0.1-1.7,1.3-2.8,3.2-2.8
			c1.7,0,3.1,1.1,3.1,2.6c0,1.2-0.6,2-1.7,2.3v0.1c1.3,0.2,2.2,1.1,2.2,2.4c0,1.6-1.5,2.9-3.5,2.9c-2,0-3.4-1.1-3.5-2.8h1.2
			c0.1,1.1,1,1.7,2.3,1.7c1.3,0,2.2-0.8,2.2-1.9c0-1.1-0.9-1.9-2.3-1.9h-1.3V13.4z"/>
	</g>
	<path class="st0" d="M82,0c7.7,0,14,6.3,14,14s-6.3,14-14,14s-14-6.3-14-14S74.3,0,82,0z"/>
	<g class="st1">
		<path class="st2" d="M81.9,8.9c1.8,0,3.1,1.2,3.1,2.8c0,1-0.5,1.8-2.1,3.6l-2.4,2.5v0.1h4.6V19h-6.4v-0.8l3.4-3.7
			c1.3-1.4,1.6-1.9,1.6-2.7c0-1-0.8-1.7-1.9-1.7c-1.2,0-1.9,0.8-1.9,1.9v0h-1.2v0C78.8,10.2,80.1,8.9,81.9,8.9z"/>
	</g>
	<path class="st2" d="M14,0c7.7,0,14,6.3,14,14s-6.3,14-14,14S0,21.7,0,14S6.3,0,14,0z"/>
	<g class="st1">
		<path class="st3" d="M14.7,10.4h-0.1l-2.5,1.8V11l2.6-1.9h1.2v9.9h-1.2V10.4z"/>
	</g>
</g>
</svg>
