<?xml version="1.0" encoding="utf-8"?>
<!-- Generator: Adobe Illustrator 22.1.0, SVG Export Plug-In . SVG Version: 6.00 Build 0)  -->
<svg version="1.1" id="Layer_1" xmlns="http://www.w3.org/2000/svg" xmlns:xlink="http://www.w3.org/1999/xlink" x="0px" y="0px"
	 viewBox="0 0 232 28" style="enable-background:new 0 0 232 28;" xml:space="preserve">
<style type="text/css">
	.st0{fill:#00141E;}
	.st1{fill:#F5F5F5;}
	.st2{enable-background:new    ;}
	.st3{fill:#FFFFFF;}
</style>
<g>
	<path class="st0" d="M14,12h68v4H14V12z"/>
	<path class="st1" d="M82,12h136.5v4H82V12z"/>
	<g id="_4" transform="translate(-9 -5)">
		<path class="st1" d="M227,5c7.7,0,14,6.3,14,14s-6.3,14-14,14c-7.7,0-14-6.3-14-14S219.3,5,227,5z"/>
		<g class="st2">
			<path class="st0" d="M228.6,22h-4.8v-1.1c0.9-1.6,2.4-4,4.2-6.7h1.8v6.7h1.4V22h-1.4v2h-1.2V22z M225.1,20.9h3.6v-5.6h-0.1
				C227.5,16.7,226.2,18.8,225.1,20.9L225.1,20.9z"/>
		</g>
	</g>
	<g id="_3" transform="translate(-21 -5)">
		<path class="st1" d="M171,5c7.7,0,14,6.3,14,14s-6.3,14-14,14c-7.7,0-14-6.3-14-14S163.3,5,171,5z"/>
		<g class="st2">
			<path class="st0" d="M170.1,18.4h1.2c1.1,0,1.9-0.7,1.9-1.8c0-1-0.8-1.7-1.9-1.7s-1.9,0.6-2,1.7h-1.2c0.1-1.7,1.3-2.8,3.2-2.8
				c1.7,0,3.1,1.1,3.1,2.6c0,1.2-0.6,2-1.7,2.3v0.1c1.3,0.2,2.2,1.1,2.2,2.4c0,1.6-1.5,2.9-3.5,2.9c-2,0-3.4-1.1-3.5-2.8h1.2
				c0.1,1.1,1,1.7,2.3,1.7c1.3,0,2.2-0.8,2.2-1.9c0-1.1-0.9-1.9-2.3-1.9h-1.3V18.4z"/>
		</g>
	</g>
	<g id="dark-circle-2" transform="translate(-32 -5)">
		<path class="st0" d="M114,5c7.7,0,14,6.3,14,14s-6.3,14-14,14s-14-6.3-14-14S106.3,5,114,5z"/>
		<g class="st2">
			<path class="st3" d="M114.2,13.9c1.8,0,3.1,1.2,3.1,2.8c0,1-0.5,1.8-2.1,3.6l-2.4,2.5v0.1h4.6V24h-6.4v-0.8l3.4-3.7
				c1.3-1.4,1.6-1.9,1.6-2.7c0-1-0.8-1.7-1.9-1.7c-1.2,0-1.9,0.8-1.9,1.9v0H111v0C111,15.2,112.4,13.9,114.2,13.9z"/>
		</g>
	</g>
	<g id="tick" transform="translate(8 -5)">
		<path class="st0" d="M6,5c7.7,0,14,6.3,14,14S13.7,33,6,33S-8,26.7-8,19S-1.7,5,6,5z"/>
		<path class="st3" d="M11.8,14l-8.2,8.2l-3.5-3.5L-1,19.8l3.5,3.5l1.2,1.2l1.2-1.2l8.2-8.2L11.8,14z"/>
	</g>
</g>
</svg>
