<?xml version="1.0" encoding="utf-8"?>
<!-- Generator: Adobe Illustrator 22.1.0, SVG Export Plug-In . SVG Version: 6.00 Build 0)  -->
<svg version="1.1" id="Layer_1" xmlns="http://www.w3.org/2000/svg" xmlns:xlink="http://www.w3.org/1999/xlink" x="0px" y="0px"
	 viewBox="0 0 40 40" style="enable-background:new 0 0 40 40;" xml:space="preserve">
<style type="text/css">
	.st0{fill:none;}
	.st1{fill:#00141E;}
	.st2{fill:#5856D6;}
</style>
<g>
	<path class="st0" d="M0,0h40v40H0V0z"/>
	<path class="st1" d="M38.8,20c0,3-0.7,5.9-2.1,8.5l-2.4-2c0.9-2,1.4-4.3,1.4-6.5c0-8.7-7.1-15.8-15.8-15.8S4.3,11.3,4.3,20
		s7,15.8,15.7,15.8c2.3,0,4.6-0.5,6.7-1.5l1.6,2.6c-2.6,1.3-5.4,2-8.3,2C9.7,38.8,1.3,30.3,1.3,20S9.7,1.3,20,1.3S38.8,9.7,38.8,20z
		"/>
	<path class="st1" d="M11.8,19.3l-3,0.1c0.3-5.5,4.6-9.9,10-10.5l0.1,3C15.1,12.4,12.1,15.4,11.8,19.3z"/>
	<path class="st1" d="M20,31.3c-2.2,0-4.3-0.6-6.1-1.8l2.1-2.3c1.2,0.7,2.6,1.1,4.1,1.1c4.5,0,8.3-3.7,8.3-8.3c0-1.4-0.4-2.8-1-4
		l2.5-1.7c1,1.7,1.5,3.6,1.5,5.7C31.3,26.2,26.2,31.3,20,31.3z"/>
	<path class="st2" d="M20,17c1.7,0,3,1.3,3,3s-1.3,3-3,3s-3-1.3-3-3S18.3,17,20,17z"/>
	<path class="st2" d="M24.5,8c1.7,0,3,1.3,3,3s-1.3,3-3,3s-3-1.3-3-3S22.8,8,24.5,8z"/>
	<path class="st2" d="M11,21.5c1.7,0,3,1.3,3,3s-1.3,3-3,3s-3-1.3-3-3S9.3,21.5,11,21.5z"/>
	<path class="st2" d="M32,29c1.7,0,3,1.3,3,3s-1.3,3-3,3s-3-1.3-3-3S30.3,29,32,29z"/>
</g>
</svg>
