<?xml version="1.0" encoding="utf-8"?>
<!-- Generator: Adobe Illustrator 22.1.0, SVG Export Plug-In . SVG Version: 6.00 Build 0)  -->
<svg version="1.1" id="Layer_1" xmlns="http://www.w3.org/2000/svg" xmlns:xlink="http://www.w3.org/1999/xlink" x="0px" y="0px"
	 viewBox="0 0 24 24" style="enable-background:new 0 0 24 24;" xml:space="preserve">
<style type="text/css">
	.st0{fill:none;}
	.st1{fill:#00141E;}
</style>
<g>
	<path class="st0" d="M0,0h24v24H0V0z"/>
	<path class="st1" d="M12,23c1.2,0,2.3-1,2.3-2.3H9.7C9.7,22,10.8,23,12,23z M18.8,16.2v-5.6c0-3.5-1.8-6.3-5.1-7.1V2.7
		C13.7,1.8,12.9,1,12,1s-1.7,0.8-1.7,1.7v0.8C7,4.3,5.2,7.1,5.2,10.6v5.6l-1.5,1.5c-0.7,0.7-0.2,1.9,0.8,1.9h14.9
		c1,0,1.5-1.2,0.8-1.9L18.8,16.2z"/>
</g>
</svg>
