<?xml version="1.0" encoding="utf-8"?>
<!-- Generator: Adobe Illustrator 22.1.0, SVG Export Plug-In . SVG Version: 6.00 Build 0)  -->
<svg version="1.1" id="Layer_1" xmlns="http://www.w3.org/2000/svg" xmlns:xlink="http://www.w3.org/1999/xlink" x="0px" y="0px"
	 viewBox="0 0 24 24" style="enable-background:new 0 0 24 24;" xml:space="preserve">
<style type="text/css">
	.st0{fill:none;}
	.st1{fill:#00141E;}
	.st2{fill:#C92E7E;}
</style>
<g>
	<path class="st0" d="M0,0h24v24H0V0z"/>
	<path class="st1" d="M11.4,1.2c-0.5,0.7-0.8,1.5-1,2.3V2.8C10.4,2.1,10.8,1.5,11.4,1.2z M12.1,23.1c1.2,0,2.3-1,2.3-2.3H9.8
		C9.8,22.1,10.8,23.1,12.1,23.1z M18,13.6c-4.4,0-8-3.6-8-8c0-0.7,0.1-1.4,0.3-2c-3.3,0.8-5.1,3.6-5.1,7.1v5.6l-1.5,1.5
		c-0.4,0.4-0.4,1.2,0,1.6c0.3,0.2,0.5,0.3,0.8,0.3h14.9c0.6,0,1.1-0.5,1.1-1.1c0-0.3-0.1-0.6-0.3-0.8l-1.5-1.5v-2.7
		C18.5,13.6,18.3,13.6,18,13.6z"/>
	<path class="st2" d="M22.5,6.4c0,2.8-2.2,5-5,5s-5-2.2-5-5s2.2-5,5-5S22.5,3.6,22.5,6.4z"/>
</g>
</svg>
