<?xml version="1.0" encoding="utf-8"?>
<!-- Generator: Adobe Illustrator 22.1.0, SVG Export Plug-In . SVG Version: 6.00 Build 0)  -->
<svg version="1.1" id="Layer_1" xmlns="http://www.w3.org/2000/svg" xmlns:xlink="http://www.w3.org/1999/xlink" x="0px" y="0px"
	 viewBox="0 0 36 36" style="enable-background:new 0 0 36 36;" xml:space="preserve">
<style type="text/css">
	.st0{fill:#677378;}
</style>
<g id="plus" transform="translate(-15 -464)">
	<path class="st0" d="M47,500H19c-2.2,0-4-1.8-4-4v-28c0-2.2,1.8-4,4-4h28c2.2,0,4,1.8,4,4v28C51,498.2,49.2,500,47,500z M19,465
		c-1.7,0-3,1.3-3,3v28c0,1.7,1.3,3,3,3h28c1.7,0,3-1.3,3-3v-28c0-1.7-1.3-3-3-3H19z"/>
	<path class="st0" d="M33.7,481.3v-7.8h-1.5v7.8h-7.8v1.5h7.8v7.8h1.5v-7.8h7.8v-1.5H33.7z"/>
</g>
</svg>
