<?xml version="1.0" encoding="utf-8"?>
<!-- Generator: Adobe Illustrator 22.1.0, SVG Export Plug-In . SVG Version: 6.00 Build 0)  -->
<svg version="1.1" id="Layer_1" xmlns="http://www.w3.org/2000/svg" xmlns:xlink="http://www.w3.org/1999/xlink" x="0px" y="0px"
	 viewBox="0 0 40 40" style="enable-background:new 0 0 40 40;" xml:space="preserve">
<style type="text/css">
	.st0{fill:none;}
	.st1{fill:#00141E;}
	.st2{fill:#5856D6;}
</style>
<g>
	<path class="st0" d="M0,0h40v40H0V0z"/>
	<path class="st1" d="M31.3,30.1v-4.9c0-0.7-0.5-1.2-1.2-1.2h-4.9c-0.7,0-1.2,0.5-1.2,1.2v4.9c0,0.7,0.5,1.2,1.2,1.2h4.9
		C30.8,31.3,31.3,30.8,31.3,30.1z M28.9,28.9h-2.5v-2.5h2.5V28.9z"/>
	<path class="st1" d="M17.3,22.2H8.8c-0.7,0-1.2,0.5-1.2,1.2v8.5c0,0.7,0.5,1.2,1.2,1.2h8.5c0.7,0,1.2-0.5,1.2-1.2v-8.5
		C18.5,22.7,18,22.2,17.3,22.2z M16.1,30.7H10v-6.2h6.2v6.2H16.1z"/>
	<path class="st2" d="M2,8.6V3.2C2,2.5,2.5,2,3.2,2h5.4c0.7,0,1.2,0.5,1.2,1.2S9.3,4.4,8.6,4.4H4.4v4.2c0,0.7-0.5,1.2-1.2,1.2
		S2,9.3,2,8.6z"/>
	<path class="st2" d="M38,3.2v5.4c0,0.7-0.5,1.2-1.2,1.2s-1.2-0.5-1.2-1.2V4.4h-4.2c-0.7,0-1.2-0.5-1.2-1.2S30.7,2,31.4,2h5.4
		C37.5,2,38,2.5,38,3.2z"/>
	<path class="st2" d="M38,31.4v5.4c0,0.7-0.5,1.2-1.2,1.2h-5.4c-0.7,0-1.2-0.5-1.2-1.2s0.5-1.2,1.2-1.2h4.2v-4.2
		c0-0.7,0.5-1.2,1.2-1.2C37.5,30.2,38,30.7,38,31.4z"/>
	<path class="st2" d="M9.8,36.8c0,0.7-0.5,1.2-1.2,1.2H3.2C2.5,38,2,37.5,2,36.8v-5.4c0-0.7,0.5-1.2,1.2-1.2s1.2,0.5,1.2,1.2v4.2
		h4.2C9.3,35.6,9.8,36.1,9.8,36.8z"/>
	<path class="st1" d="M17.3,7.6H8.8c-0.7,0-1.2,0.5-1.2,1.2v8.5c0,0.7,0.5,1.2,1.2,1.2h8.5c0.7,0,1.2-0.5,1.2-1.2V8.8
		C18.5,8.1,18,7.6,17.3,7.6z M16.1,16.1H10V10h6.2v6.1H16.1z"/>
	<path class="st1" d="M33.1,17.3V8.8c0-0.7-0.5-1.2-1.2-1.2h-8.5c-0.7,0-1.2,0.5-1.2,1.2v8.5c0,0.7,0.5,1.2,1.2,1.2h8.5
		C32.6,18.5,33.1,18,33.1,17.3z M30.7,16.1h-6.2V10h6.2V16.1z"/>
</g>
</svg>
