<?xml version="1.0" encoding="utf-8"?>
<!-- Generator: Adobe Illustrator 22.1.0, SVG Export Plug-In . SVG Version: 6.00 Build 0)  -->
<svg version="1.1" id="Layer_1" xmlns="http://www.w3.org/2000/svg" xmlns:xlink="http://www.w3.org/1999/xlink" x="0px" y="0px"
	 viewBox="0 0 24 24" style="enable-background:new 0 0 24 24;" xml:space="preserve">
<style type="text/css">
	.st0{fill:none;}
	.st1{fill:#00141E;}
</style>
<g>
	<path class="st0" d="M0,0h24v24H0V0z"/>
	<path class="st1" d="M12.7,7v4.6c0,0.2-0.1,0.5-0.3,0.7l-3.2,3.2c-0.2,0.2-0.5,0.3-0.7,0.3c-0.3,0-0.6-0.1-0.7-0.4
		c-0.2-0.2-0.3-0.4-0.3-0.6c0-0.2,0.1-0.5,0.3-0.7l2.8-2.8V7c0-0.6,0.5-1,1-1C12.3,5.9,12.7,6.4,12.7,7z M23.8,19.2
		c0,2.6-2.1,4.8-4.8,4.8c-1.4,0-2.7-0.6-3.6-1.7c-1.1,0.4-2.4,0.7-3.7,0.7C5.4,23,0.2,17.8,0.2,11.5S5.4,0,11.7,0
		C18,0,23.2,5.2,23.2,11.5c0,1.5-0.3,3-0.9,4.3C23.3,16.8,23.8,18,23.8,19.2z M18,14.7c0.4-0.9,0.7-1.6,0.8-2.4
		c0.2-1.9-0.3-3.7-1.5-5.2c-1.2-1.5-2.9-2.4-4.7-2.6c-1.5-0.2-3.1,0.2-4.4,1C7.7,5.8,7,5.7,6.7,5.3l0-0.1C6.5,4.9,6.5,4.7,6.5,4.5
		C6.5,4.2,6.8,4,7,3.8l0,0c1.8-1.1,3.8-1.5,5.7-1.2c2.4,0.3,4.5,1.5,6,3.4c1.5,2,2.2,4.2,1.9,6.6c-0.1,0.7-0.3,1.4-0.5,2.1
		c0.1,0,0.2,0.1,0.4,0.1c0.4-1,0.5-2.2,0.5-3.3C21,6.3,16.7,2,11.5,2c-5,0-9.3,4.3-9.3,9.5c0,5.2,4.3,9.5,9.5,9.5
		c0.9,0,1.8-0.2,2.7-0.4c0-0.1-0.1-0.3-0.1-0.5c-1.1,0.3-2.3,0.5-3.6,0.4c-2.4-0.3-4.5-1.5-6-3.4c-1.5-2-2.2-4.3-1.9-6.6
		c0-0.2,0.2-0.6,0.3-0.7c0.2-0.2,0.5-0.2,0.8-0.2l0.1,0l0.1,0C4.3,9.7,4.5,9.8,4.6,10c0.2,0.2,0.2,0.4,0.2,0.7
		c-0.2,1.9,0.3,3.8,1.5,5.2c1.1,1.4,2.7,2.3,4.7,2.6c1.2,0.2,2.5,0,3.6-0.6C15,16.3,16.3,15.1,18,14.7z M18.1,14.9L18.1,14.9
		L18.1,14.9L18.1,14.9z M16.4,19.2c0,1.5,1.2,2.6,2.7,2.6s2.7-1.2,2.7-2.6c0-1.4-1.2-2.7-2.7-2.7C17.6,16.6,16.4,17.8,16.4,19.2z"/>
</g>
</svg>
