<?xml version="1.0" encoding="utf-8"?>
<!-- Generator: Adobe Illustrator 22.1.0, SVG Export Plug-In . SVG Version: 6.00 Build 0)  -->
<svg version="1.1" id="Layer_1" xmlns="http://www.w3.org/2000/svg" xmlns:xlink="http://www.w3.org/1999/xlink" x="0px" y="0px"
	 viewBox="0 0 24 24" style="enable-background:new 0 0 24 24;" xml:space="preserve">
<style type="text/css">
	.st0{fill:none;}
	.st1{fill:#00141E;}
</style>
<g>
	<path class="st0" d="M0,0h24v24H0V0z"/>
	<path class="st1" d="M12.6,6.9v4.6c0,0.2-0.1,0.5-0.3,0.6l-3.2,3.2c-0.2,0.2-0.4,0.3-0.6,0.3c-0.2,0-0.5-0.1-0.6-0.3
		c-0.2-0.2-0.3-0.4-0.3-0.6c0-0.2,0.1-0.5,0.3-0.6l2.9-2.9V6.9c0-0.5,0.4-0.9,0.9-0.9C12.2,6,12.6,6.4,12.6,6.9z M23.8,19.3
		c0,2.6-2.1,4.7-4.7,4.7c-1.4,0-2.7-0.6-3.6-1.7C14.3,22.8,13,23,11.7,23C5.4,23,0.2,17.8,0.2,11.5C0.2,5.2,5.4,0,11.7,0
		C18,0,23.2,5.2,23.2,11.5c0,1.5-0.3,3-0.9,4.4C23.2,16.8,23.8,18,23.8,19.3z M18.1,14.8c0.4-0.8,0.7-1.6,0.8-2.5
		c0.2-1.9-0.3-3.8-1.5-5.3c-1.2-1.5-2.9-2.5-4.8-2.7c-1.6-0.2-3.2,0.2-4.5,1C7.6,5.6,7,5.5,6.7,5.1C6.6,4.8,6.6,4.6,6.6,4.4
		s0.2-0.4,0.4-0.6c1.7-1,3.7-1.5,5.7-1.2c2.4,0.3,4.5,1.5,6,3.4c1.5,1.9,2.2,4.2,1.9,6.6c-0.1,0.8-0.3,1.5-0.6,2.2
		c0.2,0,0.4,0.1,0.6,0.2c0.4-1.1,0.6-2.3,0.6-3.5c0-5.3-4.3-9.7-9.7-9.7C6.4,1.8,2,6.2,2,11.5s4.3,9.7,9.7,9.7c1,0,2-0.2,2.9-0.5
		c-0.1-0.2-0.1-0.4-0.1-0.7c-1.2,0.4-2.5,0.5-3.8,0.4c-2.4-0.3-4.5-1.5-6-3.4c-1.5-1.9-2.2-4.2-1.9-6.6c0-0.2,0.2-0.5,0.3-0.6
		c0.2-0.2,0.4-0.2,0.7-0.2C4,9.7,4.3,9.8,4.4,10c0.2,0.2,0.2,0.4,0.2,0.7c-0.2,1.9,0.3,3.8,1.5,5.3c1.2,1.5,2.9,2.4,4.8,2.7
		c1.3,0.2,2.6,0,3.8-0.6C15.1,16.4,16.4,15.2,18.1,14.8z M16.3,19.3c0,1.6,1.3,2.8,2.8,2.8c1.6,0,2.8-1.3,2.8-2.8s-1.3-2.8-2.8-2.8
		C17.6,16.5,16.3,17.8,16.3,19.3z"/>
</g>
</svg>
