<?xml version="1.0" encoding="utf-8"?>
<!-- Generator: Adobe Illustrator 22.1.0, SVG Export Plug-In . SVG Version: 6.00 Build 0)  -->
<svg version="1.1" id="Layer_1" xmlns="http://www.w3.org/2000/svg" xmlns:xlink="http://www.w3.org/1999/xlink" x="0px" y="0px"
	 viewBox="0 0 24 24" style="enable-background:new 0 0 24 24;" xml:space="preserve">
<style type="text/css">
	.st0{fill:none;}
	.st1{fill:#8B989F;}
</style>
<g>
	<path class="st0" d="M0,0h24v24H0V0z"/>
	<path class="st1" d="M12.5,6.8v4.6c0,0.2-0.1,0.4-0.2,0.5L9,15.2c-0.2,0.2-0.4,0.3-0.5,0.3c-0.2,0-0.4-0.1-0.5-0.2l0,0
		c-0.2-0.2-0.3-0.4-0.3-0.5c0-0.2,0.1-0.4,0.2-0.5l3-3V6.8c0-0.4,0.4-0.8,0.8-0.8C12.1,6.1,12.5,6.4,12.5,6.8z M23.8,19.4
		c0,2.5-2.1,4.6-4.6,4.6c-1.4,0-2.7-0.6-3.5-1.7l-0.1-0.1l-0.1,0c-1.1,0.5-2.4,0.7-3.8,0.7C5.4,23,0.2,17.8,0.2,11.5
		C0.2,5.2,5.4,0,11.7,0C18,0,23.2,5.2,23.2,11.5c0,1.5-0.3,3-0.9,4.4l0,0.1l0.1,0.1C23.3,17,23.8,18.2,23.8,19.4z M18.2,15L18.2,15
		L18.2,15c0.6-1,0.8-1.8,0.9-2.6c0.2-2-0.3-3.9-1.5-5.4c-1.3-1.6-3-2.6-4.9-2.8C11,3.9,9.4,4.3,8,5.1C7.6,5.4,7,5.3,6.8,5
		C6.7,4.7,6.7,4.5,6.7,4.3C6.7,4.2,6.9,4,7,3.8c1.8-1,3.8-1.5,5.7-1.2c2.4,0.3,4.5,1.5,6,3.4c1.5,1.9,2.2,4.2,1.9,6.6
		c-0.1,0.8-0.3,1.5-0.6,2.2L19.9,15h0.2c0.2,0,0.4,0.1,0.5,0.2l0.1,0.1l0-0.1c0.4-1.1,0.6-2.3,0.6-3.6c0-5.5-4.5-9.9-9.9-9.9
		c-5.3,0-9.7,4.5-9.7,9.9c0,5.5,4.5,9.9,9.9,9.9c0.9,0,2-0.2,3-0.5l0.1,0l-0.1-0.1c-0.1-0.2-0.1-0.4-0.1-0.7v-0.2L14.5,20
		c-1.1,0.4-2.4,0.5-3.8,0.4c-2.4-0.3-4.5-1.5-6-3.4c-1.5-1.9-2.2-4.2-1.9-6.6c0-0.2,0.2-0.4,0.3-0.5c0.2-0.2,0.3-0.2,0.6-0.2
		c0,0,0.1,0,0.1,0C4,9.8,4.1,9.9,4.2,10l0,0c0.2,0.2,0.2,0.3,0.2,0.6c-0.2,2,0.3,3.9,1.5,5.4c1.2,1.5,2.9,2.5,4.9,2.8
		c1.3,0.2,2.7,0,3.9-0.6l0.1,0l0-0.1C15.2,16.6,16.5,15.4,18.2,15z M22.1,19.4c0-1.6-1.4-3-3-3c-1.6,0-3,1.4-3,3c0,1.6,1.3,3,3,3
		C20.8,22.3,22.1,21,22.1,19.4z"/>
</g>
</svg>
