<?xml version="1.0" encoding="utf-8"?>
<!-- Generator: Adobe Illustrator 22.1.0, SVG Export Plug-In . SVG Version: 6.00 Build 0)  -->
<svg version="1.1" id="search" xmlns="http://www.w3.org/2000/svg" xmlns:xlink="http://www.w3.org/1999/xlink" x="0px" y="0px"
	 viewBox="0 0 18 18" style="enable-background:new 0 0 18 18;" xml:space="preserve">
<style type="text/css">
	.st0{fill:none;}
	.st1{fill:#8B989F;}
</style>
<rect x="0" y="0" class="st0" width="18" height="18"/>
<path id="Search-Icon" class="st1" d="M11.8,13.4c-3.3,2.4-7.9,1.7-10.4-1.5S-0.3,3.9,3,1.5S10.9-0.3,13.4,3c1.9,2.6,1.9,6.2,0,8.8
	l4.6,4.6L16.4,18L11.8,13.4z M11.8,11.4L11.8,11.4c2.2-2.4,2-6.2-0.4-8.4S5.2,1,3,3.4c-2.2,2.4-2,6.2,0.4,8.4
	C5.9,14,9.6,13.8,11.8,11.4C11.8,11.4,11.8,11.4,11.8,11.4L11.8,11.4z"/>
</svg>
