<?xml version="1.0" encoding="utf-8"?>
<!-- Generator: Adobe Illustrator 22.1.0, SVG Export Plug-In . SVG Version: 6.00 Build 0)  -->
<svg version="1.1" id="Layer_1" xmlns="http://www.w3.org/2000/svg" xmlns:xlink="http://www.w3.org/1999/xlink" x="0px" y="0px"
	 viewBox="0 0 24 24" style="enable-background:new 0 0 24 24;" xml:space="preserve">
<style type="text/css">
	.st0{fill:none;}
	.st1{fill:#8B989F;}
</style>
<g>
	<path class="st0" d="M0,0h24v24H0V0z"/>
	<path class="st1" d="M11.9,7.4c-2.5,0-4.6,2.1-4.6,4.6c0,2.5,2.1,4.6,4.6,4.6c2.5,0,4.6-2.1,4.6-4.6C16.5,9.5,14.5,7.4,11.9,7.4z
		 M11.9,14.9C10.3,14.9,9,13.6,9,12s1.3-2.9,2.9-2.9s2.9,1.3,2.9,2.9S13.5,14.9,11.9,14.9z M14.7,0.2c0-0.1-0.1-0.2-0.3-0.2L9.3,0
		c0,0-0.1,0-0.1,0c0,0,0,0,0,0.1L8.7,3.6C7.9,3.9,7,4.5,6.3,5.1L3,3.7c-0.2,0-0.3,0-0.4,0.1L0.3,8.1c0,0,0,0.1,0,0.1
		c0,0,0,0.1,0,0.1L3,10.6V12l0.1,1.2l-2.8,2.2c-0.1,0.1-0.1,0.2-0.1,0.3l2.5,4.4H3L6.4,19h0.2L6.6,19c0.7,0.6,1.2,0.9,1.9,1.2h0.3
		l0.4,3.6c0,0.1,0.2,0.2,0.3,0.2h5c0,0,0.3,0,0.3-0.2l0.4-3.4l0,0c0.7-0.3,1.8-0.7,2.5-1.3l0,0l0.2,0.1l3,1.2l0.2,0l2.5-4.5
		c0.1-0.2-0.1-0.4-0.1-0.4l-2.9-2l0.1-1.5l-0.1-1.2l2.8-2.2c0.1-0.1,0.1-0.2,0.1-0.3L21,3.8H21l-0.1-0.1c0,0,0,0-0.1,0l-3.2,1.3
		h-0.2L17.3,5c-0.6-0.6-1.4-1-2.2-1.3L14.7,0.2z M20.1,18.2L16.9,17c-0.9,1-2,1.7-3.3,2.1l-0.4,3.3h-2.4L10.5,19
		c-1.3-0.3-3-1.1-3.9-2.1l-2.9,1.4l-1.3-2.3l2.6-1.9c-0.5-1.4-0.5-2.8,0-4.2L2.3,8l1.3-2.3l3,1.4C7.6,6,8.8,5.2,10.3,4.9l0.4-3.1
		h2.6l0.4,3.3c1.3,0.3,2.6,1.1,3.5,2.1l3-1.4l1.3,2.3l-2.8,1.8c0.4,1.3,0.4,2.7,0,4.1l2.6,2L20.1,18.2z"/>
</g>
</svg>
