<?xml version="1.0" encoding="utf-8"?>
<!-- Generator: Adobe Illustrator 22.1.0, SVG Export Plug-In . SVG Version: 6.00 Build 0)  -->
<svg version="1.1" id="Layer_1" xmlns="http://www.w3.org/2000/svg" xmlns:xlink="http://www.w3.org/1999/xlink" x="0px" y="0px"
	 viewBox="0 0 24 24" style="enable-background:new 0 0 24 24;" xml:space="preserve">
<style type="text/css">
	.st0{fill:none;}
	.st1{fill:#C0C1C2;}
</style>
<g>
	<path class="st0" d="M0,0h24v24H0V0z"/>
	<path class="st1" d="M20.9,13.3L21,12l-0.1-1.1l2.6-2.1c0.1-0.1,0.3-0.3,0.1-0.6L21.1,4c0-0.1-0.1-0.2-0.2-0.2
		c-0.1-0.1-0.2-0.1-0.4,0L17.5,5l-0.1,0c-0.7-0.6-1.3-0.9-2-1.2l-0.1,0l0-0.1l-0.4-3.2c0-0.2-0.2-0.4-0.5-0.4H9.6
		C9.4,0,9.1,0.1,9.1,0.4L8.6,3.7l-0.1,0c-0.8,0.3-1.4,0.7-2,1.2L6.5,5L3.4,3.7C3.2,3.7,3,3.7,2.8,3.9L0.4,8.1c0,0.1-0.1,0.3,0,0.4
		c0,0.1,0.1,0.1,0.1,0.1l0,0l2.6,2.1L3.1,12l0.1,1.1l-2.6,2.1c-0.1,0.1-0.3,0.3-0.1,0.6L2.9,20c0,0.1,0.1,0.2,0.2,0.2
		c0.1,0,0.2,0,0.3,0L6.6,19l0.1,0c0.7,0.6,1.3,0.9,2,1.2l0.1,0l0.4,3.3c0,0.2,0.3,0.4,0.5,0.4h4.9c0.2,0,0.5-0.1,0.5-0.4l0.4-3.1
		l0.1,0c0.8-0.3,1.4-0.7,2-1.2l0.1,0l0.1,0l3,1.2c0.1,0,0.2,0,0.3,0c0.1,0,0.2-0.1,0.2-0.2l2.4-4.3c0.2-0.3,0-0.6-0.1-0.7L20.9,13.3
		z M18.3,14l2.5,1.9l-1,1.8l-3-1.2c-0.9,1-2.2,1.8-3.6,2.1l-0.4,3.2h-2l-0.4-3.2c-1.4-0.3-2.7-1.1-3.6-2.1L4,17.8L3,16l2.5-1.8
		C5,12.8,5,11.3,5.5,9.9L3,8l1-1.8l2.9,1.3c0.9-1.1,2.2-1.9,3.7-2.2l0.4-3l0.1,0v0h2l0.4,3.2c1.4,0.3,2.7,1.1,3.6,2.1l2.9-1.3l1,1.8
		l-2.7,1.7C18.8,11.1,18.8,12.6,18.3,14z M12,7.3c-2.6,0-4.7,2.1-4.7,4.7c0,2.6,2.1,4.7,4.7,4.7c2.6,0,4.7-2.1,4.7-4.7
		C16.7,9.4,14.7,7.3,12,7.3z M12,14.6c-1.4,0-2.6-1.2-2.6-2.6c0-1.4,1.2-2.6,2.6-2.6c1.4,0,2.6,1.2,2.6,2.6
		C14.6,13.4,13.4,14.6,12,14.6z"/>
</g>
</svg>
