<?xml version="1.0" encoding="utf-8"?>
<!-- Generator: Adobe Illustrator 22.1.0, SVG Export Plug-In . SVG Version: 6.00 Build 0)  -->
<svg version="1.1" id="Layer_1" xmlns="http://www.w3.org/2000/svg" xmlns:xlink="http://www.w3.org/1999/xlink" x="0px" y="0px"
	 viewBox="0 0 24 24" style="enable-background:new 0 0 24 24;" xml:space="preserve">
<style type="text/css">
	.st0{fill:none;}
	.st1{fill:#00141E;}
</style>
<g>
	<path class="st0" d="M0,0h24v24H0V0z"/>
	<path class="st1" d="M21,13.3l0.1-1.3L21,10.9l2.7-2.1c0.1-0.1,0.3-0.3,0.1-0.6L21.2,4c0-0.1-0.1-0.2-0.2-0.2
		c-0.1-0.1-0.2-0.1-0.4,0L17.6,5h-0.1c-0.7-0.6-1.3-0.9-2-1.2h-0.1V3.7l-0.4-3.2c0-0.2-0.2-0.4-0.5-0.4H9.5C9.3-0.1,9,0,9,0.3
		L8.4,3.7H8.3C7.5,4,6.9,4.4,6.3,4.9V5L3.1,3.7c-0.2,0-0.4,0-0.6,0.2L0,8.1c0,0.1-0.1,0.3,0,0.4c0,0.1,0.1,0.1,0.1,0.1l0,0l2.7,2.1
		V12l0.1,1.1l-2.7,2.1c-0.1,0.1-0.3,0.3-0.1,0.6l2.5,4.2c0,0.1,0.1,0.2,0.2,0.2s0.2,0,0.3,0l3.3-1.2h0.1c0.7,0.6,1.3,0.9,2,1.2h0.1
		l0.4,3.3c0,0.2,0.3,0.4,0.5,0.4h5c0.2,0,0.5-0.1,0.5-0.4l0.4-3.1h0.1c0.8-0.3,1.4-0.7,2-1.2h0.1h0.1l3.1,1.2c0.1,0,0.2,0,0.3,0
		c0.1,0,0.2-0.1,0.2-0.2l2.5-4.3c0.2-0.3,0-0.6-0.1-0.7L21,13.3z M18.4,14l2.6,1.9l-1,1.8l-3.1-1.2c-0.9,1-2.3,1.8-3.7,2.1l-0.4,3.2
		h-2l-0.4-3.2c-1.4-0.3-2.8-1.1-3.7-2.1l-2.9,1.3l-1-1.8l2.6-1.8c-0.5-1.4-0.5-2.9,0-4.3L2.7,8l1-1.8l3,1.3C7.6,6.4,9,5.6,10.5,5.3
		l0.4-3H11l0,0h2l0.4,3.2c1.4,0.3,2.8,1.1,3.7,2.1l3-1.3l1,1.8l-2.8,1.7C18.9,11.1,18.9,12.6,18.4,14z M11.9,7.3
		c-2.7,0-4.8,2.1-4.8,4.7s2.2,4.7,4.8,4.7s4.8-2.1,4.8-4.7S14.7,7.3,11.9,7.3z M11.9,14.6c-1.4,0-2.7-1.2-2.7-2.6s1.2-2.6,2.7-2.6
		s2.7,1.2,2.7,2.6S13.4,14.6,11.9,14.6z"/>
</g>
</svg>
