<?xml version="1.0" encoding="utf-8"?>
<!-- Generator: Adobe Illustrator 22.1.0, SVG Export Plug-In . SVG Version: 6.00 Build 0)  -->
<svg version="1.1" id="visibility" xmlns="http://www.w3.org/2000/svg" xmlns:xlink="http://www.w3.org/1999/xlink" x="0px" y="0px"
	 viewBox="0 0 24 24" style="enable-background:new 0 0 24 24;" xml:space="preserve">
<style type="text/css">
	.st0{fill:none;}
	.st1{fill:#00141E;}
</style>
<g>
	<path id="Path_2377" class="st0" d="M0,0h24v24H0V0z"/>
	<path id="Path_2378" class="st1" d="M12,6c3.8,0,7.2,2.1,8.8,5.5c-2.4,4.9-8.3,6.9-13.1,4.5c-2-1-3.5-2.5-4.5-4.5
		C4.8,8.1,8.2,6,12,6 M12,4C7.1,4,2.8,7,1,11.5c2.4,6.1,9.2,9.1,15.3,6.7c3.1-1.2,5.5-3.6,6.7-6.7C21.2,7,16.9,4,12,4z M12,9
		c1.4,0,2.5,1.1,2.5,2.5S13.4,14,12,14s-2.5-1.1-2.5-2.5S10.6,9,12,9 M12,7c-2.5,0-4.5,2-4.5,4.5S9.5,16,12,16s4.5-2,4.5-4.5
		C16.5,9,14.5,7,12,7z"/>
</g>
</svg>
