<?xml version="1.0" encoding="utf-8"?>
<!-- Generator: Adobe Illustrator 22.1.0, SVG Export Plug-In . SVG Version: 6.00 Build 0)  -->
<svg version="1.1" id="Capa_1" xmlns="http://www.w3.org/2000/svg" xmlns:xlink="http://www.w3.org/1999/xlink" x="0px" y="0px"
	 viewBox="0 0 24 24" style="enable-background:new 0 0 24 24;" xml:space="preserve">
<style type="text/css">
	.st0{fill:none;}
	.st1{fill:#C0C1C2;}
</style>
<g>
	<path class="st0" d="M0,0h24v24H0V0z"/>
	<path class="st1" d="M22.3,10.3h-0.2V7.4c0-1.6-1.3-2.8-2.8-2.8h-0.1V3.8c0-1.1-0.9-2-2-2H2.4C1.1,1.6,0,2.7,0,4v16.3
		c0,1.1,0.9,2,2,2h17.3c1.6,0,2.8-1.3,2.8-2.8v-2.9h0.2c0.9,0,1.7-0.8,1.7-1.7V12C24,11.1,23.2,10.3,22.3,10.3z M22.1,12.2v2.4H17
		v-2.4C17,12.2,22.1,12.2,22.1,12.2z M20.2,10.3h-3.5c-0.9,0-1.7,0.8-1.7,1.7v2.9c0,0.9,0.8,1.7,1.7,1.7h3.5v2.9
		c0,0.5-0.4,0.9-0.9,0.9H2c-0.1,0-0.1-0.1-0.1-0.1V6.4c0.2,0,0.3,0,0.5,0h16.9c0.5,0,0.9,0.4,0.9,0.9C20.2,7.3,20.2,10.3,20.2,10.3z
		 M17.3,4.5H2.4C2.1,4.5,1.9,4.3,1.9,4s0.2-0.5,0.5-0.5h14.7c0.1,0,0.1,0.1,0.1,0.1L17.3,4.5z"/>
</g>
</svg>
