<?xml version="1.0" encoding="utf-8"?>
<!-- Generator: Adobe Illustrator 22.1.0, SVG Export Plug-In . SVG Version: 6.00 Build 0)  -->
<svg version="1.1" id="Capa_1" xmlns="http://www.w3.org/2000/svg" xmlns:xlink="http://www.w3.org/1999/xlink" x="0px" y="0px"
	 viewBox="0 0 24 24" style="enable-background:new 0 0 24 24;" xml:space="preserve">
<style type="text/css">
	.st0{fill:none;}
	.st1{fill:#8B989F;}
</style>
<g>
	<path class="st0" d="M0,0h24v24H0V0z"/>
	<path class="st1" d="M21.2,5.7V1.5H2.8C1.3,1.5,0,2.7,0,4.3V19c0,1.9,1.6,3.5,3.5,3.5H24V5.7H21.2z M2.8,2.9h17v2.8h-17
		C2,5.7,1.4,5,1.4,4.3S2,2.9,2.8,2.9z M22.6,16.9h-3.5c-1.2,0-2.1-0.9-2.1-2.1s0.9-2.1,2.1-2.1h3.5V16.9z M22.6,11.3h-3.5
		c-1.9,0-3.5,1.6-3.5,3.5s1.6,3.5,3.5,3.5h3.5v2.8H3.5c-1.2,0-2.1-0.9-2.1-2.1V6.7c0.4,0.2,0.9,0.4,1.4,0.4c1,0,18.3,0,19.8,0V11.3z
		 M18.4,14.1h1.4v1.4h-1.4V14.1z"/>
</g>
</svg>
