<?xml version="1.0" encoding="utf-8"?>
<!-- Generator: Adobe Illustrator 22.1.0, SVG Export Plug-In . SVG Version: 6.00 Build 0)  -->
<svg version="1.1" id="Layer_1" xmlns="http://www.w3.org/2000/svg" xmlns:xlink="http://www.w3.org/1999/xlink" x="0px" y="0px"
	 viewBox="0 0 720 720" style="enable-background:new 0 0 720 720;" xml:space="preserve">
<style type="text/css">
	.st0{fill:none;}
	.st1{fill:#F5B32E;}
</style>
<g id="Layer_2_1_">
	<g id="_1">
		<path class="st0" d="M0,0h720v720H0V0z"/>
		<path class="st1" d="M648.9,392.6l65.6,64.7c3.5,3.5,5.5,8.3,5.5,13.2V623c0,16.5-19.9,24.8-31.7,13.3L545.4,495.4
			c-7.3-7.2-7.4-19-0.2-26.3c0.1-0.1,0.1-0.1,0.2-0.2l77.3-76.2C630,385.5,641.6,385.5,648.9,392.6L648.9,392.6z M530.2,239.6
			l-18.3,18L408.2,360L303.9,462.8l0,0l-90.8-89.6c-7.3-7.2-7.4-19-0.2-26.3c0.1-0.1,0.1-0.1,0.2-0.2l77.8-76.7
			c7.2-7.1,18.9-7.1,26.1,0l54.1,53.3c7.3,7.1,18.9,7.1,26.1,0l77.3-76.2c7.3-7.2,7.4-19,0.2-26.3c-0.1-0.1-0.1-0.1-0.2-0.2
			L317,65.4c-7.2-7.1-18.9-7.1-26.1,0L5.5,346.8c-7.3,7.2-7.4,19-0.2,26.3c0.1,0.1,0.1,0.1,0.2,0.2l285.3,281.4
			c7.2,7.1,18.9,7.1,26.1,0l166.7-164.4l28.3-27.9l0,0L615.8,360l24.6-24.3l74.1-73.1c3.5-3.5,5.5-8.3,5.5-13.3V97
			c0-16.5-19.9-24.8-31.7-13.3L530.2,239.6z"/>
	</g>
</g>
</svg>
